<?xml version="1.0" standalone="no"?>
<!DOCTYPE svg PUBLIC "-//W3C//DTD SVG 1.1//EN" "http://www.w3.org/Graphics/SVG/1.1/DTD/svg11.dtd" >
<svg xmlns="http://www.w3.org/2000/svg" xmlns:xlink="http://www.w3.org/1999/xlink" version="1.1">
<metadata></metadata>
<defs>
<font id="helowen_monstaregular" horiz-adv-x="817" >
<font-face units-per-em="2048" ascent="1638" descent="-410" />
<missing-glyph horiz-adv-x="575" />
<glyph horiz-adv-x="0" />
<glyph horiz-adv-x="0" />
<glyph horiz-adv-x="682" />
<glyph unicode="&#xa;" horiz-adv-x="0" />
<glyph unicode="&#xd;" horiz-adv-x="0" />
<glyph unicode=" "  horiz-adv-x="575" />
<glyph unicode="&#x09;" horiz-adv-x="575" />
<glyph unicode="&#xa0;" horiz-adv-x="575" />
<glyph unicode="!" horiz-adv-x="352" d="M14 160q0 27 16 49q22 34 56 31q12 0 13 3q6 11 14 12.5t19 -2t16 -3.5q1 0 3 -2q4 -3 5 0q7 19 19 4q4 -4 8 3q3 10 8 5t22.5 -8.5t23.5 -14.5q5 -13 15 -10q11 3 14 -1t4 -14q5 -38 19 -69q9 -19 9 -75q7 -46 -37 -119q-3 -5 -4 -7q-18 -30 -48 -15q-13 7 -13 20 q-1 16 -14 41t-14 29q-8 20 -49 33q-36 12 -87 65q-18 18 -18 45zM20 764q-2 66 2 66q3 23 5.5 65.5t4.5 59.5q1 11 5 34.5t5.5 42t0.5 35.5q-1 9 4.5 24.5t5.5 23.5q4 51 26 187q13 79 24 121q10 37 45 47q11 3 32 4t27 2q18 3 34.5 -10t22.5 -33q20 -63 33 -221 q13 -172 14 -207q2 -46 7 -129.5t6 -110.5q6 -114 10 -171q6 -109 -10 -173q-3 -11 -8.5 -23t-10 -20.5t-12.5 -21.5t-12 -20q-14 -24 -43 -15q-21 7 -23 31q-1 11 -11 28.5t-12 23.5q-3 10 -26 18q-54 20 -117 101q-6 7 -8.5 16.5t-4.5 21t-4 18.5q-10 30 -10 119z" />
<glyph unicode="&#x22;" horiz-adv-x="450" d="M31 1220q-1 36 3 73q4 29 15 48q2 4 9 17.5t12 20.5q11 16 34 27q6 2 13 -1q8 -3 9 -2q12 8 18 -5q2 -3 4.5 -4.5t6 -1.5t5.5 -1q16 -7 16 -20q0 -4 4.5 -8.5t2.5 -10.5q-8 -20 -9 -26q-6 -35 -39 -91q-3 -6 -9 -16t-9 -16q-5 -8 -10 -15t-13 -15.5t-11.5 -12t-14.5 -13 t-13 -11.5q-7 -7 -12 -3q-6 4 -3 13q4 13 5 22t-3 15q-9 10 -11 37zM220 1161q-4 45 2 95q4 36 18 61q3 5 11.5 22t14.5 26q14 19 46 34q8 4 16 -1q9 -5 12 -3q14 8 24 -7q2 -4 6 -5.5t9 -2t7 -1.5q21 -10 22 -27q0 -4 7 -10.5t4 -14.5l-12 -33q-9 -49 -49 -116 q-4 -7 -11.5 -21t-11.5 -21q-7 -13 -18.5 -26t-17.5 -19t-23.5 -21t-20.5 -18q-10 -10 -17 -4t-4 17q4 13 6 28q2 13 -5 20q-11 12 -15 48z" />
<glyph unicode="#" horiz-adv-x="1277" d="M31 571q1 10 8 14q2 1 5.5 2.5t5.5 2.5q25 13 30 37q0 2 8 20q12 29 36 30q20 1 60.5 7t61.5 8q7 0 20.5 1t20.5 2q8 20 26 60l33 78q-74 -3 -222 -7q-15 0 -47 4q-15 2 -40 23q-7 6 -6 16.5t9 15.5l12 6q29 15 34 41q1 4 5 12t5 11q13 30 40 33q21 2 66.5 8.5t70.5 8.5 q88 7 146 6h7l30 63q59 118 88 167q23 39 41 59q8 10 17 11q17 2 29 -7q11 -10 5 -24q-14 -31 -28.5 -91t-21.5 -81q-7 -20 -18 -58l-10 -37q10 -1 30.5 -2t30.5 -1q18 -1 50.5 -2.5t59 -3t50.5 -3.5q19 -1 57.5 -3t57.5 -4q24 54 37 80q59 118 88 167q21 37 42 59 q8 10 16 11q17 2 29 -7q12 -10 6 -24q-14 -31 -28.5 -91t-21.5 -81q-5 -15 -37 -122q0 -1 -0.5 -2.5t-0.5 -2.5q102 -12 131 -17q37 -6 70 -19q11 -4 15 -11q8 -15 4 -30q-4 -13 -20 -13q-34 2 -95 -5.5t-84 -8.5q-38 -2 -56 -3q-24 -76 -39 -131q-3 -12 -10 -37t-11 -37 q68 -8 102 -14q42 -8 62 -16q11 -4 14 -11q7 -14 3 -26t-18 -12q-30 2 -85 -4.5t-74 -7.5q-21 0 -31 -1q-32 -112 -114 -349q-3 -9 -20 -43q-7 -14 -35 -30q-8 -5 -18 0t-11 14q0 2 -1 7t-1 7q-4 32 -26 46q-2 1 -18 17q-25 23 -18 49q5 20 15 65.5t17 69.5q24 84 45 136 q-8 0 -123 -9q-122 -9 -125 -9q-16 -2 -52 -4q-32 -106 -104 -316q-1 -3 -21 -43q-7 -14 -35 -30q-8 -5 -18 0t-11 14v7t-1 7q-4 31 -27 46q-2 1 -18 17q-24 22 -17 49q5 20 15 65.5t17 69.5q18 64 33 105q-20 -1 -58 -2t-58 -1q-14 0 -42 4q-13 1 -36 20q-6 5 -5 15z M462 699q46 0 92 -3q23 -1 70.5 -3.5t71.5 -4.5q21 -2 63 -4q12 31 29 71q16 36 48 110q-64 -3 -172 -11q-24 -2 -70 -5t-70 -5q-3 0 -9.5 -1t-10.5 -1q-28 -94 -29 -99q-2 -7 -6.5 -21.5t-6.5 -22.5z" />
<glyph unicode="$" horiz-adv-x="886" d="M34 583q3 5 18 7t22 -1q7 -2 15 -12q23 -26 57 -40q19 -8 54 -22.5t64 -26.5t55 -21q1 0 1 -0.5t1 -0.5q17 -5 19.5 -3t2.5 20v33h3v78q0 12 -10 15q-9 3 -45 22q-36 20 -51 58q-2 4 -6.5 17t-7.5 20q-11 23 -38 33q-25 10 -50 27q-50 34 -48 107q2 68 14 105l21 57 q9 27 47 75q67 84 157 118q36 13 44 15q13 4 15 6.5t3 15.5q1 20 3 59.5t3 58.5q0 5 0.5 15.5t0.5 15.5q0 17 16 20q26 4 34 -8q5 -7 9 -24q9 -40 13 -122q1 -16 3.5 -18.5t19.5 -5.5q85 -13 136 -64q27 -26 43 -95q9 -39 0 -78q-5 -20 -12 -31q-6 -10 -13 -10q-2 0 -4 1 t-2.5 2.5t-1.5 4t-1 3.5q-11 21 -27 26q-11 4 -22 26q-8 17 -30 19q-48 3 -80 -10q-16 -8 -16 -24q-1 -32 -6 -108.5t-5 -118.5q0 -17 3 -20.5t20 -4.5q86 -9 111 -14q100 -20 146 -44q50 -26 81 -62q15 -18 20 -43q1 -5 11 -38q28 -97 -17 -179q-31 -56 -74 -89 q-27 -22 -67 -33q-55 -16 -148 -16q-4 0 -33.5 -1.5t-33.5 0.5q-8 2 -11.5 -1.5t-2.5 -11.5q2 -32 4 -48q1 -12 3 -38.5t5 -46.5t9 -38q7 -25 -17 -64q-3 -5 -12 -9q-18 -9 -24 11q-2 9 -10 24t-9 18q-3 7 -9 12.5t-11 7.5t-15 5.5t-13 4.5q-12 5 -18 12q-9 13 -1 21 q8 9 8 31q1 39 1 116q0 15 -15 20q-133 55 -225 167q-7 9 -24 24q-36 29 -48 59q-9 22 -2 32zM307 864q-6 -21 2 -31.5t32 -17.5q12 -3 13 10q0 6 1 17.5t1 17.5q2 22 4.5 63.5t3.5 61.5q-6 -2 -13 -12q-8 -12 -15.5 -27.5t-10.5 -24t-10 -30.5t-8 -27zM448 565q0 -32 2 -98 q0 -14 3 -17.5t17 -2.5q50 2 93 16q73 25 81 94q-21 4 -29 5q-56 8 -149 19q-11 2 -14.5 -1t-3.5 -15z" />
<glyph unicode="%" horiz-adv-x="987" d="M35 1247q17 69 65 133q45 61 74 82q44 33 91 37q9 1 37 10q78 23 140 -7q44 -20 59 -69q15 -53 14 -76q-7 -115 -72 -226q-41 -70 -101 -103q-84 -46 -159 -13q-43 19 -61 60q-6 15 -24 25q-40 20 -57.5 59.5t-5.5 87.5zM155 1199q-9 -40 23.5 -63t64.5 -8q35 16 54 36 q77 82 93 222q4 15 -17 21q-44 12 -67 15t-38 -12q-87 -91 -113 -211zM240 134q-1 40 16 89q38 111 73 201q65 162 83 201q15 33 72 151t84 184l30 78l30 78q8 20 44 114.5t59 143.5q8 16 22 49t22 50q8 18 29.5 26.5t40.5 0.5q12 -4 19 -19q12 -28 5 -65q-6 -32 -48 -173 q-9 -32 -28 -100.5t-34.5 -120.5t-31.5 -99q-39 -111 -94 -236q-56 -127 -109 -265q-43 -112 -106 -311q-16 -52 -46 -91q-12 -14 -22 -13q-14 2 -16 11q-1 6 -6.5 16t-6.5 14q-8 22 -32 32h-2.5t-2.5 1q-50 17 -44 53zM571 149q-17 74 9 158q18 56 66 82q21 13 39 10 q21 -2 49 8q34 13 84 11q78 -3 111 -73q27 -57 27 -134q-11 -128 -105 -226q-11 -12 -29 -22q-34 -21 -70 -17t-64 32q-12 12 -35.5 36.5t-35.5 36.5q-31 31 -46 98zM655 243q-9 -64 2 -107q16 -62 52 -88q19 -14 31.5 -14.5t30.5 14.5q110 98 90 234q-3 22 -11 27t-36 4 q-56 -7 -107 -22q-20 -6 -38 -22q-13 -11 -14 -26z" />
<glyph unicode="&#x26;" horiz-adv-x="1196" d="M36 445q3 10 8 31t8 33t9 29t13 31q55 108 96 151q10 11 28.5 33t28.5 32q69 74 146 113q11 5 12 9q0 3 -2 5t-5.5 4.5t-4.5 2.5q-61 43 -78 116q-9 35 -4 76q11 79 71 147q49 55 87 80q5 3 34.5 24.5t46.5 30.5q151 84 311 67q60 -6 110 -34q58 -32 85 -104 q28 -74 -5 -172.5t-97 -144.5q-16 -13 -28 -17q-16 -6 -24.5 -4t-18.5 17q-7 9 -21 13q33 26 54 57q48 72 42 159q0 7 -0.5 19t-1 15t-3 8.5t-8.5 6.5t-15.5 2t-26.5 1q-104 1 -228 -83q-45 -30 -104 -91q-42 -42 -54 -89q-7 -25 10 -46q10 -12 27 -11q61 6 84 4 q23 -3 67 -30q7 -4 9 -17q3 -25 13 -44q15 -30 2 -65q-7 -18 -22 -44q-8 -13 -23 -14q-29 -3 -61 -16t-48 -22.5t-53 -33.5q-76 -49 -152 -142q-69 -85 -96 -194q-10 -39 19 -76q40 -52 96.5 -68t109.5 3q123 39 215 127q42 40 63 75q18 31 26 69q4 17 -14 17q-27 0 -43 7 t-19 22q-4 21 -14 34q-2 3 -6.5 16t-11.5 18q-1 1 -2.5 4t-3.5 4q-8 3 -28.5 16.5t-35.5 13.5q-1 0 -19 10q13 24 45 37q20 8 57.5 15t42.5 8q93 24 210 49q35 8 135 10q35 0 52 1q16 1 22 -2.5t11 -14.5q9 -22 -8 -39q-16 -16 -52 -38q-3 -2 -42 -29t-62 -37 q-3 -1 -15.5 -7t-19.5 -8q-18 -6 -11 -23q2 -6 6 -20q28 -93 -14 -188q-56 -130 -175 -222q-124 -95 -245 -119q-141 -27 -247 48q-52 37 -79 94q-7 14 -20 22q-100 58 -135 163q-19 56 -6 109z" />
<glyph unicode="'" horiz-adv-x="264" d="M32 1161q-4 45 2 95q4 36 18 61q3 5 11.5 22t14.5 26q14 19 46 34q8 4 16 -1q9 -5 12 -3q14 8 24 -7q2 -4 6 -5.5t9 -2t7 -1.5q21 -10 22 -27q0 -4 7 -10.5t4 -14.5l-12 -33q-9 -49 -49 -116q-4 -7 -11.5 -21t-11.5 -21q-7 -13 -18.5 -26t-17.5 -19t-23.5 -21t-20.5 -18 q-10 -10 -17 -4t-4 17q4 13 6 28q2 13 -5 20q-11 12 -15 48z" />
<glyph unicode="(" horiz-adv-x="466" d="M31 553q0 44 1 131.5t0 131.5q-2 75 6 225q4 72 28 165q43 161 77 241q39 90 117 155q38 32 88 35q17 2 24 -9q7 -12 -3 -28q-85 -126 -109 -272q-33 -203 -36 -243q-9 -94 -10 -163q-5 -305 -4 -392q1 -144 49 -285q39 -117 82 -177q61 -89 65 -95q22 -37 29 -91 q4 -25 -25 -50q-12 -11 -31 1q-15 9 -28 26q-4 5 -21.5 25.5t-25.5 32.5t-28.5 27t-26.5 22q-69 73 -107 152q-27 59 -50 149q-3 11 -10.5 30t-9.5 27q-17 54 -34 145q-4 20 -7 84z" />
<glyph unicode=")" horiz-adv-x="466" d="M31 -118q7 54 29 91q4 6 65 95q43 60 82 177q48 141 49 285q1 87 -4 392q-1 69 -10 163q-5 53 -35 243q-24 146 -109 272q-10 16 -3 28q6 11 23 9q51 -3 89 -35q77 -63 116 -155q34 -80 77 -241q24 -93 28 -165q8 -150 6 -225q-1 -44 0 -131.5t1 -131.5q-3 -64 -7 -84 q-17 -91 -34 -145q-2 -8 -9.5 -27t-10.5 -30q-23 -90 -50 -149q-39 -81 -106 -152q-7 -7 -27.5 -22t-28.5 -27q-6 -9 -14 -18.5t-17.5 -21t-14.5 -18.5q-12 -15 -29 -26q-19 -12 -31 -1q-27 24 -25 50z" />
<glyph unicode="*" horiz-adv-x="643" d="M30 645q0 6 4 8l6 3q13 9 14 22q0 2 2 6.5t2 5.5q4 15 18 18q11 2 32 7.5t32 7.5q33 6 70 9q4 0 13 1t13 2q-24 14 -136 89q-3 2 -6 4.5t-6.5 5.5t-5.5 5q-5 4 -9 20q-1 5 2.5 9t7.5 4q1 0 3.5 -0.5t3.5 -0.5q15 -2 25 7q1 1 10 7q14 9 26 2q10 -5 29.5 -15t28.5 -16 q33 -20 59 -39q5 -3 15.5 -9.5t15.5 -10.5q1 0 1 -0.5t1 -0.5q-6 56 -12 172q0 7 2 23q1 7 11 19q3 4 8.5 3.5t7.5 -4.5q0 -1 1 -2.5t2 -2.5q8 -14 21 -16q2 0 5.5 -2t5.5 -3q17 -7 18 -19q1 -11 5 -32.5t5 -32.5q4 -46 4 -70q0 -21 1 -31q20 12 29 19q26 19 59 39 q10 6 29.5 16t29.5 15q11 7 25 -2q9 -6 10 -7q10 -9 26 -7q1 0 3 0.5t3 0.5q5 0 8.5 -4.5t2.5 -8.5q-4 -15 -10 -20q-2 -2 -8 -7.5t-9 -7.5q-80 -54 -121 -79h11q77 -3 91 -4q23 -2 34 -6q6 -2 8 -5q5 -6 3 -15q-1 -7 -8 -7q-17 -1 -46.5 -7.5t-39.5 -7.5q-13 -2 -33.5 -5.5 t-26.5 -4.5q-1 0 -4.5 -0.5t-5.5 -0.5q11 -9 31 -27q46 -40 67 -62q14 -15 22 -27q4 -6 3 -9q-2 -9 -7 -13q-6 -4 -12 0q-13 10 -39 24.5t-35 20.5q-11 8 -31.5 19.5t-21.5 12.5q-36 23 -39 25q-1 -29 -5 -82l-9 -90q-3 -19 -9 -34q-2 -6 -5 -8q-7 -4 -15 -2q-7 1 -7 10 q1 17 -3.5 46.5t-5.5 39.5q-1 13 -3 35t-2 26q-1 10 -2.5 33t-2.5 35q-8 -5 -26 -16t-29 -18l-52 -32q-9 -6 -35 -20.5t-39 -24.5q-6 -4 -12 0q-5 4 -7 13q-1 4 2 9q6 10 23 27q7 8 15.5 16t19 17.5t16.5 14.5q-76 -10 -114 -14h-23q-5 0 -20 10q-4 2 -4 8z" />
<glyph unicode="+" horiz-adv-x="1034" d="M31 799q16 26 67 38q125 31 260 43q9 1 26.5 2.5t25.5 2.5q-7 92 -5 151q2 85 46 200q6 15 26.5 23.5t35.5 3.5q51 -18 94 -86q28 -45 44 -152q10 -75 13 -115q62 3 111 2q88 -2 200 -45q15 -6 23.5 -26.5t3.5 -35.5q-19 -52 -87 -95q-45 -28 -152 -44q-34 -4 -92 -10 q-1 -62 -11 -132q-2 -15 -8 -43q-5 -20 -22 -28q-10 -5 -21 -12.5t-24.5 -18.5t-20.5 -16q-9 -7 -10 -17q-2 -15 -14.5 -40t-13.5 -42q0 -1 -7 -15q-27 17 -39 67q-31 124 -43 261q-1 4 -1 12.5t-1 12.5q-87 0 -172 12q-5 1 -44 9q-20 5 -28 22q-5 10 -12.5 20.5t-18 24 t-15.5 20.5q-8 10 -17 11q-15 2 -40.5 14.5t-42.5 13.5z" />
<glyph unicode="," horiz-adv-x="264" d="M32 -60q-4 45 2 95q4 36 18 61q3 5 11.5 22t14.5 26q14 19 46 34q8 4 16 -1q9 -5 12 -3q14 8 24 -7q2 -4 6 -5.5t9 -2t7 -1.5q21 -10 22 -26q0 -4 7 -11t4 -15q-1 -4 -4 -10t-5 -11.5t-3 -10.5q-10 -51 -49 -117q-4 -7 -11.5 -20.5t-11.5 -20.5q-6 -10 -13 -19.5 t-16.5 -19l-15 -15t-18.5 -17t-17 -14.5q-9 -9 -17 -3q-7 6 -4 17q4 13 6 27q2 13 -5 20q-11 12 -15 48z" />
<glyph unicode="-" horiz-adv-x="538" d="M31 537q5 8 19 11q42 9 87 12q191 14 246 16q41 2 61 -1q2 -1 7.5 -2t8.5 -1q31 -7 42 -25.5t-3 -37.5q-16 -21 -72 -27q-16 -2 -93 -4q-59 -1 -132 2q-28 1 -86 9q-22 3 -28 14q-11 21 -47 29q-8 2 -10 5z" />
<glyph unicode="." horiz-adv-x="225" d="M33 95q20 64 94 65q40 3 58 -39q11 -21 8 -47t-10 -43.5t-22 -41.5q-4 -6 -16 -14q-26 -14 -38 12q-3 6 -7 18q-8 23 -29 27q-16 4 -27 17q-19 21 -11 46z" />
<glyph unicode="/" horiz-adv-x="808" d="M36 63q11 33 31 99.5t31 98.5q56 155 79 206q4 10 42 107q35 87 75 171q68 146 103 218q111 231 124 255q100 191 135 250q34 58 60 89q13 15 21 17q21 5 34 -9q13 -13 3 -34q-22 -46 -50.5 -135t-40.5 -120q-16 -41 -40.5 -110.5t-24.5 -70.5q-73 -189 -132 -359 q-11 -33 -35 -100t-36 -100q-61 -179 -214 -563q-7 -18 -32 -65q-10 -20 -48 -45q-11 -7 -21.5 -0.5t-10.5 19.5q0 3 0.5 10t0.5 10q0 48 -23 66q-2 2 -19 24q-26 33 -12 71z" />
<glyph unicode="0" horiz-adv-x="1071" d="M32 477q2 17 2 50t1 45q2 37 7 54q1 4 2.5 13.5t3.5 17t7 12.5q-1 12 1 25t4 22t6.5 24.5t6.5 22.5q21 86 30 111t26.5 75t26.5 75q5 11 2 22q-12 53 -8 103q3 37 23 71q38 68 84 110q47 43 90 65q105 53 184 61q101 10 177 -16q98 -34 162 -94q15 -15 55 -73 q38 -55 64 -141q38 -127 44 -172q2 -16 4.5 -46.5t3.5 -39.5q0 -90 -21 -212q-19 -110 -76 -227q-43 -87 -123 -195q-41 -54 -91 -101q-59 -55 -103 -82q-7 -4 -21 -13.5t-25.5 -16t-22.5 -11.5q-33 -14 -50.5 -20t-52 -13t-54.5 0q-101 17 -137 107q-1 3 -7 16.5t-8 21.5 q-13 41 -55 55q-44 16 -61 31q-39 35 -54 63q-20 36 -36 107q-15 63 -11 93zM316 449q2 -71 15 -118q10 -31 27 -51t38 -10q5 2 14 5.5t16 7t13 7.5q9 7 28 19.5t29 18.5q56 39 99 90q44 52 75 104q69 112 91 226q6 30 12.5 85.5t10.5 77.5q0 1 -2 9q-5 14 -2 32q2 7 0 20 q-1 17 -7 48.5t-8 43.5q-4 30 -37 105q-5 9 -14 11q-68 17 -121 8q-13 -2 -25.5 -6.5t-28.5 -12t-23 -10.5q-11 -4 -23 -11t-19 -12t-21.5 -15.5t-19.5 -13.5q-10 -8 -14 -24q-5 -23 -16 -69t-16 -69q-8 -36 -20 -103t-15 -84q-33 -170 -36 -309z" />
<glyph unicode="1" horiz-adv-x="358" d="M14.5 308.5q1.5 43.5 0.5 55.5q-3 44 8 105q2 10 -1 57q-1 30 5 84q1 12 0 38t1 38q6 38 13 171q1 21 7 76.5t5 86.5q-1 18 3.5 51.5t5.5 44.5q2 37 10 109q1 8 1.5 16.5t1 19t0.5 16.5q2 27 18 46q14 16 28 15q12 0 15 4q8 11 27 5q5 -1 7.5 -0.5t7.5 2t7 1.5 q26 4 54.5 -16t36.5 -47q32 -122 42 -227q7 -79 9.5 -158.5t3.5 -208.5t2 -158q3 -45 4 -130t3 -124q2 -49 2 -218q0 -47 -15 -81q-25 -58 -48 -79q-8 -7 -25 -4.5t-22 12.5q-6 10 -8 21q-1 12 -11.5 31t-12.5 24q-4 13 -21 17q-9 2 -17 5t-16.5 9t-13 9.5t-14 12.5 t-12.5 11q-51 44 -63 67q-10 20 -10 24q0 6 -1 8q-8 15 -10.5 32t-2.5 38.5t-2 32.5q-4 12 -2.5 55.5z" />
<glyph unicode="2" horiz-adv-x="960" d="M15 160q3 18 11 31q46 79 68 112q4 6 31.5 48.5t43.5 63.5q18 23 52 65t41 51q8 10 22 28t26 32.5t24 26.5q21 22 59 71t59 71q4 4 43 60q3 4 18 27t24 34q12 14 21 30t21.5 43t15.5 33q28 58 33 84q0 1 2 7t2 9q-1 15 -16 16q-25 2 -90 -7q-69 -8 -155 -37 q-70 -24 -128 -74q-56 -49 -80 -83q-13 -20 -26 4q-7 14 -19 19q-27 12 -34 48q-6 25 1 54q27 136 125 207q99 72 241 108q67 17 118 21q146 10 241 -44q47 -26 77 -73q2 -3 4 -11q11 -40 16 -60t13 -60.5t6.5 -61t-3.5 -62.5q-12 -85 -62 -182q-38 -73 -100 -168 q-21 -32 -50 -66q-20 -23 -61.5 -77.5t-66.5 -81.5q-11 -13 -12 -28q12 1 35.5 3.5t35 3t34.5 -0.5q106 -9 144 -23q73 -26 109 -92q33 -58 -2 -100q-5 -6 -16 -21t-20.5 -25.5t-19.5 -18.5q-25 -21 -49 -20q-21 0 -50 -11q-31 -10 -83 -16q-1 0 -2.5 -1t-2.5 -1 q-7 -2 -39 -8.5t-48 -11.5q-12 -4 -51 -16t-60 -19q-35 -12 -174 -53q-5 -2 -19.5 -7t-25.5 -7.5t-22 -1.5q-23 2 -35 11.5t-16 30.5q-7 37 -22 46q-6 3 -6 11q0 6 -0.5 11.5t-3.5 10.5t-4 8t-6.5 8.5t-7 6.5t-8.5 7l-8 7q-5 5 -10 4q-14 -3 -21 12q-7 14 -30 17 q-34 6 -46 15q-7 5 -6 13z" />
<glyph unicode="3" horiz-adv-x="901" d="M17 1010q-5 9 0 27q6 20 17 41q45 91 126 166q75 70 200 107q111 34 221 22q85 -10 156 -76q18 -16 19 -38q3 -28 16 -59q8 -17 10 -54q6 -122 -48 -226q-39 -76 -57 -105q-7 -11 -6 -14.5t12 -7.5q32 -13 57 -28q94 -54 116 -155q1 -4 2.5 -9t3.5 -11.5t3 -9.5 q48 -142 -13 -280q-55 -128 -157 -207q-53 -42 -93 -57q-9 -3 -64 -27q-76 -33 -145 -29q-154 10 -202 137q-17 44 -66 60q-26 8 -37 19q30 62 99 58q94 -5 159 7q45 9 123 60q43 28 70 69.5t50 100.5q2 5 4 19q1 18 -17 19q-77 4 -120 -6q-7 -1 -19 -2t-18 -3 q-62 -18 -80 -27q-16 -8 -50 1q-12 3 -14 18q-3 26 -12 48q-4 12 -11 14q-13 2 -9 19q6 24 -13 26q-2 0 -7 7q-12 24 -42 28q-6 1 -10 9q-8 19 -37 24q-4 1 -13.5 2t-16 3t-12.5 6q-10 7 -11 10t4 11l2 4q9 17 26.5 31t26.5 19t35 17q62 31 103 63q43 34 84 84q28 34 88 122 q13 18 37 77q-78 -8 -106 -20q-10 -4 -30 -11.5t-35 -14t-28 -14.5q-66 -40 -138 -101q-3 -3 -31 -36q-18 -23 -31 4q-19 41 -40 49l-3 2q-3 2 -5 3q-18 6 -23 15z" />
<glyph unicode="4" horiz-adv-x="978" d="M19 465q25 69 46 105q19 31 47 99q13 33 21 45q6 9 10.5 20t9 25t7.5 21q6 16 18 47.5t19 46.5q8 19 23.5 57t23.5 57q9 22 26 67t26 67q53 135 67 169l27 66q10 32 26 43t50 11q3 0 9.5 1t9.5 1q35 0 48 -36q6 -15 9.5 -29.5t4.5 -31.5t1.5 -28t-1.5 -32t-3 -28.5 t-4.5 -31.5t-4.5 -29q-27 -176 -96 -406q-12 -41 -49 -146q-8 -22 -13 -53q5 2 19 5.5t20 6.5q102 46 189 76q20 7 28 18.5t10 33.5q5 80 10 98q2 9 19 97l21 117q20 116 41 202q8 35 29 81q12 28 39 33q23 3 41 2q26 -3 33 -28q17 -55 27 -158q12 -115 4 -326 q-1 -19 -1.5 -40.5t-1 -48t-0.5 -40.5q0 -17 15 -24q29 -14 32 -24q15 -47 9 -69q-12 -42 -37 -76t-25 -77q0 -64 -2 -384q0 -21 -4 -61q-5 -49 -49 -100q-13 -15 -27.5 -10.5t-18.5 23.5q-2 14 -14 35.5t-14 25.5q-6 14 -41 26q-33 12 -56 39q-38 42 -44 61q-7 21 -18 86 q-2 14 -1 46t-3 46q-2 7 0 21.5t2 20.5q0 7 -2 19q-98 -37 -122 -49q-15 -8 -48.5 -18.5t-50.5 -19.5q-33 -18 -113 -28q-27 -4 -47 12t-26 43q-6 30 -18 39q-4 4 -9 20q-8 38 -41 45q-14 3 -20 14q-8 14 -37 20q-20 4 -29 9q-42 21 -26 63z" />
<glyph unicode="5" horiz-adv-x="970" d="M14 570.5q0 6.5 1.5 14.5t1.5 12q1 30 5 95q0 7 2 17q1 4 7 37.5t8 51.5q1 8 5 25t5 26q2 18 10 51.5t9 39.5q2 11 8.5 47t11.5 55q10 38 29 130q4 19 0.5 24.5t-24.5 14.5q-3 1 -40 24q-7 4 -1 14q23 38 58 47q8 2 24 8q24 9 27 34q2 15 20 39q9 13 20 13q18 0 25 8 q5 6 13 2q9 -5 32 0q22 6 37 -8q29 -26 69 -14q67 19 137 30l42 7t41.5 6.5t42 5t42 2.5t42.5 -2q82 -9 163 -50q16 -8 25.5 -33.5t2.5 -43.5q-9 -28 -32 -45q-15 -12 -45 -39.5t-47 -39.5q-22 -15 -43 -24q-116 -44 -160 -56q-10 -3 -30.5 -9.5t-33 -10t-30.5 -7t-34 -4.5 q-13 -1 -39.5 -7.5t-41.5 -7.5q-10 0 -12 -10q-1 -4 -1 -14q0 -35 -3 -73t-7.5 -87.5t-6.5 -73.5v-28q15 7 41 19t29 13q111 49 232 48q80 -1 157 -51q34 -22 66 -72q9 -14 17 -31.5t12.5 -28.5t11 -35.5t8 -30t8.5 -36t7 -31.5q26 -115 13 -228q-19 -157 -109 -267 q-14 -18 -42 -40q-76 -61 -124 -81q-6 -2 -31 -14.5t-40 -16.5q-65 -18 -111 -18h-40q-156 17 -223 155q-14 28 -40 35l-15 6q-29 12 -26 37q2 15 9 23t23 12q34 9 56 -3q15 -8 32 -6t48.5 4.5t57 6t47.5 10.5q46 14 67 25q69 35 104 67q43 38 62 108q11 44 15 119 q3 49 -8 116q-2 12 -6.5 15t-17.5 2q-70 -11 -76 -13q-133 -38 -243 -118q-15 -11 -21 -31q-15 -47 -51 -91q-20 -23 -46 -19q-19 2 -19 16q-1 10 -9.5 26t-10.5 22q-4 13 -27 21q-35 12 -57 37t-43 67q-4 7 -9 23t-10 24q-3 5 -3 11.5z" />
<glyph unicode="6" horiz-adv-x="966" d="M15 513q0 14 5.5 38t6.5 35q4 44 32 124q4 12 14 45.5t17 50.5q3 9 20.5 50.5t25.5 64.5q1 3 24 52q29 58 41 78q7 13 21.5 39.5t22.5 39.5q43 75 103 150q51 62 104 74q53 13 82 -8q7 -5 8 -7q1 -4 6 -19.5t6.5 -22.5t1.5 -19.5t-4 -23.5q-60 -148 -89 -223 q-12 -32 -34.5 -91.5t-30.5 -81.5q-4 -8 -1 -16q116 54 156 64q106 28 174 16q110 -20 174 -87q11 -14 12 -18q3 -14 19 -72.5t18 -91.5q3 -58 -6 -104q-34 -170 -145 -316q-77 -101 -184 -168q-11 -7 -40 -21t-44 -25q-5 -4 -16.5 -5.5t-15.5 -2.5q-54 -21 -103 -12 q-124 25 -171 137l-2 4t-1 4q-13 53 -70 73q-74 26 -115 106q-13 26 -18 59q-4 25 -4 131zM316 339q1 -20 16 -30t32 -3q32 14 46 24q68 46 112 90q70 67 111 178q3 8 0 11q-3 4 -12 0q-70 -33 -132 -90q-12 -11 -67 -68t-90 -82q-19 -13 -16 -30z" />
<glyph unicode="7" horiz-adv-x="983" d="M18 1193q9 13 27 23q65 33 171 69q113 38 261 70q226 47 290 57q27 4 85 8q10 1 19 -0.5t19.5 -5.5t16 -6.5t18 -9.5t15.5 -9t6 -15q3 -29 15 -50q6 -11 6 -49q1 -23 -8 -60q-32 -123 -54 -171q-10 -21 -64 -153q-50 -120 -94 -260q-13 -41 -39 -123.5t-39 -123.5 q-14 -44 -18 -52q-23 -57 -41 -129q-22 -90 -75 -237q-16 -43 -60 -102q-11 -14 -22 -31q-6 -12 -15 -11t-12 13q-12 40 -45 47q-12 3 -28 30q-20 38 -40 122q-9 34 0 119q2 24 2 35q0 36 11 65q5 15 5 19q0 18 4.5 36.5t12 41t10.5 35.5q3 14 15 56.5t17 65.5q2 12 11 32.5 t12 29.5q9 33 31 84q9 21 21.5 60t16.5 50q3 8 20 58.5t30 75.5q4 7 9 23t8 23q46 104 71 155q3 6 13 22.5t14 25.5q5 13 4 15q-3 4 -15 2l-207 -36q-36 -6 -76 -13.5t-88.5 -17t-75.5 -14.5q-28 -6 -58 -6q-21 0 -27 19q-2 7 -10 19.5t-10 19.5q-6 16 -21 20q-8 2 -22 10.5 t-19 10.5q-14 5 -4 18z" />
<glyph unicode="8" horiz-adv-x="1073" d="M18 234q-10 68 5 128q21 92 39 132q6 13 16.5 39.5t16.5 39.5q62 137 155 234q6 8 14 14q11 9 13 13t-0.5 7.5t-14.5 12.5q-25 18 -51 44q-53 53 -59 126q-3 40 8 74q22 69 73 132q45 56 82 90q105 99 237 146q119 41 221 36q122 -6 214 -82q32 -27 47 -75q3 -9 8 -27 t8 -27q17 -51 -2 -134q-16 -69 -59 -147q-71 -126 -94 -156q-23 -31 -69 -91q-7 -9 -19 -27q-8 -12 4 -23q58 -55 72 -81q1 -2 3.5 -5.5t3.5 -5.5q4 -18 15.5 -53t16.5 -61.5t2 -51.5q0 -92 -42 -174q-57 -112 -91 -154q-45 -57 -85 -92q-66 -57 -120 -90q-51 -31 -115 -52 q-48 -15 -80 -17q-116 -9 -182 95q-14 21 -23 46q-8 21 -32 30q-58 19 -90 64q-36 49 -46 123zM241 248q-5 -70 40 -113q29 -29 67 -11q60 28 115 69q70 53 134 142q36 51 46 77q2 6 6 23t8 25q4 7 6.5 17t3.5 15.5t2 19t1 16.5q1 16 -14 23q-36 17 -64 31q-119 60 -203 130 q-1 -2 -5 -8t-5 -9q-77 -159 -113 -295q-21 -80 -25 -152zM405 995q-6 -21 11 -39q47 -49 87 -75q75 -50 196 -104q10 10 8 21q-1 16 8 67q28 154 73 236q4 8 8 22q8 27 28 81q13 36 15 49q3 11 1.5 16.5t-5 6.5t-17.5 2q-70 5 -156 -37q-41 -20 -90 -56q-71 -50 -135 -131 q-24 -29 -32 -59z" />
<glyph unicode="9" horiz-adv-x="927" d="M23 902q18 101 72 213q51 102 113 172q89 100 208 123q41 8 93 3q16 -1 19.5 1t7.5 18q9 35 18 45q19 19 30 17h5q9 8 20 9.5t26.5 0.5t21.5 0q41 3 72 -34q17 -20 45 -85q41 -95 69 -258q30 -180 41 -271q29 -254 28 -369q-2 -205 -81 -372q-21 -45 -48 -87 q-39 -60 -115 -104q-64 -37 -162 -47q-94 -9 -160 70q-27 34 -44 67q-10 20 -31 28q-56 22 -70 69q-10 32 20 77q8 12 31.5 11.5t32.5 -12.5q4 -6 9 -11.5t9.5 -9.5t11 -9t10 -8t12 -8t11.5 -6.5t12.5 -7.5t11.5 -7q25 -14 48 -5q93 35 132 90q37 54 50 103q4 15 15.5 46.5 t15.5 49.5q15 62 23 112q5 33 6.5 70t1.5 82t1 70q0 12 -1 48t1 48q3 25 -1 73t-2 72q1 13 -1 37.5t-2 36.5q-4 -2 -6.5 -5t-3 -5.5t-1.5 -7t-1 -6.5q-41 -166 -74 -266q-37 -113 -101 -192q-48 -60 -119 -87q-61 -22 -111 0.5t-70 80.5q-1 1 -2.5 6t-2 7t-2.5 6.5t-3 6 t-3 5.5t-3.5 6t-3.5 5t-4.5 5t-5.5 4.5t-6 4.5q-9 6 -25 11q-67 24 -87 101q-17 66 -1 169zM222 797q-3 -41 9 -74q5 -12 10 -13.5t16 5.5q35 22 68 77q37 64 87 202q12 34 23 71t24 86.5t20 72.5q25 84 28 104q-7 0 -9 -1q-3 -1 -8.5 -4t-8.5 -5q-79 -44 -139 -143 q-106 -174 -120 -378z" />
<glyph unicode=":" horiz-adv-x="225" d="M33 95q20 64 94 65q40 3 58 -39q11 -21 8 -47t-10 -43.5t-22 -41.5q-4 -6 -16 -14q-26 -14 -38 12q-3 6 -7 18q-8 23 -29 27q-16 4 -27 17q-19 21 -11 46zM33 462q20 64 94 65q41 3 58 -38q11 -21 8 -47t-10 -43.5t-22 -41.5q-5 -8 -16 -15q-26 -14 -38 12q-3 6 -7 18 q-8 23 -29 27q-16 4 -27 17q-19 21 -11 46z" />
<glyph unicode=";" horiz-adv-x="264" d="M32 -60q-4 45 2 95q4 36 18 61q3 5 11.5 22t14.5 26q14 19 46 34q8 4 16 -1q9 -5 12 -3q14 8 24 -7q2 -4 6 -5.5t9 -2t7 -1.5q21 -10 22 -26q0 -4 7 -11t4 -15q-1 -4 -4 -10t-5 -11.5t-3 -10.5q-10 -51 -49 -117q-4 -7 -11.5 -20.5t-11.5 -20.5q-6 -10 -13 -19.5 t-16.5 -19l-15 -15t-18.5 -17t-17 -14.5q-9 -9 -17 -3q-7 6 -4 17q4 13 6 27q2 13 -5 20q-11 12 -15 48zM71 462q20 64 94 65q41 3 58 -38q11 -21 8 -47t-10 -43.5t-22 -41.5q-5 -8 -16 -15q-26 -14 -38 12q-3 6 -7 18q-8 23 -29 27q-16 4 -27 17q-19 21 -11 46z" />
<glyph unicode="&#x3c;" horiz-adv-x="546" d="M31 685.5q-3 5.5 13 21.5q15 15 37 32q13 11 21 23q58 98 214 198q16 11 48 31.5t48 30.5q27 18 45 11q25 -10 32 -25t-23 -45q-52 -50 -100 -89q-86 -70 -117 -91q-76 -52 -113 -71l-42 -18q3 -2 10.5 -5.5t11.5 -5.5q14 -8 29 -11q116 -22 257 -117q79 -53 89 -59 q26 -17 24 -32q-3 -22 -16 -31t-51 7q-60 25 -117 56q-103 55 -123 68q-74 46 -103 70q-34 29 -48 50q-23 -4 -26 1.5z" />
<glyph unicode="=" horiz-adv-x="620" d="M30.5 595q0.5 7 4.5 10q1 1 3 2t3 2q14 10 16 26q2 12 4 16q6 20 19 21q11 1 32 4.5t31 4.5q45 4 67 2h35q19 0 57 -4q12 -1 37 -4t37 -4q82 -11 86 -12q49 -8 86 -19q22 -6 32 -13q5 -3 7 -8q4 -11 1 -19q-3 -9 -9 -9q-16 2 -44 -2t-39 -4q-2 0 -58 -4q-62 -1 -117 -6 q-11 -1 -32 -2.5t-32 -2.5q-51 -5 -184 -5q-1 0 -22 3q-5 1 -18 16q-3 4 -2.5 11zM30.5 811q0.5 7 4.5 10q1 1 3 2t3 2q14 10 16 27q2 10 4 15q6 21 19 22q11 1 32 4.5t31 4.5q39 4 67 1h35q29 0 57 -3q12 -2 37 -4t37 -4q82 -11 86 -12q49 -8 86 -19q22 -6 32 -13 q5 -3 7 -8q4 -12 1 -20q-3 -9 -9 -9q-16 2 -44 -2t-39 -4q-2 0 -58 -4q-78 -2 -117 -5q-11 -1 -32 -2.5t-32 -2.5q-61 -6 -184 -6q-1 0 -22 3q-5 1 -18 16q-3 4 -2.5 11z" />
<glyph unicode="&#x3e;" horiz-adv-x="546" d="M31 1001q3 21 16 30t51 -7q68 -29 117 -55q92 -50 123 -69q74 -46 103 -70q38 -35 48 -49q23 4 26 -2t-13 -22q-11 -11 -37 -31q-12 -10 -21 -24q-57 -96 -214 -197q-16 -11 -47.5 -31.5t-47.5 -30.5q-28 -19 -46 -12q-25 10 -32 26q-7 14 23 44q52 50 100 89 q86 70 117 91q76 52 113 71l42 18l-11 5.5t-10 5.5q-13 7 -30 11q-114 22 -257 118q-49 33 -89 58q-26 17 -24 33z" />
<glyph unicode="?" horiz-adv-x="712" d="M17 1211q8 67 32 120q36 82 67 116q30 33 62 45q197 73 364 -66q47 -39 74 -84q25 -43 43 -95q31 -91 37 -153q10 -92 -17 -172q-39 -118 -151 -268q-22 -28 -83 -117q-19 -28 -30 -62q-22 -72 -32 -108q-4 -13 -10 -27t-14 -31t-12 -26q-6 -14 -20 -17q-22 -5 -28 16 q-7 22 -10 28q-10 18 -33 31q-83 44 -104 125q-2 8 -2.5 16.5t0.5 20t1 16.5q-3 25 3 53.5t13 45t21 48.5q37 80 99 156q61 75 113 152q3 4 10.5 15t11.5 17t8.5 15t6.5 17t9 28.5t11 35.5t5 30q2 21 -0.5 42t-9.5 50t-9 40q-5 28 -33 37q-88 29 -143 -5q-26 -16 -54 -55 q-78 -111 -76 -252q0 -20 9 -34q6 -9 7 -18q2 -9 -3.5 -19t-13.5 -12q-19 -6 -26 14q-7 22 -34 37q-26 15 -40 64q-30 103 -19 190zM146 66q-37 50 9 90q12 10 25 10q15 0 16 2q15 19 43 7q5 -2 14 4t12 -2q30 3 47 -12q5 -5 7 -5q12 -1 18 -8.5t6.5 -12.5t2.5 -19 q2 -10 6 -21q11 -27 13 -38.5t1 -43.5q5 -41 -33 -99q-6 -9 -15 -15q-9 -5 -20.5 0.5t-12.5 16.5t-10.5 26.5t-11.5 22.5q-1 5 -18 12q-54 23 -99 85z" />
<glyph unicode="@" horiz-adv-x="878" d="M34 779q7 87 54 208q42 107 120 180q53 49 96 74q64 37 146 42q91 6 165 -21q107 -40 162 -125q31 -47 51 -129q34 -145 4 -309q-15 -79 -48 -142q-25 -47 -58 -73q-58 -46 -99 15l-9 18q-4 9 -9 11q-19 8 -33 22q-11 11 -24 35q-40 -73 -51 -89q-23 -34 -58 -62 q-19 -15 -48 -20q-47 -8 -68 36q-8 18 -11 28q-9 25 -33 32q-52 16 -71 84q-12 45 -2 107q0 4 -0.5 13t0.5 13q15 70 29 106q25 67 71 127q42 54 118 77q61 17 108 6q77 -18 102 -92q26 -75 9 -176q-16 -91 -8 -159q3 -22 12 -40q6 -12 11 -12.5t14 10.5q21 24 32 49 q36 80 38 180q1 50 -6 124q-9 83 -44 152q-12 22 -30 30q-127 57 -239 15q-39 -14 -80 -52q-75 -68 -107 -139q-50 -111 -61 -207q-17 -152 36 -265q40 -86 123 -129q75 -39 158 1q98 48 118 58q29 15 44 34q4 6 12 9q14 5 24 -2t9 -23q-2 -22 -10 -40q-39 -85 -109 -133 q-43 -30 -97 -49q-17 -6 -52 -6q-92 1 -169 66q-41 35 -62 68q-4 6 -20 20q-80 63 -116 168q-21 63 -33 144q-8 57 -1 132zM369 627q-5 -27 1 -58q28 21 48 57q18 32 46 98q5 12 29 72t39 91q2 4 8 25q-30 -8 -36 -12q-56 -36 -84 -95q-33 -69 -51 -178z" />
<glyph unicode="A" horiz-adv-x="1069" d="M18 538q11 15 28 21q34 13 125 32q1 1 4 1h5q24 5 30.5 12.5t10.5 34.5q2 10 20 79q30 114 33 122q46 160 71 239q9 28 25.5 84t25.5 84q25 78 49 119q4 8 6 21q1 24 28 33q17 6 52 8q28 1 52 -25q104 -114 178 -268q6 -13 16.5 -36.5t19.5 -42.5t18 -35q10 -18 19 -48 q6 -18 18.5 -52t16.5 -47q24 -76 39 -114q14 -38 18 -58q7 -30 31 -35q8 -2 21.5 -11.5t22.5 -11.5q4 -1 7 -17q2 -20 18 -60q9 -21 9 -42q0 -30 -18 -59q-16 -26 -16 -52q0 -10 2 -20q8 -37 15.5 -78.5t15.5 -95t12 -79.5q2 -11 3.5 -32.5t2.5 -30.5q3 -22 -3 -45.5 t-14 -39t-22 -39.5q-9 -15 -20 -17q-5 -1 -15.5 0.5t-15.5 1.5q-7 0 -10 16q-3 13 -8.5 26.5t-13 29.5t-11.5 25q-13 29 -38 31q-8 1 -15.5 5t-16 11t-13.5 10q-9 5 -18.5 12t-21 16t-17.5 14q-30 21 -38 74q-2 13 -9.5 43.5t-8.5 47.5q0 9 -5.5 27t-4.5 29q0 5 -14 36 q-3 6 -14 6h-25q-29 -2 -87.5 -5t-87.5 -5q-14 -1 -40 -1q-15 0 -18 -16q-32 -164 -49 -246q-19 -97 -22 -137q-1 -12 -6.5 -24t-14.5 -27t-13 -23q-3 -6 -8 0.5t-9 1.5q-6 -8 -21 -5q-9 2 -13 21q-6 33 -20 44q-2 1 -4 10q-8 47 -52 56q-8 2 -11 7q-7 13 -22 11 q-10 0 -18 4t-18 12t-14 11q-3 2 -1 12q25 127 38 181q3 11 9.5 49t12.5 58q5 19 -13 22l-24 6q-20 6 -27 27q-13 43 -55 72q-5 3 -15 4t-14 3q-13 7 -5 17zM480 647.5q2 -2.5 16 -1.5q18 1 58.5 7t61.5 7q1 0 16 6q9 4 5 11q-4 8 -5 24t-3 23q-25 71 -28 106q0 5 -4 13 q-10 21 -18.5 62t-12.5 53q-4 13 -10 37.5t-7 29.5q-1 -1 -2 -1h-2q-13 -96 -16 -112q-7 -36 -15 -77t-18 -91.5t-15 -77.5q-3 -16 -1 -18.5z" />
<glyph unicode="B" horiz-adv-x="1110" d="M24 290q-10 21 -10 40q0 24 15 45q14 19 34.5 20t35.5 -16q13 -14 32 -28q31 -23 52 -51q6 -8 10 -11q9 -7 11 6q3 33 2 37q-3 20 -3 43q0 26 4 54q1 5 -1 14t-2 14q1 17 1 53v40q0 34 -0.5 57.5t0.5 36.5q0 3 0.5 9.5t0.5 9.5q2 28 -5 37q-14 17 -2 37q9 16 9 45 q0 68 3 90q1 11 1 31q1 49 5 142q7 168 9 218q-25 -17 -60 -67q-71 -102 -71 -234q0 -22 -6 -31q-6 -11 -11 0q-9 17 -21 23q-7 3 -11 20q-16 53 -16 108q0 43 10 88q24 109 110 207q73 83 190 102q42 7 83 7q103 0 202 -43q59 -25 113 -88q5 -6 11 -20q28 -70 28 -134 q0 -61 -25 -117q-22 -50 -56 -104q-1 -1 -3.5 -4t-3.5 -6t-1 -7q10 -3 45 -3q112 -1 223 -68q55 -32 96 -101q5 -9 9 -25q31 -113 33 -159q1 -14 1 -27q0 -106 -48 -208q-56 -118 -131 -191q-23 -22 -118 -96q-42 -32 -132 -77q-33 -16 -107 -35q-46 -11 -139 -11 q-29 0 -37 -21q-7 -19 -25 -16q-16 2 -19 17q-6 32 -35 44q-88 36 -150 143q-11 21 -28 32q-59 40 -102 129zM328 1325q-2 -4 4 -24l6 -18q19 -67 33 -205q5 -46 10 -113q14 8 25 17q26 26 53 50q78 72 115 136t39 106q1 20 -15 28q-38 18 -85 28q-52 12 -97 12 q-36 0 -66 -8q-20 -5 -22 -9zM401 659q2 -18 4.5 -64t5.5 -71q2 -17 3 -51.5t3 -51.5q5 -49 11 -149q-2 -8 -1 -33t1 -34q-1 -10 3.5 -14t12.5 -3q16 1 61 12q22 6 43.5 18t50 32t39.5 27q22 14 70 58q97 88 145 204q31 74 31 139q0 15 -2 30q-4 32 -20 39q-67 29 -122 37 q-39 5 -80 5q-60 0 -124 -11q-20 -3 -34 -16q-47 -43 -89 -72q-14 -9 -12 -31z" />
<glyph unicode="C" horiz-adv-x="823" d="M15 546q-1 9 2 31.5t1 34.5q-1 12 0.5 23t6.5 30t6 22q2 9 5 26t5 26q7 34 11 41q6 11 8.5 34t5.5 31q20 66 44 117q10 20 24.5 60t24.5 60q12 24 40 68q37 62 94 127q63 70 113 104q16 11 72 31q48 17 95 17q64 0 128 -31q56 -27 71 -79q19 -62 19 -111q0 -19 -11 -36 q-14 -20 -25 1q-2 2 -2 5q-10 32 -46 43q-18 6 -34 5.5t-30 -5.5q-63 -19 -108 -82q-72 -102 -94 -148q-55 -113 -74 -187q-4 -14 -15 -54t-16 -62q-12 -53 -22 -124q-2 -11 -3 -33t-2 -29q-1 -14 -1 -28q0 -69 32 -144q3 -5 7 -16t6 -17q9 -18 21.5 -20t25.5 14 q6 7 18.5 17t16.5 14q14 14 118 123q20 21 64 40q59 27 115 37q42 8 59.5 -7.5t15.5 -59.5q0 -2 -12 -94q-7 -52 -47 -119q-43 -73 -76 -114q-44 -55 -81 -75q-10 -6 -29 -19.5t-29 -19.5q-28 -15 -36 -17q-5 -1 -31.5 -9.5t-42.5 -7.5q-94 7 -131 72q-21 35 -30 63 q-15 45 -68 62q-63 20 -93 62q-29 40 -41 88q0 1 -0.5 6t-1.5 7q-17 26 -34 101q-10 41 -10 81q0 12 1 24z" />
<glyph unicode="D" horiz-adv-x="960" d="M15 268q1 23 4 69t3 69q0 38 4 112q1 20 1 40t-1 39v32q6 20 5.5 53t1.5 53q1 9 4 86q1 21 4.5 69.5t4.5 75.5q1 65 13 195q2 22 6 65.5t6 65.5q3 30 10 54q7 22 31 29q11 3 43 3q25 0 40 -31q6 -13 14 -39.5t12 -37.5q9 3 27 19q83 74 199 102q32 8 63 8q83 0 161 -54 q74 -51 140 -133q28 -36 45 -80l6.5 -13t6.5 -14q66 -149 74 -348q2 -41 2 -73q0 -49 -4 -80q-15 -140 -57 -242q-58 -138 -153 -217q-37 -30 -100 -56q-69 -29 -136 -33h-10q-68 0 -130 49q-27 21 -50 47q-10 10 -15 11q0 -1 -2 -19.5t-2 -27.5q-3 -79 -20 -146 q-2 -9 -6.5 -18.5t-8 -15.5t-10.5 -17t-10 -15q-11 -18 -33 -12q-12 3 -18 22q-8 26 -19.5 41.5t-34.5 22.5q-9 3 -18.5 9t-15 11t-15.5 15l-14 14q-6 6 -11.5 13t-9 12.5t-7 14.5t-5 13.5t-4 16t-3 14.5t-3 16t-2.5 15q-3 18 -3 41t3 53q1 6 -1 16.5t-2 15.5zM254 1056 q2 -23 7 -67.5t7 -66.5q2 -30 7.5 -84t9 -98t5.5 -84q0 -20 4 -86q4 -54 4 -88v-14v-85q0 -24 14 -39t59 -56q18 -17 41 -17q12 0 25 5q42 15 96 63q31 26 38 40q4 9 15 25.5t17.5 30.5t8.5 29q0 2 2 5t2 4q16 34 21 59q2 10 6.5 35.5t9 43t10.5 34.5q3 7 1 18q-2 15 1 41.5 t3 35.5q0 40 4 73q1 9 1 20q0 21 -5 49q-1 5 -0.5 18t-1.5 18q-3 11 -5 24t-4 28.5t-3 23.5q-2 14 -9.5 39.5t-9.5 37.5q-5 29 -42 94q-19 34 -47 36q-10 1 -20 1q-32 0 -56 -8q-103 -32 -184 -94q-4 -3 -11.5 -8.5t-10.5 -8.5q-12 -9 -10 -27z" />
<glyph unicode="E" horiz-adv-x="929" d="M17 867.5q-7 23.5 5 55.5q14 43 60 98q26 32 28 34q40 44 115 110q18 15 54 40t51 37q8 6 24.5 14.5t22.5 12.5q111 70 232 98q33 7 61 7q45 0 75 -19q20 -13 21 -28q1 -9 7 -23q13 -31 3 -62.5t-40 -49.5q-61 -37 -96 -63q-76 -58 -123 -99q-78 -69 -105 -98 q-8 -8 -7 -15q42 12 124 36q84 24 148 27h7q49 0 78 -25q3 -3 5 -3q17 -1 22.5 -11t6.5 -28q1 -14 13 -40q13 -28 13 -57q0 -37 -21 -74q-6 -11 -13.5 -21.5t-18.5 -22.5t-16 -17.5t-20.5 -20t-18.5 -17.5q-41 -40 -150 -167l-81 -102q-7 -9 -7 -14q5 -5 15 1q70 38 142 66 q25 10 138 37q55 14 71 20q4 2 16 4q10 3 23 2.5t20 -10.5q21 -32 6 -55q-25 -39 -85 -109q-56 -64 -179 -146q-131 -87 -162 -105q-31 -17 -44.5 -24t-40.5 -16t-50 -10q-30 -1 -51 14t-29 43q-6 25 -16 34q-8 8 -10 22t-8 16q-9 4 -29.5 18.5t-34.5 17.5q-19 5 -33 13 q-39 25 -39 61q0 48 37 114q53 94 102 161q5 7 55 76q-5 6 -27 16q-46 17 -55 59q-3 16 -17.5 41.5t-17.5 39.5q-3 6 -5 7q-11 4 -31 17.5t-33 17.5q-26 7 -48 21q-32 20 -39 43.5z" />
<glyph unicode="F" horiz-adv-x="899" d="M14 1245q12 29 50 37q8 2 22.5 8t21.5 7q12 3 15 15l6 24q5 24 24 36q24 14 40 14q3 0 13 1t15 1t13 -1t14 -4t12 -8q10 -8 11 -14q3 -14 19 -10q9 3 28 8t29 8q89 26 237 54q37 7 70 7h8l104 -6q12 -3 32 -13t26 -12q11 -4 13 -12q2 -10 9 -30.5t8.5 -31t-0.5 -32.5 q-9 -37 -36.5 -68t-66.5 -40q-62 -13 -88 -20q-28 -8 -65 -10q-23 -1 -67 -11q-21 -4 -63 -10t-62 -11q-16 -3 -45.5 -8t-37.5 -6q-13 -2 -15.5 -5.5t-1.5 -15.5q8 -76 23 -205q1 -15 5 -17t19 5q79 37 182 65q92 24 172 24h18q34 -1 71 -20q36 -17 38 -18q20 -13 40 -55 q10 -21 10 -42q0 -37 -32 -72q-5 -6 -14 -17t-15 -17.5t-15.5 -14.5t-19.5 -13q-12 -7 -42 -13q-14 -3 -42.5 -14t-45.5 -13q-21 -2 -56.5 -13.5t-47.5 -14.5q-16 -4 -50 -14.5t-53 -14.5q-14 -3 -39 -11.5t-32 -10.5q-13 -4 -13 -17q0 -9 8 -65q5 -33 11.5 -94t8.5 -80 q11 -87 11 -133v-7q-1 -18 -3.5 -51t-3.5 -43l-2 -12t-2.5 -10.5t-5 -11.5l-5 -10t-6 -10.5t-5.5 -9.5t-6.5 -10.5t-6.5 -9.5q-11 -18 -37 -13q-14 3 -22 24q-17 53 -57 62q-12 2 -28 16q-11 9 -21.5 20t-24.5 27t-19 22q-4 4 -6 10.5t-4 15t-3 12.5q-13 44 -20 99 q-4 35 -6 73q-1 20 -5 56t-5 47v4q1 16 -2.5 58.5t1.5 58.5q2 11 -2 18q-7 15 -4 28q4 21 -17 31q-27 13 -7 32q12 11 17.5 25t5 27.5t-0.5 28.5q-1 0 -1 82l1 83q0 17 2 57.5t1 62.5q0 14 10 107q2 20 -1 25t-23 13q-24 9 -35 20q-4 3 -16.5 7t-16.5 10z" />
<glyph unicode="G" horiz-adv-x="892" d="M14 898v1l1 1q5 18 6 54.5t4 51.5q2 12 7 33t8.5 38.5t5.5 33.5q3 22 17 66q13 43 21 60q26 53 59 92q59 70 143 102q85 33 153 33q51 0 92 -20q18 -9 25 5q5 10 16 10q32 0 42 13q3 3 7 1q25 -8 29 -3t14 1.5t11 4.5q5 -4 17.5 -6.5t17.5 -7.5q6 -6 22 -14q5 -2 9.5 -7 t6.5 -8.5t6 -11t5 -9.5q5 -11 10.5 -23t9 -21.5t8 -24t6.5 -22.5t6 -25t5.5 -22.5t5.5 -25t5 -23.5q14 -61 33 -215q15 -122 23 -219q3 -29 3 -81t1 -74q2 -46 2 -95q0 -38 -1 -77q-5 -165 -36 -277q-9 -31 -42 -92q-24 -45 -43 -69q-27 -36 -71 -57q-44 -20 -81 -27 q-38 -7 -73 -7q-79 0 -137 37q-96 60 -144 141q-8 13 -21 20q-49 29 -90 80q-24 29 -24 63q0 19 8 39q7 19 29 53q3 4 7 7t7 4.5t8.5 2.5t8 1h10h8.5q23 0 25 -25q1 -11 4.5 -21t12 -20.5t11.5 -14.5t17 -17t15 -14q5 -5 16 -15.5t17 -16.5q32 -32 96 -61q11 -5 24 -5 q26 0 58 18q42 23 62 69l3 9q1 15 9.5 43.5t9.5 41.5q1 9 7.5 41t3.5 50q9 10 7 53t-1 53q2 15 2 40q0 17 -1 38q0 7 -2 23t-2 23.5t2 23.5q0 2 -2 6q-5 -2 -7 -12q-31 -96 -86 -160q-57 -68 -124 -73h-10q-35 0 -81 24q-58 31 -83 102q-12 33 -42 45q-80 29 -113 95 q-1 2 -7.5 14.5t-8.5 17.5t-4.5 15t-1.5 19q-9 19 -9 56t-3 50zM277 784q2 -20 2.5 -27t7 -21t18.5 -22q11 -8 16.5 -8t13.5 9q16 20 25 36q27 49 49 138l39 159q2 6 9.5 40t13.5 52q4 12 13 44.5t15 50.5q5 16 8 28q3 14 -11 9q-2 0 -11 -5q-50 -23 -112 -89 q-17 -19 -28 -42q-43 -97 -55 -185q0 -2 -12 -143q0 -4 -0.5 -12t-0.5 -12z" />
<glyph unicode="H" horiz-adv-x="1073" d="M15 428q-1 31 0 37q3 26 5 119q0 10 3 32.5t2 33.5q-1 16 3 45t4 44q-1 16 3 46t4 35q1 10 4 37.5t4 41.5q1 21 7.5 59t7.5 51q8 70 15 106q5 27 11.5 76.5t9.5 70.5q8 58 19 105q7 34 29 62q6 8 15 11t21.5 4.5t18.5 3.5q3 1 10 1h11q22 4 40 -7.5t25 -33.5 q21 -63 29 -205q7 -123 7 -191v-16v-238q0 -28 4.5 -31.5t32.5 1.5q70 12 105 20q16 4 47.5 10.5t46.5 9.5q11 3 155 28q4 0 12 1.5t12 2.5q19 3 26 11t6 25q-1 11 0 22t3 24.5t3 21.5q3 34 10.5 95.5t9.5 86.5q2 24 8.5 68.5t8.5 62.5q9 81 15 106q3 13 17 58q11 36 66 44 q9 1 30 1q19 1 34.5 -11t21.5 -30q7 -21 12 -43.5t7.5 -49t3.5 -43.5t2 -49.5t1 -44.5q5 -128 5 -232l-1 -72v-40q0 -32 1 -32q1 -17 11 -44.5t12 -37.5q7 -28 7 -53q0 -44 -22 -77q-7 -11 -7 -29l-1 -42q0 -42 1 -43q7 -187 9 -376q0 -8 1.5 -27.5t0.5 -30.5 q-2 -73 -31 -109q-3 -4 -10 -18t-14 -19q-1 -1 -3 -3.5t-3.5 -3.5t-4 -2t-4.5 2q-3 3 -18.5 4t-17.5 13q-1 8 -5 19q-1 2 -3 10l-3 12t-4.5 9.5t-8.5 9.5q-4 4 -5 14.5t-5 15.5q-20 26 -63 40q-30 10 -63 38q-33 29 -33 72q0 8 1 17q2 11 -1 30t-3 28v23v49v15q0 49 6 58 q3 2 1 32.5t-2 34.5q0 20 3 30q3 11 0 14.5t-14 4.5q-23 2 -41 -1q-27 -3 -77 -6.5t-71 -5.5q-28 -3 -63 -3q-56 0 -129 8q-14 2 -17 -0.5t-2 -15.5q0 -3 9 -202q0 -13 -2 -77q-1 -52 -50 -126q-13 -19 -33.5 -17t-31.5 22q-8 15 -11 29q-1 8 -5 16t-9.5 17t-7.5 15 q-7 16 -28 21q-36 11 -73 48q-3 3 -19 18t-24 24q-11 14 -15 28q-16 49 -16 140q0 6 -1 37z" />
<glyph unicode="I" horiz-adv-x="333" d="M15 514q5 63 5 115v10q5 20 5.5 57t2.5 51q15 109 17 133q3 43 11 90q1 5 4.5 23.5t4.5 25.5t5 22.5t7.5 25t8.5 22t12 23.5q26 42 77 42q11 0 23 -2q27 -3 37 -30q24 -62 37 -134q33 -188 43 -525q1 0 1 -41l-1 -40q0 -41 2 -129q1 -59 1 -99v-36q-2 -61 -15 -99 q-4 -13 -18 -34t-17 -27q-8 -16 -24 -13q-25 6 -30 15q-1 4 -2 9q-1 13 -12 34t-13 26q-4 12 -23 18q-20 6 -39.5 19t-29.5 22.5t-30 30.5q-38 39 -41 112q-1 15 -3.5 43t-3.5 37q-3 30 0 60q1 11 1 23q0 19 -2 42q-2 26 -2 48q0 16 1 30zM45 1359q-3 14 -3 26q0 35 20 62 q28 37 78 48q23 5 40 3q22 -3 28 -24q14 -52 14 -67q0 -3 -4 -35q-3 -24 -5 -37t-6 -32.5t-10.5 -35.5t-15.5 -31q-6 -10 -10 -14q-7 -9 -16 -7.5t-12 12.5q-1 6 -17 37q-11 25 -39 27q-16 1 -23 16q-16 34 -19 52z" />
<glyph unicode="J" horiz-adv-x="868" d="M17 333q-2 33 -2 58t2 42q8 65 63 119q33 33 69 47q33 14 51.5 0t14.5 -49q-1 -13 -1 -27q0 -30 6 -61q4 -19 6.5 -54t4.5 -49q6 -42 29 -75q30 -42 85 -42h7q81 3 121 77q4 8 16.5 30t20.5 37.5t13 31.5q23 65 42 155q3 16 9 31q5 13 7.5 27t4 33t2.5 27q6 35 6 57 q0 13 -2 22q-1 6 2.5 15.5t3.5 13.5q4 70 4 104q0 27 3 79t3 79q0 19 2 54t2 47v28q-66 -29 -173 -47q-9 -2 -28 -2q-30 0 -40 28q-1 3 -5 9.5t-5 10.5q-8 30 -53 48q-18 8 -25 14q9 24 43 39q120 52 263 94q57 16 124 16q24 0 49 -2q21 -2 31.5 -17.5t3.5 -35.5 q-2 -8 -6 -12q-15 -19 -5 -50q19 -62 38 -209q15 -112 25 -242q5 -75 5 -139q0 -78 -7 -142q-1 -13 -4.5 -55t-6.5 -64q-10 -68 -37 -144q-28 -80 -40 -102q-27 -53 -52 -89t-59 -63q-49 -39 -87 -41q-4 0 -10 -2q-61 -16 -117 -16q-57 0 -109 17q-106 35 -142 140 q-11 32 -40 42q-47 16 -76 48q-22 23 -34 55q-15 41 -16 56z" />
<glyph unicode="K" horiz-adv-x="972" d="M16 538q2 32 2 97q0 66 4 90q2 13 2 41q0 34 3 69q1 7 3 22t2.5 21.5t-0.5 21.5q-1 11 3 32t4 28q1 35 9.5 100.5t9.5 74.5q10 98 26 177q1 5 4 15.5t4 16.5q6 35 42 41q20 4 34 0q26 -5 33 -28q17 -55 24 -108q15 -101 21 -205q2 -32 5.5 -96t5.5 -96q1 -13 1 -38 q0 -24 5 -36q10 5 22 21q23 32 78 85q21 21 30 32q12 16 38.5 45.5t30.5 34.5q107 125 126 148q45 54 137 160q25 29 67 29q9 0 20 -1q29 -5 37 -35q11 -44 11 -68q0 -8 -1 -14q-10 -51 -26 -90q-68 -170 -150 -287q-68 -96 -91 -124q-20 -25 -42 -61q-15 -24 -61 -74 q-11 -11 -9.5 -17t15.5 -13q88 -41 177 -95q11 -7 35.5 -21.5t38 -23.5t33 -22.5t34.5 -26.5q12 -10 48 -38t54 -45q18 -18 21 -31q2 -12 17 -61q4 -15 4 -31q0 -30 -16 -61q-20 -37 -42 -45q-8 -3 -18 -3q-19 0 -46 9q-50 16 -98 51q-161 119 -212 155l-51 36t-51 35 q-28 19 -65 49q-12 9 -24 -1q-24 -24 -39 -32q-8 -4 -6 -20q10 -129 11 -152q3 -73 3 -122q0 -24 -1 -43q-2 -61 -27 -93q-2 -2 -11 -18t-18 -22q-5 -3 -6 -2.5t-2 7.5t-8 2q-2 -2 -3 -2q-15 -7 -20 8q-2 4 -3.5 12.5t-3.5 12.5q-1 2 -3 11.5t-5 14.5t-9 9q-3 2 -3 6 q-1 33 -44 52q-64 28 -89 51q-19 17 -19 37q0 12 -1.5 40t-2 40t1.5 40q2 18 -2 52t-3 51q1 15 -0.5 43t-1.5 41q0 44 -2 57q-3 17 -3 39q0 18 2 39z" />
<glyph unicode="L" horiz-adv-x="927" d="M14.5 344.5q-0.5 8.5 0.5 31.5q2 20 2.5 66t3.5 71q3 21 0 42q-2 12 1.5 34t3.5 30q0 10 5 82q14 172 16 188q2 12 3.5 25t3 29t2.5 25q3 26 11 89q2 10 8 45.5t8 54.5q4 34 8 50q3 15 8.5 45.5t10.5 54.5t12 45q9 30 20.5 39t41.5 9t38 -28q23 -78 27 -147 q3 -52 10 -184t12 -204q4 -58 10 -174t10 -174q1 0 1 -27l-1 -26h5v-20v-23v-19q1 -23 18 -15q13 5 27.5 9t32.5 8t28 7q16 4 79 16q54 10 98 17q50 7 88 7q35 0 60 -6q94 -22 156 -66q30 -22 30 -58q0 -8 -1 -16q-10 -61 -52 -118q-7 -9 -11 -11q-3 -1 -38 -17t-55 -20 q-25 -4 -79.5 -9t-82.5 -10q-22 -4 -63.5 -9.5t-58.5 -8.5q-10 -2 -28.5 -3t-24.5 -2q-26 -3 -112 -26q-3 -1 -7.5 -2t-6.5 -1q-35 -4 -44 -23q-4 -8 -9 -9.5t-13 1t-11 2.5q-12 0 -12 21q-1 15 -13 38t-14 29q-5 15 -35 26q-33 13 -62 39q-52 47 -58 117q-1 9 -4 32 t-3.5 31.5z" />
<glyph unicode="M" horiz-adv-x="1218" d="M15 395q1 3 4 39q1 8 2 45.5t5 56.5q5 21 2 40q-2 13 3 20q6 9 3 17q-3 15 -2.5 21.5t3 21.5t3.5 22q0 5 4 34.5t3 45.5q0 16 2 23q7 26 12 75t9 70q6 27 12 76.5t9 67.5q2 10 6.5 41t7.5 47q4 18 9.5 51.5t11 60.5t12.5 51q9 31 31 91q9 24 39 32t44 -11 q10 -13 31.5 -33t26.5 -25q30 -31 51 -64q41 -63 74 -119q27 -47 82 -161q7 -15 17 -43t14 -37q7 -17 21.5 -56.5t23.5 -60.5q8 -17 31 -85q5 2 7.5 5.5t3.5 6t2 7.5t1 6q8 35 30 86q1 2 15 53q6 21 22 68.5t23 73.5q4 17 16 49t17 48l21 48q3 7 7 23t8 24q47 104 60 125 q17 28 54 30q36 2 48 -12q5 -7 14 4q23 28 55.5 22t46.5 -40q18 -44 49 -171q8 -34 15 -69.5t12 -77t8.5 -67.5t8.5 -77.5t7 -70.5q3 -28 5 -79.5t5 -71.5q5 -66 7 -148q1 -43 2.5 -129.5t2.5 -129.5q1 -33 3 -94t4 -80q1 -23 1 -45q0 -43 -4 -77q-1 -12 -5.5 -25t-7.5 -19 t-12 -23t-10 -19q-9 -18 -18 -13q-3 2 -11.5 2.5t-13.5 4t-6 13.5q-1 15 -20 59q-8 17 -23 24q-47 19 -89 63q-14 14 -17 35q-1 9 -6 28.5t-6 29.5q-2 27 -8 81q0 6 0.5 18.5t-0.5 19.5q-2 22 -4 33q-2 10 0.5 29.5t0.5 30.5q-3 14 -2 41t-1 42q-2 4 -0.5 31.5t1.5 31.5 q1 13 -1 81q-1 29 -1 49q0 26 1 33q2 55 2 77v11q0 7 2.5 39t-2.5 39q-6 20 3 45q-9 -6 -11 -26q-25 -132 -50 -237q-33 -136 -40 -160q-5 -14 -14 -42.5t-13 -42.5q-11 -35 -46 -90q-14 -21 -30.5 -20.5t-30.5 20.5q-2 2 -5 3q-3 -4 -10 -16.5t-14 -17.5q-9 -6 -22.5 -3.5 t-17.5 12.5q-5 11 -6 22q-2 13 -12.5 32t-13.5 28q-2 8 -19 14q-24 8 -48.5 27.5t-35 30.5t-38.5 42q-8 9 -11 22t-13 34t-12 25q-1 3 -4.5 10t-5 12.5t-0.5 11.5q1 5 -5 10q-10 6 -12 24q-1 7 -23 70v1l-1 1q0 13 -3 26t-9.5 30.5t-8.5 24.5q-5 16 -13 55t-15 59 q-4 10 -7 31t-6 30q-19 64 -25 77v-24q2 -41 3 -116t2 -99q2 -69 3 -215.5t4 -222.5q1 -17 0 -45q0 -55 -2 -152q-2 -57 -46 -130q-2 -3 -15 -16q-13 -11 -28.5 -7t-20.5 21q-4 12 -12 34t-10 27q-7 19 -29 27q-43 17 -81 58q-10 10 -23.5 38t-16.5 43q-4 17 -4 33.5t4 33.5 q1 5 -2 14.5t-3 12.5q-4 29 1 43q2 5 -1 13t-2 13z" />
<glyph unicode="N" horiz-adv-x="927" d="M16 285q0 7 0.5 26.5t-0.5 26.5q-2 22 2 33q3 9 -1 21q-6 17 1 38q3 8 3 17.5t-1.5 20.5t-1.5 17q0 65 6 87q1 3 -0.5 7.5t-1.5 6.5q-1 17 2 40q5 52 4 61q0 3 5 44q12 118 12 122q13 102 16 116q6 30 13 86t9 71t10.5 58t11.5 67q1 9 4.5 19t9 21.5t7.5 17.5q5 16 32 20 q4 0 15 2t16.5 2t14 -2.5t15.5 -8.5q9 -9 11 -15q18 -51 26 -99q14 -79 32 -296q0 -8 1 -23.5t1 -23.5q0 -13 6 -16q19 69 50 150q4 11 15 42t19 47q7 15 20.5 46.5t20.5 47.5q40 84 78 121q69 67 135 88q45 14 86 14h2q73 0 126 -64q6 -7 9.5 -16t7 -23.5t4.5 -18.5 q19 -65 29 -144t12 -133.5t3 -146.5q0 -147 -1 -177q-4 -92 -9 -136q-3 -28 -4.5 -58.5t-1.5 -70t-1 -58.5q-1 -48 -4 -143.5t-5 -143.5q-2 -54 -16 -85q-27 -55 -49 -74q-8 -8 -10 1q-1 4 -8 2q-18 -6 -27 15q-20 42 -28 63q-11 27 -29 32q-38 10 -84 56q-4 4 -12.5 10.5 t-13.5 12.5t-8 14q0 1 -3 4t-2 4q3 9 -2 22t-5 17q0 1 -0.5 2.5t-0.5 2.5v19q0 24 -1 70q-2 38 -1 50t1 36.5t1 36.5q2 7 1 27t-1 27q2 77 5 116q2 23 6 67q0 5 -1 18t0 20l1 24q1 24 8 35q2 0 0.5 5t-1.5 6v6q-1 20 5 58q4 30 5 51q0 10 -1 17q-1 12 2 34t3 28q1 9 3.5 32 t2.5 32t-2 32q0 2 1.5 8.5t-0.5 10.5q-6 -4 -11.5 -10.5t-7.5 -11t-6.5 -14t-5.5 -12.5q-68 -144 -100 -217q-32 -71 -76 -219q-23 -78 -97 -343q-23 -84 -23 -127v-6.5v-7.5q0 -41 -23 -69q-4 -4 -11 -19t-15 -21l-3 -3q-7 -6 -12 2q-3 4 -8 2q-16 -6 -23 13 q-1 3 -4.5 14.5t-6.5 17.5t-7 16.5t-8 19t-9 15.5q-11 16 -33 23q-45 14 -97 66q-17 17 -14 50q1 17 -3 35t-6 54z" />
<glyph unicode="O" horiz-adv-x="1040" d="M15 477q2 18 2.5 51t1.5 44q2 37 7 54q1 4 2.5 13.5t3.5 17t7 12.5q-1 12 1 25.5t3.5 21t6.5 25.5t6 22q19 77 31 111q9 25 26.5 75t26.5 75q4 10 1 22q-8 35 -8 72q0 15 1 31q3 39 22 71q39 68 85 110q47 43 90 65q106 53 183 61q28 3 55 3q68 0 123 -19q98 -34 162 -94 q15 -15 55 -73q36 -52 63 -141q38 -127 44 -172q2 -16 4.5 -46.5t3.5 -39.5q0 -104 -20 -212q-19 -107 -77 -227q-45 -91 -122 -195q-38 -50 -92 -101q-61 -57 -102 -82q-60 -37 -70 -41q-33 -14 -50.5 -20t-52 -13t-54.5 0q-101 17 -137 107q-12 30 -14 38q-13 41 -56 55 q-42 15 -60 31q-39 35 -54 63q-20 36 -36 107q-13 55 -13 83q0 6 1 10zM298 449q2 -67 17 -118q10 -31 27 -51t38 -10q5 2 14 5.5t16 7t13 7.5q10 7 29 19.5t28 18.5q56 39 99 90q44 52 75 104q69 112 91 226q6 30 12.5 85.5t10.5 77.5q0 1 -2 9q-5 14 -2 32q1 4 -1 20 q-1 18 -7 49.5t-7 42.5q-2 13 -6.5 29t-8 24t-12.5 28t-11 24q-5 9 -14 11q-44 11 -82 11q-20 0 -38 -3q-13 -2 -25.5 -6.5t-28.5 -12t-23 -10.5q-22 -9 -84 -52q-9 -7 -13 -24q-6 -23 -16.5 -69t-15.5 -69q-8 -36 -20 -103t-15 -84q-35 -176 -38 -309z" />
<glyph unicode="P" horiz-adv-x="880" d="M15 784q-1 4 2 36q2 26 2.5 77.5t2.5 77.5q1 15 3.5 70.5t6.5 85.5q1 9 1 29t1 29q3 16 6.5 34.5t8 41.5t6.5 35q1 5 8 22q17 40 57 40q6 0 13 -1q26 -5 35 -30q17 -52 27 -123q3 -25 9.5 -75.5t11.5 -75.5q0 -5 6 -7q7 19 21.5 57t21.5 57q24 61 51 104q34 52 53 77 q44 55 116 82q54 19 103 19q32 0 61 -8q115 -33 155 -144q12 -34 17 -51q44 -152 45 -317q0 -44 -4 -89q-8 -104 -23 -161q-36 -133 -95 -219q-64 -93 -125 -136q-76 -53 -153 -53q-33 0 -66 9q-70 21 -119 79q-8 10 -13 15h-3q-1 -1 -1 -12q2 -31 5 -65.5t7 -76.5t6 -65 q4 -55 4 -124q0 -56 -35 -109q-13 -18 -31 -15q-17 4 -20 19q-6 32 -17 40q-3 2 -3.5 10t-2.5 11q-19 23 -35 29q-52 21 -63 31q-22 19 -28 49q-1 8 -4.5 37t-8.5 44q-3 9 0 18q3 10 0 20q-6 21 -10 79q-1 9 -1 27q0 32 -3 43q-5 19 -3 50q1 20 -1.5 57.5t-2.5 43.5 q-1 24 -1 147q0 13 1 39t1 47t-3 39zM266 649q29 -75 70 -110q31 -28 55 -29t49 19q8 5 22 17q55 47 94 121q43 83 48 124q3 17 10 39q10 30 16 81q8 72 8 132q0 51 -6 93q1 17 -1 33.5t-7 36t-6 27.5q-2 13 -7 15t-17 -2q-48 -16 -93 -64q-43 -45 -103 -155 q-69 -124 -132 -310q-6 -18 -6 -35t6 -33z" />
<glyph unicode="Q" horiz-adv-x="1138" d="M15.5 537q2.5 44 1.5 63q0 8 1 12q7 16 9 48.5t5 43.5v5q8 13 12 42.5t13 42.5q2 26 18 71t19 56q12 41 38 94q40 83 96 174q44 71 89 120q7 7 21.5 19t18.5 16q116 110 264 110q37 0 76 -7q52 -9 104 -37q10 -5 29 -14t28 -14q52 -29 100 -84q23 -27 45 -76 q47 -108 62 -260q0 -1 3 -86q-1 -159 -50 -314q-52 -164 -160 -303q-17 -22 -9 -47q3 -8 8.5 -28t9.5 -30q9 -22 20 -29t37 -3q78 12 98 13q26 2 46 13q7 4 14 5q22 5 34.5 -7.5t6.5 -34.5q-3 -14 -15 -35q-44 -72 -87 -100q-64 -39 -98 -46q-11 -2 -21 -2q-42 0 -74 36 q-25 27 -38 69q-7 24 -32 33q-32 11 -47 24q-8 7 -21 -2q-85 -63 -165 -90q-50 -16 -94 -16q-68 0 -122 39q-49 35 -77 99l-2 4q-9 39 -53 56q-48 19 -99 85q-29 38 -53 131l-9 78q-3 19 -0.5 63zM281 488q-1 -18 -1 -35q0 -110 51 -179q13 -17 34 -27t38 -4q43 14 62 28 q4 3 33 22.5t44 30.5q21 16 41 35q12 12 10 18q-2 5 -18 8t-63 3q-56 -2 -88 -34q-7 -7 -11 -10q-14 -10 -21 7q-11 28 -37 39q-14 6 -18 12.5t-1 20.5q13 66 65 92q71 35 172 37h10q73 0 117 -27q13 -7 23 6q6 8 16 28.5t18 30.5q8 11 14 37q1 8 5 17q32 74 54 194l6 60 q6 57 6 58q-2 86 -6 115q-5 48 -18 83q-10 29 -35 37q-53 19 -104 20h-3q-65 0 -140 -49q-10 -7 -29.5 -21.5t-29.5 -21.5q-42 -30 -54 -65q-4 -11 -13 -33t-13 -33q-49 -131 -74 -235q-34 -139 -42 -265z" />
<glyph unicode="R" horiz-adv-x="1015" d="M15 90v33q0 79 7 195q1 13 0.5 41t0.5 42q1 17 1.5 62t3.5 69q1 10 1.5 22t1 26t0.5 22q8 202 10 226q17 195 19 211q4 27 9 76.5t7 68.5q20 141 26 170q0 2 3 22q5 41 41 44q4 0 13.5 1.5t15 1.5t13 -2.5t13.5 -8.5q10 -8 13 -17q13 -39 19 -107q5 -68 7 -205 q0 -16 3 -19q10 19 27.5 55t32.5 65t30 54q27 47 69 93q62 69 150 99q59 20 121 19q35 0 71 -6q106 -20 180 -91q37 -35 48 -79q4 -17 20 -71q7 -23 9 -83v-15q0 -74 -18 -130q-3 -11 -8.5 -30t-10.5 -35t-11 -29q-11 -25 -66 -123q-8 -15 -20 -32.5t-20.5 -28.5 t-24.5 -31.5t-22 -28.5q-57 -73 -124 -117q-7 -5 -20 -14t-24 -16t-22 -12q-17 -8 -51.5 -24t-51.5 -24q-8 -3 -13 -7q-11 -8 -11 -13t11 -12q25 -18 128 -80q38 -23 108 -53q88 -40 145 -79q35 -24 35 -54q0 -13 13 -46q12 -29 12 -54q0 -33 -20 -60q-3 -5 -8 -16t-6 -14 q-13 -26 -38 -26q-9 0 -19 3q-32 10 -102 41q-58 28 -101 52q-65 36 -108 70q-44 35 -69 56t-73 62.5t-73 62.5q-9 8 -18.5 17t-21 20t-17.5 17q-11 11 -23 15v-60q0 -36 0.5 -108t0.5 -108q0 -9 -0.5 -27.5t-0.5 -28.5q-1 -42 -36 -101q-3 -5 -7.5 -8t-8 -3.5t-10 -0.5 h-8.5q-7 -1 -11 5.5t-5 14.5q-1 10 -9.5 25.5t-10.5 22.5q-7 19 -47 35q-41 16 -55 40t-15 61zM270 657q12 3 24.5 7t26 9.5t21.5 8.5q104 36 169 84q47 35 109 108q61 74 94 155q3 7 10.5 25t11.5 27.5t7.5 24.5t4.5 29q2 30 10 47q6 15 -1.5 25.5t-24.5 12.5q-10 1 -20 1 q-59 0 -131 -45q-39 -25 -85 -80q-53 -65 -109 -164q-44 -78 -97 -218q-7 -18 -20 -57z" />
<glyph unicode="S" horiz-adv-x="858" d="M14.5 866.5q0.5 6.5 1 10.5t2.5 12t3 11q0 1 3.5 22.5t8.5 32.5q13 29 14 41q0 4 3 9q11 17 28.5 50.5t25.5 47.5q13 23 43 63t37 50q11 16 58 63q59 59 114 85q107 50 194 50q80 0 138 -41q21 -16 22 -35q1 -9 9 -27q7 -16 7 -32q0 -31 -25 -62q-13 -18 -40 -18 q-12 0 -30 -8q-85 -38 -147 -111q-37 -43 -65 -92q-34 -59 -42 -77t-11 -27q-2 -6 0.5 -9.5t8.5 -1.5q13 5 37.5 7t30.5 3q45 8 97 10q17 1 49 0t42 -1q39 0 93 -25q41 -21 58 -44q26 -36 26 -76v-8q-1 -7 3 -23q31 -99 31 -210q0 -26 -2 -53q-5 -74 -32 -139 q-41 -98 -82 -151q-67 -84 -147 -135q-3 -2 -77 -36q-5 -2 -13.5 -1t-13.5 0q-31 -8 -61 -8q-55 0 -107 28q-95 54 -152 168q-8 17 -22 22q-10 4 -20.5 9.5t-18 10.5l-19.5 13t-17 12q-18 12 -18 30q0 12 8 27q16 31 48.5 40t57.5 -5q15 -8 51 -14q21 -4 56.5 -19.5 t43.5 -18.5q30 -11 57 -10q30 0 58 12q54 26 114 84q31 31 44 48q10 13 27 50q2 3 39 101q2 4 2 7t2 8t2.5 7.5t-2.5 6.5q-10 7 -26 -2q-9 -5 -27.5 -9.5t-23.5 -6.5q-8 -3 -31 -6.5t-35 -9.5q-9 -4 -45 -9q-60 -8 -101 -8q-24 0 -42 3q-78 12 -96 83q-8 30 -20 45 q-8 9 -12 29q-5 18 -21 24q-2 1 -4 1.5t-3.5 0.5t-3 1t-2.5 2q-15 16 -52.5 31.5t-41.5 17.5q-14 8 -21.5 13t-14 17t-5.5 26q-3 5 -4.5 11t-1 12.5z" />
<glyph unicode="T" horiz-adv-x="1255" d="M14 1262q10 22 39 33q32 12 66 19t83.5 14.5t67.5 10.5q30 5 128 19q24 3 69.5 7.5t60.5 6.5q80 9 240 15q86 4 129 4q22 0 61.5 3.5t57.5 3.5q20 1 37 1q42 0 62 -4q32 -6 63 -23q2 -1 6 -4t6 -4q26 -4 30 -42q2 -17 6 -25q14 -27 14 -57q0 -21 -7 -45q-6 -22 -36 -64 q-20 -26 -54 -24q-9 1 -25.5 -3t-19.5 -4q-25 -3 -49 -3q-16 0 -24 -1q-31 -5 -64 -5q-14 0 -28 1q-6 0 -19 -1t-19 0q-14 1 -43 3t-44 3q-52 3 -63 4t-11 -9v-46v-44q0 -81 -5 -193q-6 -107 -7 -157q-1 -40 -1 -99t1 -139q0 -18 -1 -73q0 -28 -0.5 -49t0.5 -36q1 -58 1 -97 v-34q-2 -48 -5 -74q-5 -44 -43 -83q-8 -9 -21 -5.5t-18 14.5q-4 9 -5 16q-1 10 -10.5 27t-11.5 24q-4 13 -25 21q-12 4 -49 25q-55 32 -69 98q-4 19 -14 94q-2 13 -3 50t-6 57q-3 12 -1 44q0 10 -1.5 49.5t1.5 50.5q1 8 1 33.5t4 39.5q-6 15 -5.5 23.5t4 23.5t2.5 24 q-1 16 -1 32q0 21 2 40q1 8 4 49t9 62q2 8 2 24q0 12 1 14q5 9 6.5 18.5t2 23.5t0.5 19q2 17 5 21q5 8 6 15q2 17 7 49t8 49q2 5 1 10t-9 5l-147 3q-83 2 -150 15q-3 0 -9.5 2t-9.5 3q-61 12 -74 60q-10 37 -55 54q-26 12 -32 17z" />
<glyph unicode="U" horiz-adv-x="923" d="M14 609q0 8 1 12q3 15 4 32t0.5 38.5t-0.5 32.5q1 17 4 48t4 43q3 43 11 96q3 17 5.5 58t7.5 62q3 13 7.5 50t12.5 56q1 2 1 13q1 16 8.5 45.5t9.5 41.5q3 20 13.5 55t13.5 50q5 21 28 48q8 10 19 10q15 0 17 3q11 14 24 4q3 -5 14.5 -1.5t12.5 3.5q11 1 41 -12 q9 -4 15 -10.5t8 -11t5 -15.5t4 -14q17 -46 19 -106q1 -17 1 -33q0 -40 -4 -74q-1 -24 -2 -91.5t-4 -104.5q-12 -161 -12 -362q0 -158 31 -245q2 -4 13.5 -42.5t21.5 -56.5q6 -11 9 -12t10 8q44 58 65 101q38 75 42 85q37 85 54 158q10 45 25.5 129.5t18.5 100.5 q13 67 24 135q21 137 42 218q15 59 23 133q7 52 14 67q14 29 38 36q8 2 16.5 3t19 1.5t16.5 1.5q18 1 33.5 -9t21.5 -27q21 -59 35 -171q12 -97 17 -220q1 -37 2 -111.5t3 -111.5q1 -19 1 -58q-1 -20 -1 -44v-103q1 -35 1 -100t1 -118t4 -100q4 -68 4 -112q0 -29 -2 -48 q-5 -54 -31 -91q-11 -16 -26 -14q-10 1 -13.5 5.5t-7.5 14.5q-15 43 -45 51q-10 3 -19 10.5t-20 20.5t-15 17q-26 26 -44 93q-4 15 -6.5 46t-5.5 44q-2 10 -3 41t-8 47q-5 -1 -7 -7q-54 -180 -146 -314q-27 -39 -61 -62q-23 -15 -49 -15q-11 0 -21 2q-36 8 -58 39 q-23 33 -40 78q-13 33 -47 45q-47 16 -84 56q-16 17 -24 34q-4 8 -20.5 37.5t-21.5 48.5q-4 13 -29 74l-3 9q-2 20 -10.5 55.5t-10.5 47.5q-13 73 -16 133z" />
<glyph unicode="V" horiz-adv-x="987" d="M24 1427q8 9 27 15q9 3 55 8q19 2 37.5 -8t26.5 -27q8 -16 26 -58t29 -65q10 -22 56 -106q9 -16 29 -64q14 -33 68 -188q32 -89 80 -235q34 -102 69 -215q3 -9 19 -46q8 4 8 13q5 68 23 174q12 71 19 90q4 12 6 38q2 21 11.5 59t11.5 48q4 20 14.5 60t14.5 60 q4 21 18.5 62.5t18.5 63.5q3 17 17 49q11 24 20.5 51.5t20.5 62t17 52.5q19 54 38 79q18 24 67 33q15 3 28 3q29 0 48 -14q6 -4 9 -12q15 -43 15 -88q0 -37 -10 -74q-41 -155 -65 -225q-20 -59 -89 -295q-52 -179 -94 -375q-20 -93 -60 -209q-7 -22 -3 -39q3 -12 3 -29 t-3 -38q-4 -28 -38 -72q-8 -11 -23.5 -8.5t-21.5 15.5q-19 37 -29 67t-41 40q-41 16 -67 36q-43 34 -60 77q-6 16 -19 47.5t-22 56.5t-15 49q-3 12 -13 33.5t-13 32.5q-4 16 -29 99q-34 115 -41 142q-6 25 -23 82.5t-24 88.5q-8 33 -24 95.5t-18 71.5q-17 68 -56 188 q-2 7 -19.5 55t-23.5 74q-15 66 -15 89q0 20 9 30z" />
<glyph unicode="W" horiz-adv-x="1331" d="M14 1251q2 82 16 134q6 22 23.5 35t41.5 15q3 0 11 0.5t11 0.5h4q38 0 49 -38q12 -42 37 -125t37 -124q35 -111 39 -124q8 -26 17.5 -56t21.5 -65t19 -55q8 -25 16.5 -53t18.5 -62t16 -53q7 -21 20 -70.5t22 -75.5q1 -4 3 -11t4 -13t6 -11q8 7 23 43q29 66 41 88 q12 23 2 48q-10 26 0.5 42.5t38.5 19.5q6 0 8 1q25 20 51 5q1 0 3.5 1t6.5 2.5t8 1.5q59 -2 83 -42q5 -9 15.5 -25.5t17 -27.5t14.5 -26t14 -28t23.5 -48.5t24.5 -55.5q4 -11 9.5 -22.5t12.5 -25t11 -21.5q5 -7 8 -7q7 0 9 9q2 8 5.5 24.5t5.5 25.5q16 64 41 145 q11 37 39 111q3 9 8.5 31t10.5 34q2 4 5 12.5t5 12.5q8 15 11 28q4 23 11 48t16.5 55t14.5 47q38 138 43 153q17 50 40 142q15 57 23 102q7 40 41 45q4 0 19 2.5t21.5 2.5t18 -2.5t20.5 -9.5q13 -11 20 -31q26 -74 26 -187q0 -31 -2 -64q-9 -151 -52 -347q-32 -146 -37 -162 q-13 -46 -33.5 -132.5t-29.5 -121.5q-46 -186 -48 -193q-5 -22 -40 -138q-4 -11 -9.5 -21.5t-15.5 -24.5t-14 -20q0 -1 -1 -2q-10 -14 -23 -9q-5 2 -9.5 -2t-4.5 -11q0 -8 -1 -16t-5 -17t-6 -13t-8.5 -15t-7.5 -13q-10 -19 -25 -18q-24 2 -31 21q-4 10 -8.5 21t-10 24.5 t-8.5 20.5q-8 23 -34 34q-45 19 -61 31q-40 29 -78 101q-6 12 -58 126q-1 3 -4.5 16.5t-8.5 18.5q-6 -1 -11 -15q-23 -68 -67 -204q-20 -62 -67 -127l-17 -17q-6 -6 -11 1q-4 6 -9 5q-22 -8 -27 21q-3 19 -18 49t-18 40q-2 8 -13 13q-85 43 -134 84q-34 29 -48 73 q-3 11 -10.5 41.5t-13.5 46.5q-5 12 -12.5 34.5t-8.5 26.5q-10 28 -7 43q1 4 -3 10q-6 9 -13 49q-17 91 -24 110q-11 30 -13 75q0 3 -12 50q-11 47 -14 88q-1 8 -6 23.5t-6 21.5t-5 38.5t-9 48.5q-6 23 -10.5 67.5t-9.5 65.5q-4 15 -4 51q0 19 -4 67q-3 38 -3 63v11z" />
<glyph unicode="X" horiz-adv-x="972" d="M15 1370q-2 24 11 38.5t37 14.5q7 0 16 8t17 7q3 0 10 -4t12.5 -4t9.5 8q2 -6 14.5 -3.5t16.5 1.5q55 -17 80 -68q14 -29 44 -79t39 -66q115 -205 127 -231q2 -6 4 -8q12 -17 24 1q29 40 51 76l84 135q49 83 69 135q24 62 89 62q36 0 55 -14q10 -6 12 -15t9 -32.5 t10 -40.5t1 -33q-1 -109 -50 -238q-56 -147 -127 -274q-8 -14 -22 -44q-11 -25 3 -45q4 -6 19.5 -29t24.5 -34q9 -12 25 -37t25 -36q7 -8 18.5 -28t19.5 -29q12 -14 31.5 -45.5t32.5 -45.5q6 -6 29 -50q3 -6 10.5 -19.5t11.5 -21.5t9.5 -19.5t8.5 -22.5t5 -22 q2 -14 12 -41.5t12 -41.5q3 -16 3 -36q0 -31 -7 -69q-8 -47 -44 -53q-4 -1 -8 -1q-28 0 -51 31q-5 7 -25 33.5t-30 41.5q-18 25 -52 51q-68 50 -114 101q-9 10 -23.5 29.5t-20.5 26.5q-35 41 -64 88q-11 18 -21 0q-19 -35 -32 -68q-45 -111 -104 -225q-9 -17 -39 -60 q-20 -29 -52 -23q-32 7 -36 37q-1 11 -12 31t-13 32q-1 9 -16 23t-19 21q-10 -4 -14 -3.5t-12.5 4.5t-12.5 5q-37 6 -75 60q-2 3 0 13q3 24 28 92q18 49 56 118q61 114 77 147q2 4 23 33q8 11 23 41t26 44q7 9 1 20q-9 15 -23.5 45t-22.5 43q-39 71 -43 75q-10 13 -23 49 q-11 31 -37.5 85.5t-33.5 71.5q-73 172 -92 245q-3 12 -5 36z" />
<glyph unicode="Y" horiz-adv-x="851" d="M16 960v45q2 88 6 109q15 100 31 176q1 7 26 86q13 40 30 73q12 25 37 32q10 3 29 4.5t24 2.5q12 2 24.5 -9t18.5 -24q5 -11 8 -22.5t3 -26.5t-0.5 -22t-3.5 -26t-3 -23q-18 -147 -18 -270q0 -120 5 -152q17 -111 91 -188q13 16 26 35q43 64 84 172q27 70 34 88t17 52 t12 41q14 42 33.5 122t29.5 113q4 14 22 36q8 9 20 9q7 -1 25 7q11 5 32.5 5t26.5 1q3 0 31 -11q7 -3 12.5 -7t10 -12t6.5 -10.5t6 -14t4 -12.5q33 -82 53 -196q23 -127 27 -349v-19q0 -77 -7 -169q-13 -190 -64 -335q-37 -107 -81 -180q-24 -41 -63 -77q-41 -37 -108 -37 q-11 0 -22 1q-60 4 -118 32q-10 5 -33 15t-35 16q-74 38 -105 106q-10 21 -30 31q-41 20 -59 45q-26 38 -26 74q0 6 1 12q4 37 31 92q9 17 41 17q18 0 25 -21q0 -1 2 -5.5t2 -6.5q2 -27 15.5 -53.5t25.5 -40.5t37 -41q5 -6 17 -12q81 -38 156 -59q20 -6 35 8q15 12 41 54 q20 33 48 103q29 71 47 183q16 95 16 140v5q0 3 1.5 9.5t1.5 11.5t-4 9q-4 -1 -8 -9q-30 -62 -70 -115q-19 -26 -33 -41t-37.5 -30t-49.5 -20q-36 -6 -59 -1q-83 15 -131 100q-32 58 -81 83q-39 20 -79 90q-30 52 -36 75q-1 2 -8 28t-8 40q-2 20 -8 58z" />
<glyph unicode="Z" horiz-adv-x="1085" d="M17 1159q9 13 23 19q27 12 143 48q26 8 77.5 22.5t76.5 22.5q10 3 118 28q150 35 154 36q25 4 75.5 13t75.5 13q77 12 141 12q17 0 34 -1q32 -1 64 -23q1 -1 3.5 -3t4.5 -3q33 -7 35 -51q0 -7 9 -27q17 -35 17 -72q0 -49 -28 -103q-21 -43 -76 -109q-35 -43 -163 -185 q-169 -187 -219 -252q-57 -73 -112 -159q-11 -18 -10 -23q6 -7 14 -3q12 6 37.5 10.5t30.5 5.5q26 7 76 13q80 8 145 8q27 0 52 -1q41 -2 106 -19q15 -3 49 -13t52 -14q20 -4 29.5 -16.5t15.5 -33.5q9 -28 -19 -56q-14 -14 -36 -26q-96 -55 -120 -66q-53 -25 -95 -34 q-15 -3 -46 -12.5t-47 -12.5q-13 -2 -80 -23q-8 -2 -24.5 -4.5t-29 -6t-22.5 -11.5q-25 -4 -67 -20t-59 -20q-8 -2 -45 -14t-57 -15q-31 -4 -62 10q-11 4 -15 18q-2 5 -4 16t-2 12q-4 23 -16 32q-7 5 -9 18q-7 43 -45 50q-12 2 -17 11q-11 19 -39 22q-28 5 -47 24 q-7 7 -5 18q2 9 4.5 30.5t6 36.5t9.5 28q5 13 13.5 36.5t16.5 42.5t18 35q10 15 42 81q8 16 26 43.5t24 37.5q19 33 91 130q18 25 56 70t55 67q7 9 23 23.5t21 20.5q10 10 27.5 31t25.5 29q14 16 42.5 47t43.5 47q11 13 10 21q-8 -1 -23 -1.5t-27 -1.5t-23 -3 q-51 -10 -132 -16q-87 -7 -155 -8h-20q-73 0 -111 13q-26 10 -32 30q-14 47 -58 60q-6 1 -14 7q-8 5 -2 13z" />
<glyph unicode="[" horiz-adv-x="688" d="M31 340q0 10 1.5 36.5t-0.5 36.5q-3 8 -0.5 46t2.5 46q2 120 12 179q3 15 0 30q-2 12 1.5 33t3.5 29q0 43 8 129q1 13 2 43.5t3 46.5q2 11 4 32.5t3 32.5q14 114 15 119q2 14 10.5 86t15.5 110q10 53 14 96q5 46 30 72q-4 2 -22 15.5t-31 15.5q-7 1 -9.5 6t2.5 13 q16 21 38 30q41 16 88.5 24t90 8.5t90.5 -0.5h58q59 2 94 -7q15 -4 60 -6q23 -2 34.5 -19t4.5 -39q-12 -36 -45 -73q-45 -51 -117 -66q-87 -18 -198 -10q-14 1 -16.5 -2t-1.5 -16q1 -14 3 -42.5t3 -42.5q5 -73 6 -151t-0.5 -185.5t-1.5 -150.5q0 -228 3 -304l3 -221 q1 -43 3.5 -128.5t3.5 -128.5q0 -20 20 -19q14 1 41 1q63 -2 118 -27q24 -10 37 -11q27 -2 38 -21.5t-1 -44.5q-23 -47 -65 -74q-30 -19 -79 -31q-24 -6 -68 -14t-58 -11q-25 -5 -57 5q-9 3 -13 19q-8 36 -21 50q-4 4 -7.5 17.5t-9.5 19.5q-11 11 -17 13q-17 5 -27 17 q-5 7 -25 11q-49 11 -55 55q-9 58 -12 117q-2 34 -4 102.5t-3 102.5z" />
<glyph unicode="\" horiz-adv-x="808" d="M35 1531q-10 22 2 34q13 14 34 9q8 -2 21 -17q26 -31 60 -89q35 -59 135 -250q13 -24 124 -255q35 -72 103 -218q38 -79 75 -172q34 -86 42 -106q28 -63 80 -206q12 -33 31 -99.5t30 -98.5q14 -38 -12 -71q-2 -3 -5 -8t-6 -9t-7 -7q-24 -19 -24 -66q0 -3 0.5 -10t0.5 -10 q0 -13 -10.5 -19.5t-21.5 0.5q-37 24 -48 46q-27 51 -32 64q-153 384 -214 563q-12 33 -36 99.5t-35 100.5q-59 170 -132 359q0 1 -24.5 70.5t-40.5 110.5q-12 31 -40 120t-50 135z" />
<glyph unicode="]" horiz-adv-x="688" d="M33 1584q-7 22 4.5 39t34.5 19q46 2 61 6q34 9 93 7h58q48 1 90.5 0.5t90 -8.5t88.5 -24q22 -9 38 -30q5 -8 2.5 -13t-9.5 -6q-10 -1 -18.5 -6t-18 -13t-16.5 -12q25 -26 30 -72q4 -43 14 -96q7 -38 15.5 -110t10.5 -86q1 -5 15 -119q2 -11 4 -32.5t3 -32.5 q2 -16 3 -46.5t2 -43.5q8 -86 8 -129q0 -8 3.5 -29t1.5 -33q-3 -16 0 -30q10 -59 12 -179q0 -8 2.5 -46t-0.5 -46q-2 -10 -0.5 -36.5t1.5 -36.5q-2 -34 -4 -102.5t-3 -102.5q-3 -59 -12 -117q-6 -44 -55 -55q-20 -4 -25 -11q-10 -12 -27 -17q-6 -2 -17 -13q-6 -6 -9.5 -19.5 t-7.5 -17.5q-13 -14 -21 -50q-4 -16 -13 -19q-32 -10 -57 -5q-14 3 -58 11t-68 14q-49 12 -79 31q-42 27 -65 74q-12 25 -1 44.5t38 21.5q13 1 37 11q53 24 118 26h41q20 -1 20 19q1 43 3.5 128.5t3.5 128.5l3 221q3 76 3 304q0 43 -1.5 150.5t-0.5 185t6 150.5q1 14 3 43 t3 43q1 13 -2 16t-16 2q-111 -8 -198 10q-72 15 -117 66q-33 37 -45 73z" />
<glyph unicode="^" horiz-adv-x="661" d="M34 662q9 21 19 34q20 26 38 55.5t41 72.5t32 59q10 18 30.5 54t30.5 54q7 13 16 14q8 1 21.5 8.5t18.5 8.5q17 5 29 26q18 34 28 51q18 30 46 6q9 -8 21 -28q23 -42 100 -152q83 -119 90 -130q30 -46 34 -86q4 -35 -9 -48t-53 -18q-14 -2 -40 11q-60 31 -117 95 q-14 15 -40.5 46t-39.5 46q-1 2 -5 4t-6 4q-2 -5 -13.5 -27.5t-16.5 -34.5q-21 -50 -67 -114q-36 -50 -73 -54q-2 0 -16 -6q-12 -6 -24 -7.5t-25.5 3.5t-21 8.5t-22.5 12.5q-16 9 -6 32z" />
<glyph unicode="_" horiz-adv-x="784" d="M32 147q3 6 12 6q20 -1 56 1.5t50 2.5q40 0 76 2q95 2 150 4q14 1 42 2.5t42 1.5q79 4 237 4q1 0 28 -3q11 -1 23 -10q4 -2 3 -7.5t-5 -6.5q-1 0 -3.5 -1t-3.5 -1q-17 -6 -21 -18q0 -2 -6 -10q-7 -13 -24 -14q-14 0 -41 -3t-41 -3q-57 -2 -86 -1q-9 1 -24.5 0t-20.5 -1 q-2 0 -74 3q-16 1 -47.5 2.5t-47.5 2.5q-12 1 -51 3.5t-60 4.5q-12 1 -35 3t-41.5 4t-34.5 5q-22 3 -41 9q-9 3 -10 5q-4 6 -1 13z" />
<glyph unicode="`" horiz-adv-x="276" d="M33 1478q-8 15 5 23q19 11 37 14q19 3 36 -12q30 -26 53 -51q38 -42 49 -59q26 -41 30 -56q4 -21 0 -36q-8 -26 -29 -8q-10 8 -18 18q-6 8 -16 11q-77 30 -120 109q-4 8 -13 23.5t-14 23.5z" />
<glyph unicode="a" horiz-adv-x="632" d="M19 308q-4 25 -4 50q0 95 65 181q108 141 282 174q29 6 54 6q38 0 68 -13q17 -8 27 -15q17 -12 32 -12q26 0 36 -29q10 -31 13 -56q18 -188 21 -375q0 -51 3 -77q0 -24 1 -34t-3.5 -33.5t-6.5 -33t-8 -32.5t-8 -33q-1 -6 -5 -13q-12 -19 -20 1q-11 26 -33 33 q-12 4 -23 31q-1 2 -8 17.5t-8.5 19t-7 17t-7.5 19t-6.5 18t-6 20t-4 18t-3.5 20.5t-1 20q0 2 -3 17l-1 1l-4 1q-17 -33 -40 -65q-40 -57 -96 -84q-27 -13 -54 -13q-18 0 -36 6q-44 15 -62 62q-17 40 -55 60q-73 39 -88 126zM214 262q0 -32 24 -43q14 -7 39 13q47 38 77 90 q44 75 79 191q14 44 14 49q-2 1 -5 1q-8 -3 -10 -4q-86 -55 -143 -117q-53 -57 -69 -133q-6 -30 -6 -47z" />
<glyph unicode="b" horiz-adv-x="577" d="M15 455q-1 37 -1 71q0 84 4 146q2 33 2 100q0 110 1 165q5 193 7 231q4 84 12 126q4 19 10 24t24 7q19 2 27 -3t15 -23q10 -28 15 -70q21 -177 33 -358q3 -45 5.5 -96t5 -113.5t4.5 -96.5q0 -1 3 -14q35 74 54 100q32 45 88 61q27 8 51 8q26 0 47 -9q74 -29 99 -109 q41 -130 41 -265v-18q-2 -122 -11 -160q-22 -94 -71 -154q-33 -39 -65 -47q-10 -2 -20 -2q-23 0 -47 12q-62 24 -125 79q-10 8 -39 50q-5 -2 -8 -5.5t-6.5 -10.5t-4.5 -8q-11 -16 -24 -15t-20 16q-4 7 -10 23q-7 18 -27 25q-30 11 -47 36.5t-18 57.5q-1 40 -2 119.5 t-2 119.5zM195 267q-4 -12 1 -27q13 -37 40.5 -59.5t70.5 -41.5q7 -3 17 9q25 32 32 64q16 77 17 132v8q0 18 -3 66q-1 22 -1 38q0 27 4 35q-2 25 -6 69q-2 15 -13 8q-2 -1 -5.5 -3.5t-6.5 -4.5l-6 -4q-35 -28 -65 -82l-14 -28t-13.5 -30t-11 -28t-10.5 -31t-9 -29 t-9.5 -31.5t-8.5 -29.5z" />
<glyph unicode="c" horiz-adv-x="487" d="M18 202q-3 22 -3 49q0 46 9 107q8 56 21 96q36 119 86 199q32 52 51 76q59 72 141 72h7q62 -2 95 -48q46 -66 46 -140q0 -29 -7 -59q-2 -9 -6 -16q-10 -19 -20 0q-11 22 -22 25q-16 5 -23 30q-10 36 -16 53q-6 18 -26 11q-10 -4 -28 -26q-48 -61 -86 -151 q-41 -98 -58 -266q-2 -23 5 -56q8 -1 18 9l14 15q15 14 20 22q15 24 38 46.5t42 36t50 33.5q10 6 15 8q37 11 47 -27q3 -11 3 -22q-4 -96 -34 -149q-32 -56 -53 -81q-42 -49 -105 -60q-11 -2 -20 -2q-53 0 -78 51q-4 8 -10 26q-7 22 -30 30q-69 22 -83 108z" />
<glyph unicode="d" horiz-adv-x="624" d="M15 342q-1 9 -1 20q0 33 10 76q27 116 96 215q57 82 139 102q26 7 51 7q23 0 45 -6q15 -4 18 -2t5 16q39 253 63 388q9 48 12 96q1 42 42 47q15 4 35 3t33 -13q7 -7 8 -11q16 -65 16 -75q11 -360 11 -536v-50v-108q0 -166 2 -362q0 -35 1.5 -74.5t4 -88t3.5 -74.5 q1 -9 1 -18q0 -56 -23 -88q-1 -1 -3.5 -5t-4.5 -6q-7 -7 -16.5 -6t-12.5 10q-12 37 -42 43q-60 55 -68 122q-8 59 -8 154q0 47 2 104q-10 -12 -17 -37q-17 -56 -49 -114q-10 -18 -16 -26q-29 -39 -69 -39q-21 0 -46 11q-47 22 -73 75q-10 24 -33 35q-66 35 -98 125 q-12 34 -18 90zM194 269q9 -52 33 -80q6 -7 10 -9t7.5 0.5t8.5 11.5q2 4 3 7q30 75 49 161q1 4 27 143q4 21 10.5 59.5t8.5 52.5q-38 -8 -67 -48q-56 -75 -82 -183q-11 -43 -11 -80q0 -18 3 -35z" />
<glyph unicode="e" horiz-adv-x="667" d="M16 288q-2 20 -2 40q0 64 17 134q36 148 136 258q5 5 14 16.5t14 17.5q64 71 179 89q40 6 55 5h9q77 0 135 -31q34 -18 49 -47q31 -58 31 -114q0 -49 -24 -97q-39 -79 -141 -150q-77 -54 -176 -84q-51 -15 -95 -15h-6q-22 1 -23 -20q-2 -37 -1 -47q4 -34 29.5 -52.5 t58.5 -13.5q29 5 54 20q20 13 44 26.5t54 29.5t46 25q30 16 43 26q4 4 6 5q21 10 37 1q8 -5 10.5 -17t-1.5 -23q-56 -132 -133 -190q-32 -24 -49 -35q-42 -25 -95 -25h-7q-58 2 -99 33q-32 25 -39 48q-12 37 -47 50q-15 6 -39 30q-39 37 -44 107zM209 387q8 -3 19 1 q82 27 179 101q68 51 100 113q14 27 16 66q1 17 -16 17h-13q-90 0 -154 -65q-52 -53 -99 -142q-25 -47 -32 -91z" />
<glyph unicode="f" horiz-adv-x="493" d="M14 266q4 17 25 24q57 18 97 19q10 0 14 4.5t5 15.5q1 20 -0.5 59.5t-0.5 59.5q8 142 53 260q12 31 32 70q36 63 110 63h13q68 -4 98 -74q16 -37 17 -75q0 -14 -5 -17l-4.5 -1.5t-3 1t-2.5 3t-2 3.5t-2 3q-23 21 -35 38q-9 13 -27 10t-27 -17q-13 -19 -25 -67 q-35 -134 -35 -248q0 -29 2 -56q1 -13 1.5 -17t3.5 -8.5t8 -5t17 -0.5q13 0 41.5 -3.5t44.5 -3.5q19 0 27.5 -16t-0.5 -33q-6 -11 -21 -22q-28 -22 -87 -48q-18 -8 -15 -28q3 -31 10 -94t10 -95q17 -151 17 -282q0 -63 -4 -121q-4 -62 -52 -161q-3 -6 -8 -11q-4 -4 -8 -3.5 t-6 4.5q-11 35 -43 45q-5 1 -10 16q-46 125 -46 206v16q1 17 -1 48.5t-2 42.5q0 34 -7 153q-4 78 -14 220q-1 16 -4 19.5t-19 8.5q-1 0 -3 0.5t-3 0.5q-50 4 -67 54q-5 16 -25 24q-29 13 -32 16z" />
<glyph unicode="g" horiz-adv-x="657" d="M24 482q11 71 35 128q18 45 50 88q55 74 165 84q13 1 25 1l85 -15q4 8 5 21.5t1 14.5q3 21 22 24h3q43 10 59.5 1t26.5 -49q10 -39 27.5 -118t27.5 -119q33 -139 62 -395q13 -116 20 -212q3 -46 3 -90q0 -135 -32 -253q-27 -95 -87 -171q-65 -84 -169 -84h-16 q-79 6 -123 81q-10 18 -14 27q-5 12 -15 16q-78 30 -96 124q-7 37 -7 71q0 89 48 156q15 22 31 35q9 7 22 10t19 -2q18 -14 13 -34q-5 -21 -6 -47.5t0.5 -42.5t5.5 -49t5 -43q5 -59 31 -96q23 -34 51 -34q23 0 50 25q45 42 79 131q36 96 44 270v15q0 22 -1 53q-3 44 -3 61 q0 54 -6.5 154.5t-7.5 122.5q-1 23 -7.5 68t-7.5 56q-9 -9 -11 -28q-26 -141 -97 -313q-31 -76 -66 -115q-19 -21 -38.5 -21t-38.5 21q-8 8 -19 26.5t-18 25.5q-6 6 -23 16.5t-24 19.5q-47 57 -71 136q-21 68 -21 144q0 50 9 104zM161 427q-9 -50 -9 -96q0 -88 32 -162 q8 -22 18 -30q7 5 16 21q39 75 73 181q21 63 67 278q9 40 14 67q-11 5 -34 1q-100 -21 -141 -125q-22 -53 -36 -135z" />
<glyph unicode="h" horiz-adv-x="641" d="M14 548q0 166 14 397q3 47 8 139.5t7 138.5q1 16 2 50.5t1.5 54.5t3.5 48.5t8 52.5q4 19 9.5 24.5t21.5 6.5q16 0 22 -13q6 -15 8 -30q20 -201 25 -325q2 -54 5 -161.5t5 -161.5q8 -248 11 -287q1 -7 2 -20.5t1 -20.5q3 9 23 76.5t33 102.5q45 127 98 187q50 58 125 68 q8 1 17 1q35 0 64 -20q37 -26 51 -65q25 -72 31 -151q15 -204 15 -359v-50q-2 -116 -8 -160q-4 -31 -26 -63q-10 -13 -21 -11.5t-18 16.5q-15 35 -39 39q-7 2 -9 5q-3 4 -14 16.5t-15.5 18.5t-12 17t-11 21.5t-5.5 21.5q-9 60 -10 102q-1 37 -1 72q0 47 2 90q2 36 3 116.5 t4 123.5v16.5v20v18.5q-17 -6 -33 -26q-51 -63 -91 -167q-29 -73 -85 -263q-8 -25 -21 -73.5t-15 -56.5q-6 -18 -4 -38l2 -24q0 -48 -24 -82q-6 -10 -10 -13q-8 -7 -18.5 -4t-13.5 13q-1 5 -14 33q-5 12 -19 18q-26 10 -54 38q-24 24 -24 58v7q2 8 0 40t-2 39q0 81 -1 121 q-3 216 -3 217z" />
<glyph unicode="i" horiz-adv-x="239" d="M15 294v6q0 49 13 207q8 96 34 172q9 25 22 34t41 10q2 0 10 0.5t11.5 0t9 -2.5t10.5 -6q13 -13 16 -24q15 -44 23 -136q18 -198 18 -329v-26v-29v-34.5v-28.5q-1 -72 -51 -143q-8 -10 -9 -11q-15 -9 -20 5q-4 12 -7 18q-12 27 -35 32q-17 4 -27 22q-45 75 -54 137 q-2 16 -5 126zM44 964q0 96 42 191q18 40 70 68q23 12 36 1q14 -13 6 -35q-4 -11 -5 -34t-3 -32q-10 -43 -23.5 -123.5t-20.5 -115.5q-8 -34 -16 -50q-7 -14 -15 -15q-5 0 -7 1.5t-4 7t-2 6.5q-8 20 -27 26q-16 5 -22 29q-9 38 -9 75z" />
<glyph unicode="j" horiz-adv-x="567" d="M23 -276q9 65 21 106q5 19 12 24t27 5q27 0 31 -32q1 -11 3.5 -32.5t3.5 -32.5q16 -119 77 -250q9 -21 15 -26.5t12.5 -1t21.5 23.5q8 10 14.5 23t9.5 20.5t8.5 25.5t7.5 23q6 16 10 32.5t7.5 37t5 31.5t4.5 37.5t4 33.5q3 25 3 66v21v34q0 32 1 52q1 11 1 28q0 21 -1 50 q-2 24 -2 42q0 22 2 36q2 21 2 41t-2 40q-3 38 -3 98q0 47 2 108q1 38 1 114t-1 191v19q1 11 2 16.5t1.5 10t5 6.5t6 3t11 2.5t13.5 2.5q26 5 39.5 -3t23.5 -34q19 -51 39 -150q40 -191 62 -454q2 -29 9.5 -102t10.5 -113q8 -122 8 -176v-11v-10q0 -78 -14 -161 q-14 -79 -43 -151q-28 -66 -62 -97q-62 -55 -123 -55q-40 0 -80 23q-39 23 -69 88q-11 24 -13 27q-14 20 -30 24q-36 8 -55.5 32t-31.5 63q-16 53 -16 122q0 50 8 109zM247 1060q11 161 118 255q17 14 39 8q7 -2 11 -13t2 -21q-7 -27 -11 -98q-2 -30 -11.5 -83t-11.5 -66 q-6 -46 -12 -68q-4 -19 -17 -35q-6 -8 -13.5 -6.5t-11.5 10.5q-17 44 -42 58q-1 1 -4.5 4t-6.5 3q-15 -1 -19.5 6.5t-6.5 23.5t-3 22z" />
<glyph unicode="k" horiz-adv-x="649" d="M26 435q5 8 7 9q12 9 17.5 24.5t6 23t1.5 29.5q2 30 4 89.5t3 89.5q4 84 4 126q0 18 1 38t2.5 44.5t2.5 38.5q1 15 2 42.5t2 50.5t2 43q5 91 10 112q4 18 11.5 23t30.5 7q19 1 27 -4.5t13 -22.5q7 -20 21 -101q16 -100 27 -354q1 -16 2 -45.5t1 -45.5q0 -19 5 -29 q11 10 31.5 25.5t29.5 22.5q24 20 89 66q4 3 13 10t16.5 11.5t15.5 6.5q39 12 52 13q7 1 14.5 -0.5t11.5 -3.5t12.5 -6t11.5 -5q2 -1 4 -5q12 -38 12 -68q0 -32 -13 -55q-30 -53 -37 -62q-67 -90 -118 -137q-27 -25 -81 -77q4 -4 32 -21q23 -13 48 -29t55 -36t47 -31 q12 -8 37 -24.5t38 -24.5q14 -9 27 -25q6 -7 21 -25t22 -28q14 -19 14 -35q0 -27 -42 -43q-13 -5 -27 -5q-18 0 -39 8q-93 35 -195 102q-57 38 -72 45q-14 6 -25 9v-79v-11q0 -70 -12 -179q-3 -36 -38 -90q-11 -17 -21 3q-5 10 -7.5 14t-9 9t-14.5 5q-2 0 -9 10 q-39 60 -52 103q-9 33 -18 120q-2 20 -2 51q1 8 1 16v27q0 24 -1 41v21q0 32 2 69q2 30 -19 43t-21 32q0 15 13 34z" />
<glyph unicode="l" horiz-adv-x="264" d="M17 434q-3 67 -3 120.5t3 93.5q1 12 1 37v27q0 7 -1 13q0 36 3 52q1 11 1.5 32t0.5 28q0 14 1 42.5t2 43.5q4 103 7 158q1 17 4 60t4 66q0 25 3 47q2 15 3.5 20.5t9 11t23.5 9.5q17 4 36 1q25 -5 34 -29q24 -61 34 -144q10 -77 26 -323q2 -33 5.5 -111t6.5 -120 q9 -226 9 -232q2 -26 6 -80t5 -80q8 -131 8 -212q0 -24 -1 -44q-1 -37 -25 -129l-1 -1v-1q-1 -2 -3 -6.5t-3.5 -7t-4.5 -5t-8 -2.5q-11 0 -16 17q0 1 -0.5 1.5t-0.5 1.5q-11 26 -31 32q-15 5 -35 33q-42 59 -62 123q-2 8 -5.5 25.5t-6.5 25.5q-6 17 -8.5 37t-4.5 44t-4 38 q-6 40 -6 103q0 22 -1.5 65t-1.5 65z" />
<glyph unicode="m" horiz-adv-x="960" d="M14 243q0 97 6 162q2 25 4.5 71.5t3.5 61.5q1 24 5 68.5t5 59.5q2 29 10 82q5 34 35 38q3 0 13.5 1.5t15 2t12.5 -1.5t14 -7q12 -10 17 -25q14 -42 24 -132q2 -18 5 -54.5t5 -54.5q1 0 3 -1q3 10 11 30t11 29q42 110 95 172q48 56 124 56h13q50 -3 70 -55q14 -36 21 -75 q5 -29 8.5 -60t6.5 -74t5 -60q6 0 8 8q32 106 62 187q14 38 52 110q21 40 48 57q29 18 60.5 22.5t61.5 -12t46 -56.5q18 -45 32 -145q9 -70 16 -300q1 -43 1.5 -129.5t1.5 -129.5v-13q0 -46 -13 -82q-6 -18 -16 -54q-4 -15 -9 -21q-10 -12 -17 1q-2 3 -4 8.5t-3 8.5 q-9 15 -17 16q-14 1 -26 23q-10 17 -24 49t-19 42q-22 46 -28 127q-4 67 -5 104v19q0 21 1 51q2 46 2 65q0 23 2.5 65.5t2.5 59.5q1 18 2 55t1 55v22q-9 -8 -23 -33q-26 -49 -86 -191q-80 -192 -121 -270q-5 -11 -7 -25q0 -9 -3 -18q-4 -13 -12 -13q-5 0 -9 11q-9 23 -26 25 q-6 1 -13 15q-11 21 -39 96q-23 66 -25 138q-2 100 -2 134v16q2 34 -2 58q-3 1 -5 0t-3 -2t-3 -3.5t-2 -3.5q-9 -14 -25 -42q-85 -156 -132 -329q-4 -16 -13.5 -47t-14.5 -47q-9 -31 -8 -54q1 -12 1 -25q0 -69 -19 -142q-2 -5 -4 -33q-2 -12 -5 -18q-7 -14 -14 -13 q-8 1 -12 13q-9 25 -33 33q-5 1 -9 5.5t-6.5 8t-6.5 10t-6 9.5q-35 55 -60 145q-5 21 -7 50q-7 75 -7 95z" />
<glyph unicode="n" horiz-adv-x="641" d="M15 234q-1 36 -1 71t1 71q3 96 4 107q2 20 2 119q0 137 -4 176q-2 24 5.5 33.5t32.5 11.5q31 3 45.5 -6.5t23.5 -37.5q19 -55 37 -167q5 -33 20 -204q0 -6 4 -8q4 20 11 42.5t15.5 49.5t12.5 42q33 115 95 206q12 18 42 50q27 27 79 34q11 2 21 2q37 0 63 -20 q30 -25 42 -62q48 -140 54 -309q6 -138 6 -207q0 -130 -1 -157q-1 -17 -3 -33.5t-7 -37t-7.5 -31t-10 -36.5t-9.5 -32q-1 -4 -5 -10q-6 -10 -13 -9q-3 0 -8 11t-8 16.5t-10.5 11.5t-17.5 7q-8 1 -15 17q-21 42 -49 132q-14 44 -22 147q-8 93 -8 111q-1 38 -1 114v22 q0 44 -2 152q-1 1 -2.5 1t-2.5 1q-11 -10 -23 -32q-47 -87 -88 -202q-11 -30 -31.5 -94.5t-38.5 -113.5t-37 -93q-18 -39 -18 -75q0 -43 -35 -96q-13 -22 -25 3q-12 27 -29 28q-2 0 -12 10q-39 47 -58 114q-4 12 -6 51q-7 90 -8 109z" />
<glyph unicode="o" horiz-adv-x="643" d="M16 271q6 77 21 153q2 9 7 24.5t7 22.5q5 18 7.5 52t4.5 45q6 43 31 96q19 42 40 75q45 71 94 100q75 44 147 44q54 0 106 -25q49 -23 73 -49q30 -32 47 -83q26 -79 26 -145v-17q0 -100 -26 -207q-21 -82 -62 -162q-69 -131 -144 -211q-40 -43 -85 -70q-32 -18 -61 -18 q-14 0 -27 4q-40 12 -68 58q-5 8 -16 34q-4 12 -16 16q-77 29 -97 121q-11 50 -11 101q0 20 2 41zM170 165q2 -51 25 -87q7 -11 12.5 -12t15.5 7q20 16 28 24q80 82 132 181q44 85 55 134q24 105 25 132q0 6 2.5 42.5t1.5 55.5q-1 16 -7 50q-4 18 -16 21q-17 4 -32 4 q-23 0 -44 -9q-25 -11 -51 -33q-59 -52 -78 -107q-41 -122 -53 -206q-15 -106 -16 -171v-26z" />
<glyph unicode="p" horiz-adv-x="657" d="M14 -353q0 1 1 5t1 5q1 19 1 49v32q-1 25 -1 45t1 34q3 69 4 82q3 22 3 59q0 19 -1 41q-1 13 1 38t2 35q1 56 7 173q3 57 6.5 163.5t5.5 151.5q2 41 2 125q0 20 1 30q2 18 8 25t23 9q27 4 38 -3q13 -9 18 -24q17 -57 28 -140q2 -16 6 -47t5 -40q11 12 18 28 q48 100 109 176q54 67 83 91q32 26 69 35q21 5 40 5q46 0 81 -30q17 -14 26 -44q27 -87 37 -196q5 -59 5 -125q0 -81 -8 -173q-12 -131 -39 -260q-20 -95 -63 -159q-19 -29 -50 -49q-28 -18 -59 -18q-26 0 -55 12q-41 17 -83 74q-9 13 -10 14q-4 11 -13 21t-15.5 15 t-21.5 14t-20 13q-1 -4 -1 -40q1 -33 4 -118.5t4 -131.5l3 -120v-14q0 -72 -9 -145q-3 -28 -30 -70q-12 -16 -25 -14q-16 2 -17 13q0 4 -14 37q-8 20 -43 30q-18 5 -30 23q-26 41 -26 82v9q0 26 -6 87q-1 7 1 21q3 27 -2 59zM228 247q14 -103 63 -193q32 -57 63 -80 q8 -6 12 -5.5t9 8.5q14 23 19 40q18 59 26 102q18 101 19 119q1 15 5 43t5 43q2 26 7 73.5t6 63.5q2 17 0.5 50.5t-0.5 50.5q2 43 -5 56q-15 -7 -22 -14q-12 -14 -19 -21q-106 -104 -174 -247q-15 -32 -15 -67q0 -11 1 -22z" />
<glyph unicode="q" horiz-adv-x="643" d="M14 265q0 58 3 88q5 63 16 118q8 42 25 90q27 77 64 130q82 122 215 122h2q13 0 44 -9q12 -4 16 5q15 31 40 29q9 9 26.5 8.5t29.5 0.5q8 2 15.5 -1.5t16.5 -10t14 -8.5q4 -1 5 -5t1.5 -10t1.5 -8q0 -4 1 -5q7 -19 12 -42t6 -39t3 -44t3 -41q8 -91 10 -275 q1 -131 10 -313q10 -188 17 -282q16 -204 17 -227v-10q0 -51 -18 -168q-2 -8 -4 -11q-1 -1 -3 -5.5t-3 -6.5t-4 -4t-7 -2q-5 0 -8 2.5t-4.5 9t-1.5 7.5q-12 30 -37 35q-12 2 -22 20q-19 32 -51 116q-24 65 -30 124q-2 21 -7 56t-8.5 64.5t-3.5 56.5q0 36 -7 85q-3 22 -5 62 q0 7 -6 10q-3 -6 -13.5 -30.5t-17.5 -36.5q-17 -29 -41 -54q-19 -20 -44 -20q-13 0 -27 5q-25 9 -50 45q-6 9 -25 45q-7 15 -19 19q-45 14 -78 67q-48 78 -60 175q-9 72 -9 73zM204 333q-7 -47 -7 -93q0 -68 15 -133q9 -42 25 -70q15 17 24 47q3 12 14 47.5t15.5 53t11 46 t10.5 52.5q2 17 10 53t11 53q4 27 14 75.5t13 68.5q16 97 20 113q3 10 -1.5 13.5t-15.5 0.5q-53 -16 -85 -73q-28 -50 -49 -125q-14 -48 -25 -129z" />
<glyph unicode="r" horiz-adv-x="524" d="M14 577v36q0 31 2 43v70q0 44 7 82q7 35 36 40q22 3 39 2q23 -2 31 -28q12 -38 25 -148q1 -10 3.5 -30.5t3.5 -31.5q8 4 12 15q31 79 58 118q29 41 52 57q38 28 83 28q10 0 21 -2q67 -9 91 -76q31 -88 31 -173q0 -73 -23 -145q-10 -31 -13 -40q-4 -11 -11 -12 q-4 0 -5.5 1.5t-2.5 5t-1 4.5q-11 21 -25 23q-8 1 -12 16q-20 68 -36 133q-2 10 -16 110q-10 -2 -23 -22q-26 -41 -55 -119q-58 -156 -70 -326q-1 -16 -1 -65.5t1 -131.5q2 -80 4 -120q1 -22 -21 -58q-5 -9 -16.5 -7t-13.5 12t-10.5 26t-10.5 21q-6 16 -25 25q-31 14 -40 16 q-11 1 -17 18q-17 48 -27 118q-14 85 -17 162q-6 124 -6 186v88q0 18 -2 79z" />
<glyph unicode="s" horiz-adv-x="530" d="M26 571q23 35 56 63q50 42 78 59q96 58 123 68q57 23 93 24q27 1 37 -7t19 -36q5 -15 -1 -32.5t-21 -27.5q-67 -43 -113 -80q-34 -27 -97 -90q17 -6 70.5 -24.5t81.5 -28.5q69 -25 120 -71q21 -20 24 -42q1 -5 11 -38q9 -26 9 -52.5t-9 -54.5q-23 -75 -89 -133 q-26 -23 -64 -51q-54 -39 -120 -53q-61 -13 -101 -13q-12 0 -22 1q-21 2 -26 18q-8 27 -40 34q0 8 5 11q20 13 38.5 31t41 44t33.5 37q41 43 85 82q31 29 64 77q9 13 -6 19q-43 16 -49 18q-39 13 -80 33q-45 24 -56 66q-8 33 -39 44q-24 9 -44 26q-24 20 -24 44q0 17 12 35z " />
<glyph unicode="t" horiz-adv-x="491" d="M-249 1037q10 7 33 11q219 40 344 49q14 1 16.5 3.5t4.5 17.5l6 60q2 18 25 28q11 5 30 5.5t23 1.5q11 2 25 -8.5t17 -22.5q12 -40 16 -61q3 -14 17 -14q14 1 42 1h42h14q74 0 198 -28q14 -4 21 -4q21 0 29 -22.5t-7 -38.5q-12 -13 -31 -21q-104 -45 -202 -46 q-17 0 -48 -2t-41 -2q-16 0 -14 -17q0 -2 2 -38.5t4 -55.5q1 -18 4 -105q1 -33 5 -99q2 -33 7 -287q6 -233 6 -235q1 -35 1 -68q0 -48 -2 -90q-1 -70 -44 -129l-1 -2l-1 -2q-15 -18 -24 3q-5 13 -8.5 19t-11.5 13.5t-19 9.5q-12 3 -27 26q-40 62 -56 119q-6 23 -8 60 q-1 28 -9 82v7q3 21 0.5 63.5t-0.5 63.5q1 12 0 35t0 35q1 16 1 43v31v23q0 32 2 50q2 8 1.5 35t-0.5 35q1 21 1.5 63.5t1.5 63.5q3 61 3 90v12q-1 11 -1 23q0 30 4 68q0 2 0.5 5.5t0.5 5.5q1 35 -1.5 37.5t-35.5 0.5h-91q-35 -2 -66 -2q-43 0 -78 4q-17 1 -34 6 q-33 7 -41 34q-8 29 -43 39q-20 5 -2 18z" />
<glyph unicode="u" horiz-adv-x="665" d="M14 467q-1 12 1 34t2 31q0 59 22 151q13 51 21 72q14 32 31 40q38 18 56 16q5 0 24.5 1.5t24.5 -1.5q14 -4 22 -15q2 -3 8.5 -2t6.5 -4q1 -3 2 -9.5t1 -9.5q3 -16 4 -18q13 -20 13 -45q0 -12 -3 -26q-18 -87 -20 -231v-16q0 -106 25 -177q4 -10 11.5 -28.5t8.5 -22.5 q10 5 14 20q7 23 21 67t21 67q11 36 27 104.5t25 99.5q4 13 10 40t12.5 48t14.5 39q3 7 3 21q1 18 14 34q10 10 21 9q1 0 3 -1q3 -1 4 0q7 5 15 7t19 1.5t16 0.5q38 5 49 -15q9 -2 15 -8t8 -11t4.5 -15.5t3.5 -14.5q38 -130 49 -323q7 -130 7 -221q0 -38 -2 -106.5t-2 -90.5 q0 -88 -8 -124q-7 -32 -23 -96q-2 -8 -4 -11q-1 -2 -2.5 -5.5t-2.5 -5.5t-3.5 -3.5t-6.5 -1.5t-6.5 2t-3.5 4t-2 6t-2 5q-13 32 -37 34q-4 1 -13 12q-23 31 -37 66q-4 9 -11 26t-12.5 31t-9.5 27q-6 20 -13 77q0 3 -9 95q-5 -10 -13.5 -28.5t-16 -33.5t-15.5 -27 q-2 -2 -4 -6t-4 -6q-22 -30 -46 -34.5t-55 15.5q-42 25 -75 89q-13 25 -37 38q-53 27 -96 94q-24 40 -31 61q-23 70 -26 102q-7 87 -8 106z" />
<glyph unicode="v" horiz-adv-x="729" d="M16 747q-4 33 3.5 48.5t33.5 26.5q2 1 7 4t8 4t8 2t9.5 0.5t9.5 -3.5q17 -9 27 -22q28 -36 85 -148q110 -217 175 -372q51 154 147 387q44 106 75 154q8 13 25 23q6 4 12.5 4.5t9.5 0t10.5 -3.5t9.5 -4q26 -10 35 -25t8 -48q-5 -94 -36 -214q-52 -202 -71 -256 q-6 -16 -16 -46.5t-19 -55t-19 -45.5q-31 -66 -91 -131q0 -31 -3 -61l-3 -15q-9 -16 -21 -2l-15 18q-15 16 -30 22q-11 -7 -22 -21q-7 -8 -14 -19q-11 -15 -21 0q-1 2 -4 15q-6 35 -7 55q-68 65 -101 123q-7 12 -64 143q-25 57 -90 251q-39 118 -51 211z" />
<glyph unicode="w" horiz-adv-x="956" d="M17 630q-2 38 -2 70q0 48 5 81q1 8 1.5 18t1 22t0.5 18q1 31 37 45q9 4 26.5 5.5t20.5 2.5q19 4 53 -18q4 -2 4 -7q1 -10 10 -38t8 -45v-17q0 -134 30 -327q20 -128 41 -208q8 -25 12 -32q16 52 17 54q20 69 46 161q14 51 47 124q10 24 14 36q14 45 58 50q16 3 37.5 2 t36.5 -13q14 -11 20 -28q21 -55 43 -169q32 -164 47 -215q17 -57 41 -100q8 3 15 20q28 62 49 157q49 218 75 351q22 112 46 166l8 16t8 19q5 16 19 17q19 2 28 -12q9 -15 12 -33q9 -48 9 -98q0 -34 -4 -70q-13 -104 -42 -259q-25 -133 -39 -193q-31 -125 -77 -196 q-12 -19 -24 -31q-20 -20 -42 -20q-19 0 -40 16q-24 19 -47 58q-1 2 -2.5 5.5t-3 5.5t-4 4.5t-5.5 3.5q-18 7 -34 21.5t-24.5 26.5t-21.5 33q-32 53 -57 140q-2 7 -6 19.5t-5 17.5q-10 -11 -16 -36q-41 -158 -56 -209q-21 -76 -47 -114q-17 -23 -35.5 -23.5t-33.5 23.5 q-9 14 -23 44q-13 27 -38 33q-26 6 -46 37q-41 66 -71 155q-21 64 -36 127q-5 24 -14 71t-10 53q-13 68 -20 182z" />
<glyph unicode="x" horiz-adv-x="700" d="M18 785q-12 31 21 38q11 3 40 7q4 1 9 1q28 0 54 -28q12 -13 25 -33q110 -168 119 -183q4 -6 12 -20t12 -20q7 -13 13 -12.5t14 13.5q3 6 9.5 17t10.5 16q9 14 63.5 97t85.5 125q34 50 40 57q25 31 75 31q12 0 25 -2q18 -3 30 -28q9 -21 9 -46q0 -33 -16 -74 q-46 -121 -163 -329q-39 -69 -52 -88t-2 -41q55 -107 72 -133q10 -14 33 -39.5t33 -38.5q2 -3 14 -8q35 -13 35 -43q0 -10 -4 -22q-16 -49 -54 -61q-10 -3 -21 -3q-28 0 -59 23q-31 24 -50 55q-10 16 -20 34q-9 17 -24 25q-25 13 -51 36q-14 13 -18 12.5t-14 -16.5 q-16 -27 -50 -79q-24 -39 -76 -80q-10 -8 -15 -6.5t-10 12.5q-5 13 -8.5 19t-11.5 13t-20 8q-13 1 -18 26q-6 32 -8 53q0 59 34 131q28 58 65 128q10 20 0 41q-71 151 -160 346q-10 23 -28 69z" />
<glyph unicode="y" horiz-adv-x="829" d="M15 571q-1 24 -1 46q0 49 6 86q1 7 3 19t3.5 22t2.5 19q1 14 8 29q17 40 61 40h19h4q33 0 45 -34q7 -19 11.5 -43t6 -36.5t4.5 -47t3 -39.5q14 -174 60 -294q36 -93 76 -149q1 -1 8.5 -16.5t15.5 -21.5q13 7 16 15q28 71 35 89q6 18 10 26q13 26 55 153q7 21 21 62.5 t21 61.5q9 27 24.5 83t25.5 83q3 9 7.5 26.5t7.5 26.5q7 22 17.5 33t30.5 10q9 0 13 5q6 8 24 6q10 -2 21 1q12 1 16.5 2t15 -3t14 -6t13.5 -7.5t13 -7.5q1 -1 4 -13q6 -18 10 -38t7.5 -46.5t5.5 -38.5q35 -213 35 -486v-30q-2 -251 -19 -452q-12 -126 -33 -193 q-30 -93 -85 -136q-46 -35 -98 -35q-39 0 -81 20q-69 34 -117 99q-19 25 -40 41q-24 18 -39 40q-20 28 -20 58q0 8 2 17q4 22 15 24q27 6 37 -10q10 -18 22 -32.5t31.5 -27.5t29.5 -19.5t36.5 -20t33.5 -17.5q16 -9 31 -9q28 0 50 33q19 30 31 73q18 67 27 171q3 36 6.5 102 t4.5 82q2 28 3.5 90.5t4.5 95.5q2 15 -5 25q-23 -60 -25 -64q-48 -119 -70 -153q-33 -50 -48 -68q-20 -23 -48.5 -28t-56.5 9q-47 24 -80 71q-21 29 -42 65q-7 12 -20 18q-63 31 -106 100q-32 53 -57 100q-13 26 -41 116q-3 11 -22 97q-6 32 -11 131z" />
<glyph unicode="z" horiz-adv-x="847" d="M23 179q28 62 92 136q28 33 80 79q18 16 50 46t45 42q23 21 70.5 63.5t70.5 63.5q18 18 20 25q-97 -5 -106 -6q-30 -2 -58 -2q-60 0 -112 10q-24 4 -44 16q-26 15 -34 38q-13 42 -50 50q-20 4 -20 17q-1 15 18 25q24 11 44 12q14 0 25 -6q20 -10 52 -4q25 4 71.5 12.5 t84.5 15t72 11.5q141 21 242 21q44 0 80 -4q32 -4 86 -36q5 -3 7 -17q2 -22 10 -40q12 -25 12 -52q0 -32 -17 -68q-31 -65 -113 -141q-16 -15 -64.5 -61.5t-75.5 -71.5q-23 -21 -68 -59.5t-62 -53.5q-5 -4 -23.5 -19.5t-30 -26.5t-20.5 -24q-1 -2 -3.5 -6t-5.5 -8 q15 1 47.5 3.5t49.5 3.5q28 1 83 1t82 1l138 3q4 0 14 0.5t14 0.5q28 0 35 -6.5t19 -36.5q6 -15 -2 -31.5t-25 -25.5q-82 -44 -109 -54q-13 -5 -36.5 -17t-27.5 -14q-107 -53 -205 -69q-61 -10 -108 -10q-30 0 -54 4q-30 5 -50 14q-40 17 -46 57q-4 22 -30 61q-13 19 -56 37 q-4 2 -13 5t-13 5q-41 19 -41 54q0 17 9 37z" />
<glyph unicode="{" horiz-adv-x="780" d="M30.5 698q-0.5 12 12.5 30q17 24 50 42q60 33 104 68q38 30 58 82q18 47 29 131q2 13 6.5 51t7 57t8 49t12.5 54q19 62 64 128q49 70 87 111q65 70 132 97q30 12 62 12q35 0 43 -35q5 -24 -13 -33q-49 -24 -106 -103q-51 -69 -88 -146q-36 -75 -39 -165q-4 -157 -7 -232 q-3 -82 -32 -145q-21 -45 -37 -68q-12 -16 -11.5 -23t13.5 -22q19 -20 78 -103q34 -46 49 -139q8 -51 1 -96q-17 -113 54 -217q25 -34 45 -49q68 -50 106 -70q25 -13 29.5 -45.5t-14.5 -52.5q-14 -15 -41 -10q-112 24 -172 111q-18 27 -43 46q-66 49 -114 149 q-28 58 -31 139q-1 22 8 79q11 72 -51 148q-2 3 -8 9t-8 9q-15 20 -37 12q-52 -18 -91 11q-16 12 -20 25q-15 48 -51 55q-12 2 -29 21q-15 16 -15.5 28z" />
<glyph unicode="|" horiz-adv-x="190" d="M31 405v36v42.5v36.5q0 63 4 187q1 27 3.5 111t4.5 130q10 238 13 283q14 219 20 282q5 63 14 105q4 18 9 23q12 12 21 5q9 -6 9 -31q-2 -50 2.5 -141.5t4.5 -128.5q0 -8 4 -192q1 -145 7 -383q1 -35 2.5 -105.5t2.5 -106.5q7 -235 7 -602q0 -14 -2 -39t-2 -33 q-1 -17 -17 -59q-3 -7 -7.5 -8.5t-9 2t-6.5 11.5q-2 5 -4 19q-4 16 -6.5 23t-8 16t-13.5 13q-2 1 -17 16q-22 20 -23 61q-1 34 -5 103t-5 104q-4 146 -2 220z" />
<glyph unicode="}" horiz-adv-x="780" d="M31 -81.5q5 32.5 30 45.5q38 20 106 70q20 15 45 49q70 103 53 217q-7 42 2 96q15 93 49 139q59 83 78 103q13 15 13.5 22t-11.5 23q-16 23 -37 68q-29 63 -32 144q-3 73 -7 233q-3 90 -39 165q-37 77 -88 146q-57 79 -106 103q-18 9 -13 33q8 35 43 35q32 0 62 -12 q67 -27 132 -97q38 -41 87 -111q45 -66 64 -128q7 -24 12.5 -54t8 -49t7 -57t6.5 -51q11 -84 29 -131q20 -52 58 -82q44 -35 104 -68q33 -18 50 -42q13 -18 12.5 -30t-15.5 -28q-17 -19 -29 -21q-36 -7 -51 -55q-4 -13 -20 -25q-39 -29 -91 -11q-22 8 -37 -12q-3 -3 -8.5 -9 t-7.5 -9q-62 -76 -51 -149q8 -52 7 -78q-3 -83 -30 -139q-48 -100 -114 -149q-25 -19 -43 -46q-58 -87 -172 -111q-27 -5 -41 10q-20 20 -15 52.5z" />
<glyph unicode="~" horiz-adv-x="710" d="M31 727q9 29 17 47t24 38t39 31q41 20 86 18q41 2 104 -20q78 -27 139 -66q9 -6 27.5 -14.5t23.5 -11.5q18 -10 34 0q17 10 55.5 25t56.5 26q19 12 32 0q14 -12 9 -31q-30 -110 -114 -155q-43 -23 -99 2q-19 8 -88 46q-122 67 -156 80q-36 14 -61 7t-49 -37 q-5 -5 -12.5 -16t-12.5 -17q-12 -14 -17 2q-7 20 -27 28q-15 6 -11 18z" />
<glyph unicode="&#xa1;" horiz-adv-x="483" d="M102 313q0 149 8 264q1 20 5 55q2 21 5 59t6 69t7 59q2 21 11.5 59.5t10.5 45.5q20 100 22 134q2 21 11 36q7 11 15 10q6 -1 10 -12q5 -13 10 -22q12 -23 32 -24q14 -1 19 -17q41 -111 59 -182q26 -104 27 -110q6 -33 6 -68q0 -44 6 -130q2 -26 2 -74.5v-59.5 q0 -15 -4 -46t-3 -47q1 -49 -2 -109q0 -12 -3 -41.5t-3 -45.5q0 -25 -4 -70t-5 -62q-2 -47 -11 -76q-14 -44 -51 -50q-38 -8 -46 -7q-3 0 -20.5 -2t-21.5 2q-42 18 -53 53q-31 108 -38 264q-1 12 -4.5 65.5t-2.5 79.5zM154 1484v50q0 12 2 24t7 26t8 21t11 24.5t10 21.5 q5 12 17 11q13 -2 16 -13q5 -18 11 -28q8 -14 18 -16q21 -5 48 -36q33 -39 58 -87q19 -38 19 -65q0 -5 1.5 -28t-0.5 -28q-3 -24 -31 -54q-7 -7 -20 -7t-16 -3q-11 -15 -31 -6q-7 2 -11 1.5t-11 -2.5t-10 -2q-31 -2 -42 13q-3 4 -15 7t-14 11q-1 4 -2.5 16.5t-4.5 18.5 q-22 50 -18 130z" />
<glyph unicode="&#xa2;" horiz-adv-x="897" d="M103 639q3 81 27 171q6 23 26 69q29 70 73 129q55 73 120 117q33 22 62 33q15 5 16 22q7 93 18 187q8 76 22 112q8 22 29 23q12 1 19 -8t2 -19q-7 -13 -7 -40q-2 -75 0 -224q0 -13 2 -15t15 0q9 1 27 3.5t27 3.5q65 6 123 -19q30 -13 44 -46.5t1 -63.5q-3 -5 -6.5 -16.5 t-6.5 -17.5l-2 -1l-2 -1q-21 13 -21 40q0 16 -3.5 19.5t-20.5 3.5q-41 0 -100 -22q-12 -5 -33.5 -16.5t-30.5 -15.5q-10 -5 -10 -22q0 -23 0.5 -68.5t0.5 -67.5q0 -58 -2 -174.5t-2 -174.5v-54q19 6 45 24q10 7 28.5 18.5t33 22t25.5 22.5q10 10 34 32t40.5 40t28.5 38 q11 18 33 12q14 -3 16 -24q1 -6 1 -40q3 -135 -104 -243q-52 -53 -124 -84q-22 -9 -46 -20q-10 -5 -10 -17q1 -20 2 -76t4 -86q5 -61 3 -81q0 -10 -4 -19t-11 -21t-9 -16t-5 -5t-9 -0.5t-7 0.5q-10 1 -12 13q0 7 -3 14t-7.5 16l-6.5 13q-7 19 -29 25q-38 13 -51 29 q-7 9 -7 15q-2 40 -1 59q3 42 2 76q0 4 1.5 15t0.5 17q-3 13 -11 16q-75 29 -107 110q-5 12 -18 17q-44 18 -73 55q-33 41 -41 85q-11 50 -9 101zM282 565q5 -67 48 -107q11 -10 24 -14q9 -2 11.5 -0.5t4.5 10.5q0 2 2 9t2 10q2 31 6 91t6 91q3 43 9.5 130t9.5 130 q2 17 -3 27q-36 -46 -63 -101q-28 -56 -43 -133q-17 -90 -14 -143z" />
<glyph unicode="&#xa5;" horiz-adv-x="972" d="M104 1277q-2 12 1 17t14 8q30 7 42.5 2t27.5 -28q20 -29 44 -73q72 -129 135 -199q22 -25 65 -68t59 -61q5 -5 8 -6t5 1t5 8q56 113 63 127q24 54 26 60q1 1 2 4t2 4q17 31 46.5 90.5t33.5 67.5q9 17 26 57t28 60l17 34q16 36 72 36q25 0 37 -26q14 -32 2 -75 q-14 -54 -20 -81q-6 -25 0 -38t-7 -26q-11 -10 -17 -33q-33 -117 -72 -206q-8 -19 -28 -72t-34 -81q4 -5 15 -5q22 0 62 -14q26 -9 33 -36t-7 -47q-28 -44 -64 -56q-11 -4 -38 -14.5t-42 -14.5q-3 -1 -8.5 -2.5t-8.5 -2.5t-9 -1t-10 -1.5t-6 -5.5q-3 -8 -1 -39q1 -6 14 -6 q10 0 29.5 0.5t29.5 0.5q55 1 138 -31q10 -4 16 -18t1 -25q-5 -12 -19 -23q-62 -46 -148 -56q-4 -1 -21 -4t-26 -3q-12 0 -14 -13q-2 -12 -2 -18q-6 -101 -20 -160q-1 -5 -4 -33q-2 -28 -27 -66q-4 -7 -13 -12q-7 -5 -14 -2.5t-8 10.5q-1 5 -5.5 13t-5.5 11q-4 9 -15 14 q-30 12 -52.5 44.5t-23.5 64.5q-2 54 -6 81q-1 5 0.5 22t-2.5 22q-82 -2 -143 -16l-12 -3q-16 -3 -21 10q-1 3 -4 8.5t-4 7.5q-5 16 -24 24q-24 10 -25.5 18t16.5 27t62 37t151 41q19 3 20 8q6 17 3 30q-2 7 -8 7q-5 0 -17 -2q-21 -5 -62.5 -7t-61.5 -6q-18 -3 -22 15 q-7 28 -32 35q-1 0 -1 0.5t-1 0.5q-25 16 -27 23.5t19 32.5q20 21 66 42q6 3 146 56q-3 6 -7 11t-10 10t-8 8q-92 102 -158 191q-56 75 -84 147q-35 86 -52 167z" />
<glyph unicode="&#xab;" horiz-adv-x="858" d="M103 524.5q-3 5.5 12 19.5q20 20 32 29q14 11 20 21q52 88 192 177q41 25 86 56q26 18 41 11q23 -10 29 -23t-21 -40q-52 -50 -90 -80q-94 -75 -105 -82q-71 -48 -102 -64q-34 -14 -38 -16q10 -4 20 -10q14 -7 26 -10q100 -18 231 -106q44 -29 80 -52q24 -16 22 -29 q-3 -20 -15 -28t-45 6q-61 26 -105 50q-86 47 -111 62q-75 48 -93 63q-36 34 -43 44q-20 -4 -23 1.5zM320.5 524.5q-3.5 5.5 11.5 19.5q17 17 33 29q14 11 20 21q52 88 192 177q10 6 86 56q26 18 41 11q23 -10 29 -23t-21 -40q-52 -50 -90 -80q-94 -75 -105 -82 q-71 -48 -102 -64q-34 -14 -38 -16q10 -4 20 -10q14 -7 26 -10q100 -18 231 -106q44 -29 80 -52q24 -16 22 -29q-3 -20 -15 -28t-45 6q-61 26 -105 50q-86 47 -111 62q-75 48 -93 63q-36 34 -43 44q-20 -4 -23.5 1.5z" />
<glyph unicode="&#xad;" horiz-adv-x="0" />
<glyph unicode="&#xb7;" horiz-adv-x="225" d="M33 557q20 64 94 65q41 3 58 -38q11 -21 8 -47t-10 -43.5t-22 -41.5q-5 -8 -16 -15q-26 -14 -38 12q-3 6 -7 18q-8 23 -29 27q-16 4 -27 17q-19 21 -11 46z" />
<glyph unicode="&#xbb;" horiz-adv-x="858" d="M102 808q3 20 15 28t46 -6q61 -26 105 -50q86 -47 111 -62q75 -48 93 -63q36 -34 43 -44q20 4 23 -1.5t-12 -19.5q-17 -17 -33 -29q-13 -10 -19 -21q-53 -90 -192 -178q-58 -36 -86 -55q-26 -18 -41 -11q-23 10 -29 23t21 40q56 54 89 80q89 71 106 82q71 48 102 64 q34 14 38 16q-10 4 -20 10q-13 7 -27 10q-100 18 -231 106q-44 29 -80 52q-24 16 -22 29zM320 808q3 20 15 28t46 -6q61 -26 105 -50q86 -47 111 -62q75 -48 93 -63q36 -34 43 -44q20 4 23 -1.5t-12 -19.5q-17 -17 -33 -29q-13 -10 -19 -21q-53 -89 -193 -178 q-46 -29 -85 -55q-26 -18 -42 -11q-21 10 -28 23q-6 13 21 40q56 54 89 80q89 71 106 82q71 48 102 64q34 14 38 16q-10 4 -20 10q-13 7 -27 10q-102 19 -231 105q-71 47 -80 53q-24 16 -22 29z" />
<glyph unicode="&#xbf;" horiz-adv-x="1056" d="M106 90q-8 67 5 146q21 121 105 295q100 208 110 232q59 142 55 263q-1 33 6 66q8 38 3 57q-4 15 4 30q8 16 21.5 18.5t25.5 -10.5q9 -9 10 -17q4 -26 41 -48q40 -23 83 -87q8 -12 30 -52q6 -11 16 -64q9 -50 -1 -115q-13 -78 -30 -122q-26 -68 -49 -119 q-4 -10 -114 -229q-21 -44 -64 -178q-17 -55 -17 -121q0 -24 23 -29q38 -8 86 -3q103 12 166 45q85 44 128 115q25 43 22 95q-4 60 -41 119q-33 53 -99 61q-22 2 -30 16t0 34q18 43 62 49q57 6 91 -37q14 -18 31 -36t40.5 -41t34.5 -34q65 -68 89 -183q13 -64 -9 -133 q-56 -172 -226 -245q-132 -57 -253 -56q-147 -3 -251 79q-50 40 -64 84q-34 108 -40 155zM440 1499q-4 38 26 80q10 14 22 12q19 -3 23 -18q3 -10 10 -26.5t9 -21.5q10 -26 39 -37q43 -18 65 -40q29 -29 19 -69.5t-49 -52.5q-24 -8 -56 -13q-3 -3 -13.5 -0.5t-13 1.5t-12 3 t-11.5 5t-11.5 5.5t-11.5 5.5q-4 2 -6 10q-17 65 -27 126q-1 6 -1.5 16.5t-0.5 13.5z" />
<glyph unicode="&#xc0;" horiz-adv-x="1243" d="M106 538q11 15 28 21q33 12 126 32q1 1 3.5 1h4.5q24 5 30.5 12.5t10.5 34.5q2 10 20 79q30 114 33 122q46 160 71 239q9 28 25.5 84t25.5 84q25 78 49 119q4 8 6 21q1 24 28 33q17 6 52 8q28 1 53 -25q102 -112 177 -268q6 -13 16.5 -36.5t19.5 -42.5t18 -35 q10 -18 19 -48q6 -18 18.5 -52t16.5 -47q24 -76 39 -114q14 -38 18 -58q7 -30 32 -35q8 -2 21 -11.5t22 -11.5q4 -1 7 -17q2 -20 18 -60q22 -53 -8 -101q-23 -36 -15 -72q8 -37 15.5 -78.5t15.5 -95t12 -79.5q2 -11 3.5 -32.5t2.5 -30.5q3 -22 -3 -45.5t-14 -39t-22 -39.5 q-9 -15 -20 -17q-5 -1 -15.5 0.5t-15.5 1.5q-7 0 -10 16q-3 13 -8.5 26.5t-13 29.5t-11.5 25q-12 29 -38 31q-8 1 -15 5t-15.5 11t-13.5 10t-58 42q-30 21 -38 74q-2 13 -9.5 43.5t-8.5 47.5q0 9 -5.5 27t-4.5 29q0 5 -14 36q-3 6 -14 6h-25q-29 -2 -87 -5t-87 -5 q-14 -1 -41 -1q-15 0 -18 -16q-32 -164 -49 -246q-19 -97 -22 -137q-1 -12 -6.5 -24t-14.5 -27t-13 -23q-3 -6 -8 0.5t-9 1.5q-6 -7 -20 -5q-10 2 -14 21q-6 33 -20 44q-2 1 -4 10q-8 47 -52 56q-8 2 -11 7q-7 13 -22 11q-10 0 -18 4t-18 12t-14 11q-3 2 -1 12 q25 127 38 181q3 11 9.5 49t12.5 58q5 19 -13 22l-24 6q-20 6 -27 27q-13 43 -55 72q-5 3 -15 4t-14 3q-13 7 -5 17zM460 1674q2 2 8 0q28 -7 43 4q8 6 24 1q30 -10 61 -24q48 -23 89 -45q46 -27 61 -36q36 -23 38 -45q2 -19 -12.5 -28t-37.5 -3l-12 3q-19 6 -41 20 q-24 14 -50.5 30.5t-58.5 37t-50 31.5q-34 22 -54 39q-8 8 -8 15zM568 647.5q2 -2.5 16 -1.5q18 1 58.5 7t61.5 7q1 0 16 6q9 4 5 11q-4 8 -5 24t-3 23q-25 71 -28 106q0 7 -3 13q-10 21 -18.5 62t-12.5 53q-3 9 -18 67q-1 -1 -2 -1h-2q-13 -96 -16 -112q-7 -36 -15 -77 t-18 -91.5t-15 -77.5q-3 -16 -1 -18.5z" />
<glyph unicode="&#xc1;" horiz-adv-x="1243" d="M106 538q11 15 28 21q33 12 126 32q1 1 3.5 1h4.5q24 5 30.5 12.5t10.5 34.5q2 10 20 79q30 114 33 122q46 160 71 239q9 28 25.5 84t25.5 84q25 78 49 119q4 8 6 21q1 24 28 33q17 6 52 8q28 1 53 -25q102 -112 177 -268q6 -13 16.5 -36.5t19.5 -42.5t18 -35 q10 -18 19 -48q6 -18 18.5 -52t16.5 -47q24 -76 39 -114q14 -38 18 -58q7 -30 32 -35q8 -2 21 -11.5t22 -11.5q4 -1 7 -17q2 -20 18 -60q22 -53 -8 -101q-23 -36 -15 -72q8 -37 15.5 -78.5t15.5 -95t12 -79.5q2 -11 3.5 -32.5t2.5 -30.5q3 -22 -3 -45.5t-14 -39t-22 -39.5 q-9 -15 -20 -17q-5 -1 -15.5 0.5t-15.5 1.5q-7 0 -10 16q-3 13 -8.5 26.5t-13 29.5t-11.5 25q-12 29 -38 31q-8 1 -15 5t-15.5 11t-13.5 10t-58 42q-30 21 -38 74q-2 13 -9.5 43.5t-8.5 47.5q0 9 -5.5 27t-4.5 29q0 5 -14 36q-3 6 -14 6h-25q-29 -2 -87 -5t-87 -5 q-14 -1 -41 -1q-15 0 -18 -16q-32 -164 -49 -246q-19 -97 -22 -137q-1 -12 -6.5 -24t-14.5 -27t-13 -23q-3 -6 -8 0.5t-9 1.5q-6 -7 -20 -5q-10 2 -14 21q-6 33 -20 44q-2 1 -4 10q-8 47 -52 56q-8 2 -11 7q-7 13 -22 11q-10 0 -18 4t-18 12t-14 11q-3 2 -1 12 q25 127 38 181q3 11 9.5 49t12.5 58q5 19 -13 22l-24 6q-20 6 -27 27q-13 43 -55 72q-5 3 -15 4t-14 3q-13 7 -5 17zM462 1526q2 22 36 45q24 16 60 38q35 20 88 47q28 14 61 25q16 5 24 0q14 -10 43 -3q4 1 8 0q0 -7 -8 -15q-25 -23 -53 -41q-144 -94 -157 -102 q-26 -16 -40 -21q-2 -1 -6 -2.5t-6 -1.5q-23 -6 -37.5 3t-12.5 28zM568 647.5q2 -2.5 16 -1.5q18 1 58.5 7t61.5 7q1 0 16 6q9 4 5 11q-4 8 -5 24t-3 23q-25 71 -28 106q0 7 -3 13q-10 21 -18.5 62t-12.5 53q-3 9 -18 67q-1 -1 -2 -1h-2q-13 -96 -16 -112q-7 -36 -15 -77 t-18 -91.5t-15 -77.5q-3 -16 -1 -18.5z" />
<glyph unicode="&#xc2;" horiz-adv-x="1243" d="M106 538q11 15 28 21q33 12 126 32q1 1 3.5 1h4.5q24 5 30.5 12.5t10.5 34.5q2 10 20 79q30 114 33 122q46 160 71 239q9 28 25.5 84t25.5 84q25 78 49 119q4 8 6 21q1 24 28 33q17 6 52 8q28 1 53 -25q102 -112 177 -268q6 -13 16.5 -36.5t19.5 -42.5t18 -35 q10 -18 19 -48q6 -18 18.5 -52t16.5 -47q24 -76 39 -114q14 -38 18 -58q7 -30 32 -35q8 -2 21 -11.5t22 -11.5q4 -1 7 -17q2 -20 18 -60q22 -53 -8 -101q-23 -36 -15 -72q8 -37 15.5 -78.5t15.5 -95t12 -79.5q2 -11 3.5 -32.5t2.5 -30.5q3 -22 -3 -45.5t-14 -39t-22 -39.5 q-9 -15 -20 -17q-5 -1 -15.5 0.5t-15.5 1.5q-7 0 -10 16q-3 13 -8.5 26.5t-13 29.5t-11.5 25q-12 29 -38 31q-8 1 -15 5t-15.5 11t-13.5 10t-58 42q-30 21 -38 74q-2 13 -9.5 43.5t-8.5 47.5q0 9 -5.5 27t-4.5 29q0 5 -14 36q-3 6 -14 6h-25q-29 -2 -87 -5t-87 -5 q-14 -1 -41 -1q-15 0 -18 -16q-32 -164 -49 -246q-19 -97 -22 -137q-1 -12 -6.5 -24t-14.5 -27t-13 -23q-3 -6 -8 0.5t-9 1.5q-6 -7 -20 -5q-10 2 -14 21q-6 33 -20 44q-2 1 -4 10q-8 47 -52 56q-8 2 -11 7q-7 13 -22 11q-10 0 -18 4t-18 12t-14 11q-3 2 -1 12 q25 127 38 181q3 11 9.5 49t12.5 58q5 19 -13 22l-24 6q-20 6 -27 27q-13 43 -55 72q-5 3 -15 4t-14 3q-13 7 -5 17zM480 1547q4 17 10 27q7 11 20 34.5t19 35.5q14 26 18 32q4 7 13 19t11 16q8 13 27 16q19 2 25 1q15 -4 23 -18q9 -17 18 -40q6 -17 17.5 -49.5t17.5 -48.5 q2 -5 5.5 -18.5t6.5 -19.5q4 -8 -6 -20q-6 -8 -12 1q-1 1 -2 2.5t-1 2.5q-5 10 -16 11q-12 2 -21 15q-9 14 -21 44q-4 8 -10.5 25t-9.5 26q-1 1 -3 2q-16 -21 -21 -28q-13 -19 -58 -75l-12 -15q-6 -8 -12 1q-7 11 -18 12q-10 1 -8 9zM568 647.5q2 -2.5 16 -1.5q18 1 58.5 7 t61.5 7q1 0 16 6q9 4 5 11q-4 8 -5 24t-3 23q-25 71 -28 106q0 7 -3 13q-10 21 -18.5 62t-12.5 53q-3 9 -18 67q-1 -1 -2 -1h-2q-13 -96 -16 -112q-7 -36 -15 -77t-18 -91.5t-15 -77.5q-3 -16 -1 -18.5z" />
<glyph unicode="&#xc3;" horiz-adv-x="1243" d="M106 538q11 15 28 21q33 12 126 32q1 1 3.5 1h4.5q24 5 30.5 12.5t10.5 34.5q2 10 20 79q30 114 33 122q46 160 71 239q9 28 25.5 84t25.5 84q25 78 49 119q4 8 6 21q1 24 28 33q17 6 52 8q28 1 53 -25q102 -112 177 -268q6 -13 16.5 -36.5t19.5 -42.5t18 -35 q10 -18 19 -48q6 -18 18.5 -52t16.5 -47q24 -76 39 -114q14 -38 18 -58q7 -30 32 -35q8 -2 21 -11.5t22 -11.5q4 -1 7 -17q2 -20 18 -60q22 -53 -8 -101q-23 -36 -15 -72q8 -37 15.5 -78.5t15.5 -95t12 -79.5q2 -11 3.5 -32.5t2.5 -30.5q3 -22 -3 -45.5t-14 -39t-22 -39.5 q-9 -15 -20 -17q-5 -1 -15.5 0.5t-15.5 1.5q-7 0 -10 16q-3 13 -8.5 26.5t-13 29.5t-11.5 25q-12 29 -38 31q-8 1 -15 5t-15.5 11t-13.5 10t-58 42q-30 21 -38 74q-2 13 -9.5 43.5t-8.5 47.5q0 9 -5.5 27t-4.5 29q0 5 -14 36q-3 6 -14 6h-25q-29 -2 -87 -5t-87 -5 q-14 -1 -41 -1q-15 0 -18 -16q-32 -164 -49 -246q-19 -97 -22 -137q-1 -12 -6.5 -24t-14.5 -27t-13 -23q-3 -6 -8 0.5t-9 1.5q-6 -7 -20 -5q-10 2 -14 21q-6 33 -20 44q-2 1 -4 10q-8 47 -52 56q-8 2 -11 7q-7 13 -22 11q-10 0 -18 4t-18 12t-14 11q-3 2 -1 12 q25 127 38 181q3 11 9.5 49t12.5 58q5 19 -13 22l-24 6q-20 6 -27 27q-13 43 -55 72q-5 3 -15 4t-14 3q-13 7 -5 17zM471 1582q4 27 31 44q38 24 80 10q76 -26 97 -34q14 -5 27 2q6 4 22 9.5t23 10.5q9 5 15 1t7 -15q1 -39 -30 -69q-17 -16 -39.5 -16.5t-37.5 10.5 q-51 31 -92 46q-21 8 -43 -2.5t-29 -31.5q-6 -15 -8 -17q-2 4 -7.5 9.5l-6.5 6.5q-12 14 -9 36zM568 647.5q2 -2.5 16 -1.5q18 1 58.5 7t61.5 7q1 0 16 6q9 4 5 11q-4 8 -5 24t-3 23q-25 71 -28 106q0 7 -3 13q-10 21 -18.5 62t-12.5 53q-3 9 -18 67q-1 -1 -2 -1h-2 q-13 -96 -16 -112q-7 -36 -15 -77t-18 -91.5t-15 -77.5q-3 -16 -1 -18.5z" />
<glyph unicode="&#xc4;" horiz-adv-x="1243" d="M106 538q11 15 28 21q33 12 126 32q1 1 3.5 1h4.5q24 5 30.5 12.5t10.5 34.5q2 10 20 79q30 114 33 122q46 160 71 239q9 28 25.5 84t25.5 84q25 78 49 119q4 8 6 21q1 24 28 33q17 6 52 8q28 1 53 -25q102 -112 177 -268q6 -13 16.5 -36.5t19.5 -42.5t18 -35 q10 -18 19 -48q6 -18 18.5 -52t16.5 -47q24 -76 39 -114q14 -38 18 -58q7 -30 32 -35q8 -2 21 -11.5t22 -11.5q4 -1 7 -17q2 -20 18 -60q22 -53 -8 -101q-23 -36 -15 -72q8 -37 15.5 -78.5t15.5 -95t12 -79.5q2 -11 3.5 -32.5t2.5 -30.5q3 -22 -3 -45.5t-14 -39t-22 -39.5 q-9 -15 -20 -17q-5 -1 -15.5 0.5t-15.5 1.5q-7 0 -10 16q-3 13 -8.5 26.5t-13 29.5t-11.5 25q-12 29 -38 31q-8 1 -15 5t-15.5 11t-13.5 10t-58 42q-30 21 -38 74q-2 13 -9.5 43.5t-8.5 47.5q0 9 -5.5 27t-4.5 29q0 5 -14 36q-3 6 -14 6h-25q-29 -2 -87 -5t-87 -5 q-14 -1 -41 -1q-15 0 -18 -16q-32 -164 -49 -246q-19 -97 -22 -137q-1 -12 -6.5 -24t-14.5 -27t-13 -23q-3 -6 -8 0.5t-9 1.5q-6 -7 -20 -5q-10 2 -14 21q-6 33 -20 44q-2 1 -4 10q-8 47 -52 56q-8 2 -11 7q-7 13 -22 11q-10 0 -18 4t-18 12t-14 11q-3 2 -1 12 q25 127 38 181q3 11 9.5 49t12.5 58q5 19 -13 22l-24 6q-20 6 -27 27q-13 43 -55 72q-5 3 -15 4t-14 3q-13 7 -5 17zM480 1599q10 35 32 52q23 17 52 9q13 -3 16 -17q0 -4 4 -12t3 -13t-3.5 -19.5t-6 -24.5t-8.5 -19q-7 -13 -35 -19q-8 -1 -12 10q-8 29 -33 34q-13 3 -9 19z M568 647.5q2 -2.5 16 -1.5q18 1 58.5 7t61.5 7q1 0 16 6q9 4 5 11q-4 8 -5 24t-3 23q-25 71 -28 106q0 7 -3 13q-10 21 -18.5 62t-12.5 53q-3 9 -18 67q-1 -1 -2 -1h-2q-13 -96 -16 -112q-7 -36 -15 -77t-18 -91.5t-15 -77.5q-3 -16 -1 -18.5zM623 1599q10 35 32 52 q23 17 51 9q13 -3 16 -17q0 -4 4 -12t3 -13q-1 -6 -3.5 -20t-5.5 -24t-8 -19q-7 -13 -35 -19q-9 -2 -13 10q-8 29 -33 34q-12 3 -8 19z" />
<glyph unicode="&#xc5;" horiz-adv-x="1243" d="M106 538q11 15 28 21q33 12 126 32q1 1 3.5 1h4.5q24 5 30.5 12.5t10.5 34.5q2 10 20 79q30 114 33 122q46 160 71 239q9 28 25.5 84t25.5 84q25 78 49 119q4 8 6 21q1 24 28 33q17 6 52 8q28 1 53 -25q102 -112 177 -268q6 -13 16.5 -36.5t19.5 -42.5t18 -35 q10 -18 19 -48q6 -18 18.5 -52t16.5 -47q24 -76 39 -114q14 -38 18 -58q7 -30 32 -35q8 -2 21 -11.5t22 -11.5q4 -1 7 -17q2 -20 18 -60q22 -53 -8 -101q-23 -36 -15 -72q8 -37 15.5 -78.5t15.5 -95t12 -79.5q2 -11 3.5 -32.5t2.5 -30.5q3 -22 -3 -45.5t-14 -39t-22 -39.5 q-9 -15 -20 -17q-5 -1 -15.5 0.5t-15.5 1.5q-7 0 -10 16q-3 13 -8.5 26.5t-13 29.5t-11.5 25q-12 29 -38 31q-8 1 -15 5t-15.5 11t-13.5 10t-58 42q-30 21 -38 74q-2 13 -9.5 43.5t-8.5 47.5q0 9 -5.5 27t-4.5 29q0 5 -14 36q-3 6 -14 6h-25q-29 -2 -87 -5t-87 -5 q-14 -1 -41 -1q-15 0 -18 -16q-32 -164 -49 -246q-19 -97 -22 -137q-1 -12 -6.5 -24t-14.5 -27t-13 -23q-3 -6 -8 0.5t-9 1.5q-6 -7 -20 -5q-10 2 -14 21q-6 33 -20 44q-2 1 -4 10q-8 47 -52 56q-8 2 -11 7q-7 13 -22 11q-10 0 -18 4t-18 12t-14 11q-3 2 -1 12 q25 127 38 181q3 11 9.5 49t12.5 58q5 19 -13 22l-24 6q-20 6 -27 27q-13 43 -55 72q-5 3 -15 4t-14 3q-13 7 -5 17zM514 1612q0 26 12 49q2 5 23 36q7 12 20 16q17 7 32 7q19 0 37 -6q27 -9 35 -39q6 -27 -9 -60q-14 -32 -36 -52q-19 -17 -38 -21q-32 -5 -45 23q-2 5 -10 9 q-21 11 -21 38zM555 1606q-2 -14 10 -21q9 -6 22 3q23 16 37 42q10 18 11 34q0 7 -6 7h-20v1q-16 -2 -23 -2q-8 0 -13 -9q-13 -25 -18 -55zM568 647.5q2 -2.5 16 -1.5q18 1 58.5 7t61.5 7q1 0 16 6q9 4 5 11q-4 8 -5 24t-3 23q-25 71 -28 106q0 7 -3 13q-10 21 -18.5 62 t-12.5 53q-3 9 -18 67q-1 -1 -2 -1h-2q-13 -96 -16 -112q-7 -36 -15 -77t-18 -91.5t-15 -77.5q-3 -16 -1 -18.5z" />
<glyph unicode="&#xc6;" horiz-adv-x="1794" d="M106 538q11 15 28 21q33 12 126 32q1 1 3.5 1h4.5q24 5 30.5 12.5t10.5 34.5q2 10 20 79q30 114 33 122q46 160 71 239q9 28 25.5 84t25.5 84q25 78 49 119q4 8 6 21q1 24 28 33q17 6 52 8q28 1 53 -25q102 -112 177 -268q7 -14 19 -41t19 -41l1 2q40 44 115 110 q18 15 54 40t51 37q8 6 24.5 14.5t22.5 12.5q111 70 232 98q88 19 136 -12q20 -13 21 -28q1 -6 8 -23q13 -31 2.5 -62t-40.5 -50q-61 -37 -96 -63q-76 -58 -123 -99q-78 -69 -105 -98q-8 -8 -7 -15q42 12 124 36q84 24 148 27q54 2 85 -25q3 -3 5 -3q17 -1 22.5 -11t6.5 -28 q1 -14 13 -40q30 -64 -8 -131q-6 -11 -13.5 -21.5t-18.5 -22.5t-16 -17.5t-20.5 -20t-18.5 -17.5q-41 -40 -150 -167l-81 -102q-7 -9 -7 -14q5 -5 15 1q70 38 142 66q25 10 138 37q55 14 71 20q4 2 16 4q10 3 23 2.5t20 -10.5q21 -32 6 -55q-25 -39 -85 -109 q-56 -64 -179 -146q-131 -87 -162 -105q-82 -46 -126 -50q-8 -21 -32 -61q-9 -15 -20 -17q-5 -1 -15.5 0.5t-15.5 1.5q-7 0 -10 16q-3 13 -8.5 26.5t-13 29.5t-11.5 25q-12 29 -38 31q-8 1 -15 5t-15.5 11t-13.5 10t-58 42q-30 21 -38 74q-2 13 -9.5 43.5t-8.5 47.5 q0 9 -5.5 27t-4.5 29q0 5 -14 36q-3 6 -14 6h-25q-29 -2 -87 -5t-87 -5q-14 -1 -41 -1q-15 0 -18 -16q-32 -164 -49 -246q-19 -97 -22 -137q-1 -12 -6.5 -24t-14.5 -27t-13 -23q-3 -6 -8 0.5t-9 1.5q-6 -7 -20 -5q-10 2 -14 21q-6 33 -20 44q-2 1 -4 10q-8 47 -52 56 q-8 2 -11 7q-7 13 -22 11q-10 0 -18 4t-18 12t-14 11q-3 2 -1 12q25 127 38 181q3 11 9.5 49t12.5 58q5 19 -13 22l-24 6q-20 6 -27 27q-13 43 -55 72q-5 3 -15 4t-14 3q-13 7 -5 17zM568 647.5q2 -2.5 16 -1.5q18 1 58.5 7t61.5 7q1 0 16 6q9 4 5 11q-4 8 -5 24t-3 23 q-25 71 -28 106q0 7 -3 13q-10 21 -18.5 62t-12.5 53q-3 9 -18 67q-1 -1 -2 -1h-2q-13 -96 -16 -112q-7 -36 -15 -77t-18 -91.5t-15 -77.5q-3 -16 -1 -18.5z" />
<glyph unicode="&#xc7;" horiz-adv-x="997" d="M103 546q-1 9 2 31.5t1 34.5q-1 12 0.5 23t6.5 30t6 22q2 9 5 26t5 26q7 34 11 41q6 11 8.5 34t5.5 31q20 66 44 117q9 20 24.5 60t24.5 60q8 17 41 68q40 66 93 127q63 70 113 104q16 11 72 31q112 40 223 -14q56 -27 71 -79q20 -65 20 -111q0 -17 -12 -36 q-14 -20 -25 1q-2 2 -2 5q-10 32 -45.5 43t-63.5 0q-64 -19 -109 -82q-72 -102 -94 -148q-55 -113 -74 -187q-4 -14 -15 -54t-16 -62q-9 -39 -21 -124q-2 -12 -4 -36t-2 -26q-8 -82 31 -172q3 -5 7.5 -16t6.5 -17q19 -39 46 -6q6 7 18.5 17t16.5 14q14 14 118 123 q20 21 64 40q59 27 116 37q42 8 59 -7.5t15 -59.5q0 -2 -12 -94q-7 -52 -47 -119q-43 -73 -76 -114q-44 -55 -81 -75q-10 -6 -29 -19.5t-29 -19.5q-3 -1 -11 -6t-13 -7q-3 -7 -8.5 -20t-10 -23.5t-8.5 -19.5v-1l-1 -1q7 0 15 -3q23 -9 29 -32q0 -1 3 -23q3 -27 -3 -54 q-4 -16 -7 -24q-8 -22 -20 -36q-15 -19 -36 -16q-7 1 -12 -4q-4 -4 -6 -5q-16 -11 -33 -1q-15 9 -20 25q-3 12 -3 24q-1 14 11 38q1 2 4 5q9 7 16 1l3 -3q17 -24 19 -41q0 -2 2 -6.5t2 -5.5l1 -1q0 -2 2 -3l9 12q18 39 20 67q2 26 -2 44q-3 8 -4 9q-5 5 -9 0l-3 -3l-7 -7h-1 q-5 -5 -10 -5t-9 -3q-6 -3 -6 2q0 1 0.5 2t0.5 2t1 2t1 2h-1q-6 11 5 36q9 21 20 43q1 2 2.5 5.5t2.5 5.5q-17 -6 -35 -5q-94 7 -131 72q-21 35 -30 63q-15 45 -68 62q-63 20 -93 62q-29 40 -41 88q0 1 -0.5 6t-1.5 7q-6 9 -10.5 18.5t-8 21.5t-5 18.5t-5 22t-4.5 20.5 q-14 57 -10 105z" />
<glyph unicode="&#xc8;" horiz-adv-x="1103" d="M105 867.5q-7 23.5 5 55.5q14 43 60 98q26 32 28 34q40 44 115 110q18 15 54 40t51 37q8 6 24.5 14.5t22.5 12.5q111 70 232 98q88 19 136 -12q20 -13 21 -28q1 -6 8 -23q13 -31 2.5 -62t-40.5 -50q-61 -37 -96 -63q-76 -58 -123 -99q-78 -69 -105 -98q-8 -8 -7 -15 q42 12 124 36q84 24 148 27q54 2 85 -25q3 -3 5 -3q17 -1 22.5 -11t6.5 -28q1 -14 13 -40q30 -64 -8 -131q-18 -34 -86 -99q-48 -47 -151 -167l-81 -102q-7 -9 -7 -14q5 -5 15 1q70 38 142 66q25 10 138 37q55 14 71 20q4 2 16 4q10 3 23 2.5t20 -10.5q21 -32 6 -55 q-25 -39 -85 -109q-56 -64 -179 -146q-130 -87 -162 -105q-31 -17 -44.5 -24t-40.5 -16t-50 -10q-30 -1 -51 14t-29 43q-6 25 -16 34q-8 8 -10 22t-8 16q-9 4 -29.5 18.5t-34.5 17.5q-19 5 -33 13q-41 26 -39 65q2 48 37 110q53 94 102 161q5 7 55 76q-5 6 -27 16 q-46 17 -55 60q-3 16 -17.5 41t-17.5 39q-3 6 -5 7q-11 4 -31 17.5t-33 17.5q-26 7 -48 21q-32 20 -39 43.5zM381 1584q1 1 8 1q27 -3 42 11q7 6 23 3q44 -8 65 -14q51 -14 94 -31q39 -14 66 -27q38 -19 43 -39q5 -18 -7.5 -29.5t-36.5 -9.5q-4 0 -12 2q-21 4 -44 14 q-24 9 -171 74q-29 12 -60 32q-9 6 -10 13z" />
<glyph unicode="&#xc9;" horiz-adv-x="1103" d="M105 867.5q-7 23.5 5 55.5q14 43 60 98q26 32 28 34q40 44 115 110q18 15 54 40t51 37q8 6 24.5 14.5t22.5 12.5q111 70 232 98q88 19 136 -12q20 -13 21 -28q1 -6 8 -23q13 -31 2.5 -62t-40.5 -50q-61 -37 -96 -63q-76 -58 -123 -99q-78 -69 -105 -98q-8 -8 -7 -15 q42 12 124 36q84 24 148 27q54 2 85 -25q3 -3 5 -3q17 -1 22.5 -11t6.5 -28q1 -14 13 -40q30 -64 -8 -131q-18 -34 -86 -99q-48 -47 -151 -167l-81 -102q-7 -9 -7 -14q5 -5 15 1q70 38 142 66q25 10 138 37q55 14 71 20q4 2 16 4q10 3 23 2.5t20 -10.5q21 -32 6 -55 q-25 -39 -85 -109q-56 -64 -179 -146q-130 -87 -162 -105q-31 -17 -44.5 -24t-40.5 -16t-50 -10q-30 -1 -51 14t-29 43q-6 25 -16 34q-8 8 -10 22t-8 16q-9 4 -29.5 18.5t-34.5 17.5q-19 5 -33 13q-41 26 -39 65q2 48 37 110q53 94 102 161q5 7 55 76q-5 6 -27 16 q-46 17 -55 60q-3 16 -17.5 41t-17.5 39q-3 6 -5 7q-11 4 -31 17.5t-33 17.5q-26 7 -48 21q-32 20 -39 43.5zM392 1421q2 22 36 45q17 11 61 38q29 17 87 46q34 17 61 26q16 5 24 0q15 -11 43 -4q6 2 9 1q0 -6 -9 -15q-25 -23 -53 -41q-17 -11 -48.5 -32.5t-57.5 -38.5 t-50 -31q-25 -15 -41 -21q-2 -1 -6 -2.5t-6 -1.5q-23 -6 -37.5 3t-12.5 28z" />
<glyph unicode="&#xca;" horiz-adv-x="1103" d="M105 867.5q-7 23.5 5 55.5q14 43 60 98q26 32 28 34q40 44 115 110q18 15 54 40t51 37q8 6 25 14.5t23 12.5q111 71 231 98q88 19 136 -12q20 -13 21 -28q1 -6 8 -23q13 -31 2.5 -62t-40.5 -50q-61 -37 -96 -63q-76 -58 -123 -99q-78 -69 -105 -98q-8 -8 -7 -15 q42 12 124 36q84 24 148 27q54 2 85 -25q3 -3 5 -3q17 -1 22.5 -11t6.5 -28q1 -14 13 -40q30 -64 -8 -131q-18 -34 -86 -99q-48 -47 -151 -167l-81 -102q-7 -9 -7 -14q5 -5 15 1q70 38 142 66q25 10 138 37q55 14 71 20q4 2 16 4q10 3 23 2.5t20 -10.5q21 -32 6 -55 q-25 -39 -85 -109q-56 -64 -179 -146q-130 -87 -162 -105q-31 -17 -44.5 -24t-40.5 -16t-50 -10q-30 -1 -51 14t-29 43q-6 25 -16 34q-8 8 -10 22t-8 16q-9 4 -29.5 18.5t-34.5 17.5q-19 5 -33 13q-41 26 -39 65q2 48 37 110q53 94 102 161q5 7 55 76q-5 6 -27 16 q-46 17 -55 60q-3 16 -17.5 41t-17.5 39q-3 6 -5 7q-11 4 -31 17.5t-33 17.5q-26 7 -48 21q-32 20 -39 43.5zM435 1488q4 18 9 26q7 12 20 35.5t20 34.5q2 4 5.5 10.5t6.5 12t6 10.5q2 4 23 35q8 12 28 16q19 2 24 1q16 -4 24 -19q7 -13 17 -39q6 -16 17.5 -48.5t17.5 -49.5 q2 -5 5.5 -18t6.5 -20q4 -8 -6 -20q-6 -7 -12 1q-1 1 -2 2.5t-1 2.5q-5 10 -16 11q-12 2 -21 15q-9 14 -21 44q-3 9 -9.5 26t-10.5 25q-1 1 -3 2q-16 -21 -21 -28q-18 -26 -58 -76q-2 -3 -5.5 -7.5t-5.5 -6.5q-7 -9 -13 0q-7 11 -18 12q-9 1 -7 10z" />
<glyph unicode="&#xcb;" horiz-adv-x="1103" d="M105 867.5q-7 23.5 5 55.5q14 43 60 98q26 32 28 34q40 44 115 110q18 15 54 40t51 37q8 6 25 14.5t23 12.5q111 71 231 98q88 19 136 -12q20 -13 21 -28q1 -6 8 -23q13 -31 2.5 -62t-40.5 -50q-61 -37 -96 -63q-76 -58 -123 -99q-78 -69 -105 -98q-8 -8 -7 -15 q42 12 124 36q84 24 148 27q54 2 85 -25q3 -3 5 -3q17 -1 22.5 -11t6.5 -28q1 -14 13 -40q30 -64 -8 -131q-18 -34 -86 -99q-48 -47 -151 -167l-81 -102q-7 -9 -7 -14q5 -5 15 1q70 38 142 66q25 10 138 37q55 14 71 20q4 2 16 4q10 3 23 2.5t20 -10.5q21 -32 6 -55 q-25 -39 -85 -109q-56 -64 -179 -146q-130 -87 -162 -105q-31 -17 -44.5 -24t-40.5 -16t-50 -10q-30 -1 -51 14t-29 43q-6 25 -16 34q-8 8 -10 22t-8 16q-9 4 -29.5 18.5t-34.5 17.5q-19 5 -33 13q-41 26 -39 65q2 48 37 110q53 94 102 161q5 7 55 76q-5 6 -27 16 q-46 17 -55 59q-3 16 -17.5 41.5t-17.5 39.5q-3 6 -5 7q-11 4 -31 17.5t-33 17.5q-26 7 -48 21q-32 20 -39 43.5zM428 1500q10 37 32 53t52 8q13 -3 16 -16q0 -4 3.5 -12t2.5 -13q-1 -6 -3.5 -20t-5.5 -24.5t-8 -19.5q-2 -3 -4.5 -6t-5 -4.5t-6.5 -3t-6 -2t-7 -1.5t-6 -1 q-8 -1 -12 10q-8 29 -33 34q-13 3 -9 18zM571 1500q10 37 32 53t51 8q13 -3 16 -16q0 -4 4 -12t3 -13q-1 -6 -3.5 -20t-5.5 -24.5t-8 -19.5q-2 -3 -4.5 -6t-5 -4.5t-6.5 -3t-6 -2t-7 -1.5t-6 -1q-9 -2 -13 10q-8 29 -33 34q-12 3 -8 18z" />
<glyph unicode="&#xcc;" horiz-adv-x="546" d="M102 1435q1 1 9 1q27 -3 42 11q8 7 23 4q32 -6 64 -15q55 -15 95 -31q39 -14 66 -27q38 -19 43 -39q5 -18 -7.5 -29.5t-36.5 -9.5q-5 0 -13 2q-19 4 -43 14q-34 14 -172 74q-26 11 -59 32q-10 6 -11 13zM112 436q-3 39 0 78q4 51 4 115v10q5 20 6 57.5t3 50.5 q12 88 16 133q2 33 12 90q1 6 5 28t6 31.5t6.5 26.5t10 30t13.5 26q32 51 100 40q28 -3 38 -30q24 -62 37 -134q33 -188 43 -525q1 0 0 -41v-40q0 -41 2 -129t1 -135q-2 -53 -16 -99q-4 -13 -18 -34t-17 -27q-8 -16 -24 -13q-25 6 -30 15q-1 4 -2 9q-1 13 -12 34t-13 26 q-4 12 -23 18q-20 6 -39.5 19t-28 22t-30.5 31q-39 40 -42 112q-1 15 -3.5 43t-3.5 37q-3 30 0 60q2 27 -1 65z" />
<glyph unicode="&#xcd;" horiz-adv-x="526" d="M103 1283q2 22 36 45q24 16 60 38q23 14 88 46q34 17 61 26q16 5 24 0q15 -11 43 -4q6 2 8 1q0 -7 -8 -15q-25 -23 -53 -41q-144 -94 -157 -102q-26 -16 -40 -21q-2 -1 -6 -2.5t-6 -1.5q-23 -6 -37.5 3t-12.5 28zM112 514q4 51 4 115v10q5 20 6 57.5t3 50.5q12 88 16 133 q2 33 12 90q1 6 5 28t6 31.5t6.5 26.5t10 30t13.5 26q32 51 100 40q28 -3 38 -30q24 -62 37 -134q33 -188 43 -525q1 0 0 -41v-40q0 -41 2 -129t1 -135q-2 -53 -16 -99q-4 -13 -18 -34t-17 -27q-8 -16 -24 -13q-25 6 -30 15q-1 4 -2 9q-1 13 -12 34t-13 26q-4 12 -23 18 q-20 6 -39.5 19t-28 22t-30.5 31q-39 40 -42 112q-1 15 -3.5 43t-3.5 37q-3 30 0 60q3 32 0 65q-3 46 -1 78z" />
<glyph unicode="&#xce;" horiz-adv-x="509" d="M104 436q-3 39 0 78q4 51 4 115v10q5 20 6 57.5t3 50.5q12 88 16 133q3 43 11 90q1 5 4.5 23.5t4.5 25.5t5 22.5t7.5 25t8.5 22t12 23.5q32 51 100 40q27 -3 37 -30q24 -62 37 -134q33 -188 43 -525q1 0 1 -41l-1 -40q0 -41 2 -129t1 -135q-2 -56 -15 -99q-4 -13 -18 -34 t-17 -27q-8 -16 -24 -13q-25 6 -30 15q-1 4 -2 9q-1 13 -12 34t-13 26q-4 12 -23 18q-20 6 -39.5 19t-28 22t-30.5 31q-39 40 -42 112q-1 15 -3.5 43t-3.5 37q-3 30 0 60q2 27 -1 65zM143 1303q3 16 10 26q7 11 20 34.5t19 35.5q2 4 5.5 10.5t6.5 12t6 10.5q2 4 23 35 q8 11 28 15q21 3 24 2q16 -4 24 -19q7 -13 17 -39q6 -17 17.5 -50t17.5 -49q2 -5 5.5 -17.5t6.5 -19.5q4 -9 -6 -21q-5 -7 -11 1q-1 1 -2.5 3t-1.5 3q-5 10 -16 11q-12 2 -21 15q-9 14 -21 44q-4 9 -10.5 26t-9.5 25q-1 1 -3 2q-9 -12 -20 -28q-12 -17 -59 -76 q-2 -3 -5.5 -7.5t-5.5 -6.5q-7 -8 -12 0q-7 11 -18 12q-10 1 -8 10z" />
<glyph unicode="&#xcf;" horiz-adv-x="509" d="M104 436q-3 39 0 78q4 51 4 115v10q5 20 6 57.5t3 50.5q12 88 16 133q3 43 11 90q1 5 4.5 23.5t4.5 25.5t5 22.5t7.5 25t8.5 22t12 23.5q32 51 100 40q27 -3 37 -30q24 -62 37 -134q33 -188 43 -525q1 0 1 -41l-1 -40q0 -41 2 -129t1 -135q-2 -61 -15 -99q-4 -13 -18 -34 t-17 -27q-8 -16 -24 -13q-25 6 -30 15q-1 4 -2 9q-1 13 -12 34t-13 26q-4 12 -23 18q-20 6 -39.5 19t-28 22t-30.5 31q-39 40 -42 112q-1 15 -3.5 43t-3.5 37q-3 30 0 60q2 27 -1 65zM117 1338q10 36 33 53q22 16 51 8q13 -3 16 -16q0 -4 4 -12.5t3 -13.5q-1 -6 -3.5 -20 t-5.5 -24t-8 -19q-2 -3 -4.5 -6t-5 -4.5t-6.5 -3t-6 -2t-7 -1.5t-6 -1q-9 -2 -13 9q-8 29 -33 34q-13 3 -9 19zM260 1338q10 37 32 53t51 8q15 -4 17 -16q0 -3 3.5 -12t2.5 -14q-1 -6 -3.5 -20t-5.5 -24t-8 -19q-2 -3 -4.5 -6t-5 -4.5t-6.5 -3t-6 -2t-7 -1.5t-6 -1 q-9 -2 -13 9q-8 29 -33 34q-12 3 -8 19z" />
<glyph unicode="&#xd1;" horiz-adv-x="1103" d="M104 285q0 7 0.5 26.5t-0.5 26.5q-2 22 2 33q3 9 -1 21q-6 17 1 38q3 8 3 17.5t-1.5 20.5t-1.5 17q0 65 6 87q1 3 -0.5 7.5t-1.5 6.5q-1 17 2 40q5 52 4 61q0 3 5 44q12 118 12 122q13 102 16 116q6 30 13 86t9 71t10.5 58t11.5 67q1 9 4.5 19t9 21.5t7.5 17.5 q5 16 32 20q4 0 15 2t16.5 2t14 -2.5t15.5 -8.5q9 -9 11 -15q18 -51 26 -99q14 -79 32 -296q0 -8 1 -23.5t1 -23.5q0 -13 6 -16q19 69 50 150q4 11 15 42t19 47q7 15 20.5 46.5t20.5 47.5q40 84 78 121q69 67 135 88q45 14 86 14q74 1 128 -64q6 -7 9.5 -16t7 -23.5 t4.5 -18.5q19 -65 29 -144t12 -133.5t3 -146.5q0 -147 -1 -177q-4 -93 -9 -137q-3 -28 -4.5 -58.5t-1.5 -69.5t-1 -58q-2 -48 -5 -143.5t-4 -143.5q-2 -54 -16 -85q-27 -55 -49 -74q-8 -8 -10 1q-1 4 -8 2q-18 -6 -27 15q-15 31 -27 63q-11 27 -30 32q-38 10 -84 56 q-4 4 -12.5 10.5t-13.5 12.5t-8 14q0 1 -3 4t-2 4q3 9 -2 22t-5 17q0 1 -0.5 2.5t-0.5 2.5q1 20 -1 89q-2 38 -1 50t1 36.5t1 36.5q2 7 1 27t-1 27q2 77 5 116q2 23 6 67q0 5 -1 18t0 20l1 24q1 24 8 35q2 0 0.5 5t-1.5 6q-1 20 5.5 64t3.5 68q-1 12 2 34t3 28q1 9 3.5 32 t2.5 32t-2 32q0 2 1.5 8.5t-0.5 10.5q-6 -4 -11.5 -10.5t-7.5 -11t-6.5 -14t-5.5 -12.5q-68 -144 -100 -217q-32 -71 -76 -219q-23 -78 -97 -343q-25 -91 -23 -134q2 -45 -23 -76q-4 -4 -11 -19t-15 -21l-3 -3q-7 -6 -12 2q-3 4 -8 2q-16 -6 -23 13q-1 3 -4.5 14.5 t-6.5 17.5t-7 16.5t-8 19t-9 15.5q-11 16 -33 23q-45 14 -97 66q-17 17 -14 50q1 17 -3 35t-6 54zM441 1563q4 27 31 44q38 24 80 10q76 -26 97 -34q14 -5 27 2q6 4 22 9.5t23 10.5q9 5 15 1t7 -15q1 -39 -30 -69q-17 -16 -39.5 -16.5t-37.5 10.5q-51 31 -92 46 q-21 8 -43 -2.5t-29 -31.5q-6 -15 -8 -17q-2 4 -7.5 9.5l-6.5 6.5q-12 14 -9 36z" />
<glyph unicode="&#xd2;" horiz-adv-x="1214" d="M103 477q2 18 2.5 51t1.5 44q2 37 7 54q1 4 2.5 13.5t3.5 17t7 12.5q-1 12 1 25t4 22t6.5 24.5t6.5 22.5q21 86 30 111t26.5 75t26.5 75q4 10 1 22q-12 50 -7 103q3 37 23 71q40 70 84 110q47 43 90 65q105 53 184 61q101 10 177 -16q98 -34 162 -94q15 -15 55 -73 q36 -52 63 -141q38 -127 44 -172q0 -3 9 -86q0 -99 -21 -212q-19 -107 -77 -227q-45 -91 -122 -195q-38 -50 -92 -101q-61 -57 -102 -82q-60 -37 -70 -41q-33 -14 -50.5 -20t-52 -13t-54.5 0q-101 17 -137 107q-12 30 -14 38q-13 41 -56 55q-42 15 -60 31q-39 35 -54 63 q-20 36 -36 107q-15 66 -12 93zM387 449q2 -67 16 -118q10 -31 27 -51t38 -10q5 2 14 5.5t16 7t13 7.5q9 7 28 19.5t29 18.5q56 39 99 90q44 52 75 104q69 112 91 226q6 30 12.5 85.5t10.5 77.5q0 1 -2 9q-5 14 -2 32q1 4 -1 20q-1 18 -7 49.5t-7 42.5q-2 13 -6.5 29t-8 24 t-12.5 28t-11 24q-5 10 -13 11q-68 17 -121 8q-13 -2 -25.5 -6.5t-28.5 -12t-23 -10.5q-11 -4 -23 -11t-19 -12t-21.5 -15.5t-19.5 -13.5q-10 -8 -14 -24q-5 -23 -15.5 -69t-16.5 -69q-8 -36 -20 -103t-15 -84q-34 -176 -37 -309zM559 1658q1 1 8 1q27 -3 42 11q8 7 23 4 q34 -6 65 -15q51 -14 94 -31q39 -14 66 -27q38 -19 43 -39q5 -18 -7.5 -29t-36.5 -9q-4 0 -12 2q-21 4 -44 14q-24 9 -171 74q-34 15 -60 31q-9 6 -10 13z" />
<glyph unicode="&#xd3;" horiz-adv-x="1214" d="M103 477q2 18 2.5 51t1.5 44q2 37 7 54q1 4 2.5 13.5t3.5 17t7 12.5q-1 12 1 25t4 22t6.5 24.5t6.5 22.5q21 86 30 111t26.5 75t26.5 75q4 10 1 22q-12 50 -7 103q3 37 23 71q40 70 84 110q47 43 90 65q105 53 184 61q101 10 177 -16q98 -34 162 -94q15 -15 55 -73 q36 -52 63 -141q38 -127 44 -172q0 -3 9 -86q0 -99 -21 -212q-19 -107 -77 -227q-45 -91 -122 -195q-38 -50 -92 -101q-61 -57 -102 -82q-60 -37 -70 -41q-33 -14 -50.5 -20t-52 -13t-54.5 0q-101 17 -137 107q-12 30 -14 38q-13 41 -56 55q-42 15 -60 31q-39 35 -54 63 q-20 36 -36 107q-15 66 -12 93zM387 449q2 -67 16 -118q10 -31 27 -51t38 -10q5 2 14 5.5t16 7t13 7.5l57 39q58 40 99 89q44 52 75 104q69 112 91 226q6 30 12.5 85.5t10.5 77.5q0 1 -2 9q-5 14 -2 32q1 4 -1 20q-1 18 -7 49.5t-7 42.5q-2 13 -6.5 29t-8 24t-12.5 28 t-11 24q-5 10 -13 11q-68 17 -121 8q-13 -2 -25.5 -6.5t-28.5 -12t-23 -10.5q-11 -4 -23 -11t-19 -12t-21.5 -15.5t-19.5 -13.5q-10 -8 -14 -24q-5 -23 -15.5 -69t-16.5 -69q-8 -36 -20 -103t-15 -84q-34 -176 -37 -309zM478 1599q6 20 46 35q22 8 68 22q48 14 96 24 q22 5 66 9q17 2 23 -5q13 -14 40 -14q7 0 9 -2q-1 -5 -12 -12q-19 -11 -61 -27q-141 -50 -177 -61q-35 -9 -45 -10q-2 0 -6 -0.5t-6 -0.5q-24 -1 -35.5 11.5t-5.5 30.5z" />
<glyph unicode="&#xd4;" horiz-adv-x="1214" d="M103 477q2 18 2.5 51t1.5 44q2 37 7 54q1 4 2.5 13.5t3.5 17t7 12.5q-1 12 1 25t4 22t6.5 24.5t6.5 22.5q21 86 30 111t26.5 75t26.5 75q4 10 1 22q-12 50 -7 103q3 37 23 71q40 70 84 110q47 43 90 65q105 53 184 61q101 10 177 -16q98 -34 162 -94q15 -15 55 -73 q36 -52 63 -141q38 -127 44 -172q0 -3 9 -86q0 -99 -21 -212q-19 -107 -77 -227q-45 -91 -122 -195q-38 -50 -92 -101q-61 -57 -102 -82q-60 -37 -70 -41q-33 -14 -50.5 -20t-52 -13t-54.5 0q-101 17 -137 107q-12 30 -14 38q-13 41 -56 55q-42 15 -60 31q-39 35 -54 63 q-20 36 -36 107q-15 66 -12 93zM387 449q2 -67 16 -118q10 -31 27 -51t38 -10q5 2 14 5.5t16 7t13 7.5q9 7 28 19.5t29 18.5q56 39 99 90q44 52 75 104q69 112 91 226q6 30 12.5 85.5t10.5 77.5q0 1 -2 9q-5 14 -2 32q1 4 -1 20q-1 18 -7 49.5t-7 42.5q-2 13 -6.5 29t-8 24 t-12.5 28t-11 24q-5 9 -14 11q-67 17 -120 8q-13 -2 -25.5 -6.5t-28.5 -12t-23 -10.5q-22 -9 -84 -52q-9 -7 -13 -24q-5 -23 -15.5 -69t-16.5 -69q-8 -36 -20 -103t-15 -84q-34 -176 -37 -309zM541 1549q4 20 9 27q7 11 20.5 34t19.5 35q2 4 7.5 15.5t9.5 17.5q4 7 13 19 t11 16q8 12 28 16q19 2 24 1q17 -4 24 -18q6 -10 17 -40q6 -17 17.5 -49t17.5 -49q2 -5 5.5 -18.5t6.5 -19.5q4 -8 -6 -20q-6 -8 -12 1q-1 1 -2 2.5t-1 2.5q-5 10 -16 11q-12 2 -21 15q-9 14 -21 44q-4 9 -10.5 26t-9.5 25q-1 1 -3 2q-16 -21 -21 -28q-13 -19 -58 -75 l-12 -15q-6 -8 -12 1q-7 11 -18 12q-9 1 -7 9z" />
<glyph unicode="&#xd5;" horiz-adv-x="1214" d="M103 477q2 18 2.5 51t1.5 44q2 37 7 54q1 4 2.5 13.5t3.5 17t7 12.5q-1 12 1 25t4 22t6.5 24.5t6.5 22.5q21 86 30 111t26.5 75t26.5 75q4 10 1 22q-12 50 -7 103q3 37 23 71q40 70 84 110q47 43 90 65q105 53 184 61q101 10 177 -16q98 -34 162 -94q15 -15 55 -73 q36 -52 63 -141q38 -127 44 -172q0 -3 9 -86q0 -99 -21 -212q-19 -107 -77 -227q-45 -91 -122 -195q-38 -50 -92 -101q-61 -57 -102 -82q-60 -37 -70 -41q-33 -14 -50.5 -20t-52 -13t-54.5 0q-101 17 -137 107q-12 30 -14 38q-13 41 -56 55q-42 15 -60 31q-39 35 -54 63 q-20 36 -36 107q-15 66 -12 93zM387 449q2 -67 16 -118q10 -31 27 -51t38 -10q5 2 14 5.5t16 7t13 7.5q9 7 28 19.5t29 18.5q56 39 99 90q44 52 75 104q69 112 91 226q6 30 12.5 85.5t10.5 77.5q0 1 -2 9q-5 14 -2 32q1 4 -1 20q-1 18 -7 49.5t-7 42.5q-2 13 -6.5 29t-8 24 t-12.5 28t-11 24q-5 9 -14 11q-67 17 -120 8q-13 -2 -25.5 -6.5t-28.5 -12t-23 -10.5q-22 -9 -84 -52q-9 -7 -13 -24q-5 -23 -15.5 -69t-16.5 -69q-8 -36 -20 -103t-15 -84q-34 -176 -37 -309zM537 1599q4 28 30 44q37 24 81 9l96 -33q15 -6 28 1q6 4 21.5 10t23.5 11 q9 5 15 1t7 -15q1 -40 -30 -70q-33 -32 -77 -5q-47 28 -92 45q-21 8 -43 -2.5t-29 -31.5q-6 -14 -8 -16q-2 4 -7.5 8.5t-6.5 6.5q-13 14 -9 37z" />
<glyph unicode="&#xd6;" horiz-adv-x="1214" d="M103 477q2 18 2.5 51t1.5 44q2 37 7 54q1 4 2.5 13.5t3.5 17t7 12.5q-1 12 1 25t4 22t6.5 24.5t6.5 22.5q21 86 30 111t26.5 75t26.5 75q4 10 1 22q-12 50 -7 103q3 37 23 71q40 70 84 110q47 43 90 65q105 53 184 61q101 10 177 -16q98 -34 162 -94q15 -15 55 -73 q36 -52 63 -141q38 -127 44 -172q0 -3 9 -86q0 -99 -21 -212q-19 -107 -77 -227q-45 -91 -122 -195q-38 -50 -92 -101q-61 -57 -102 -82q-60 -37 -70 -41q-33 -14 -50.5 -20t-52 -13t-54.5 0q-101 17 -137 107q-12 30 -14 38q-13 41 -56 55q-42 15 -60 31q-39 35 -54 63 q-20 36 -36 107q-15 66 -12 93zM387 449q2 -67 16 -118q10 -31 27 -51t38 -10q5 2 14 5.5t16 7t13 7.5q9 7 28 19.5t29 18.5q56 39 99 90q44 52 75 104q69 112 91 226q6 30 12.5 85.5t10.5 77.5q0 1 -2 9q-5 14 -2 32q1 4 -1 20q-1 18 -7 49.5t-7 42.5q-2 13 -6.5 29t-8 24 t-12.5 28t-11 24q-5 10 -13 11q-68 17 -121 8q-13 -2 -25.5 -6.5t-28.5 -12t-23 -10.5q-22 -9 -84 -52q-9 -7 -13 -24q-5 -23 -15.5 -69t-16.5 -69q-8 -36 -20 -103t-15 -84q-34 -176 -37 -309zM530 1599q10 35 32 52q23 17 52 9q13 -3 16 -17q0 -4 4 -12t3 -13 q-1 -6 -3.5 -20t-5.5 -24t-8 -19q-7 -13 -35 -19q-9 -2 -13 10q-8 29 -33 34q-13 3 -9 19zM673 1599q10 35 32 52q23 17 51 9q13 -3 16 -17q0 -4 4 -12t3 -13q-1 -6 -3.5 -20t-5.5 -24t-8 -19q-7 -13 -35 -19q-9 -2 -13 10q-8 29 -33 34q-12 3 -8 19z" />
<glyph unicode="&#xd7;" horiz-adv-x="798" d="M105 383q1 1 2 4t2 4q8 19 0 34q-1 2 -2 7.5t-2 8.5q-6 22 6 33q10 10 30.5 31t30.5 30q58 50 70 59q6 4 37 30q7 7 28 21q-1 1 -4 5t-5 6q-64 68 -162 191q-8 11 -16 25q-5 8 -3 29q0 6 6.5 10t11.5 2q1 -1 4 -2.5t4 -1.5q19 -8 34 0q4 2 16 4q22 6 33 -6q10 -11 31 -31 t30 -30q40 -46 58 -71q5 -8 16.5 -20.5t14.5 -15.5q16 -20 23 -30q4 3 12.5 8.5t13.5 8.5q86 58 99 65q85 50 103 59q21 11 42 17q7 2 12 0q11 -6 14 -14q3 -10 -4 -15q-17 -12 -45 -39.5t-39 -36.5q-27 -22 -59 -52q-46 -38 -94 -81l24 -36q7 -12 30.5 -46t34.5 -53 q43 -74 58 -103q13 -25 18 -42q2 -7 0 -12q-5 -11 -15 -14q-9 -3 -14 4q-12 17 -39.5 45t-36.5 39q-14 17 -53 59q-51 61 -80 94q-3 -3 -9.5 -9t-9.5 -9q-61 -57 -191 -161q-16 -12 -25 -17q-8 -5 -29 -3q-6 0 -10 6.5t-2 11.5z" />
<glyph unicode="&#xd8;" horiz-adv-x="1269" d="M103 477q2 18 2.5 51t1.5 44q2 37 7 54q1 4 2.5 13.5t3.5 17t7 12.5q-1 12 1 25t4 22t6.5 24.5t6.5 22.5q21 86 30 111t26.5 75t26.5 75q4 10 1 22q-12 50 -7 103q3 37 23 71q40 70 84 110q47 43 90 65q105 53 184 61q101 10 177 -16q98 -34 162 -94q15 -14 37 -46 q26 33 78 97q55 65 70 79q13 13 20 15q16 3 20 -8q4 -10 -10 -30q-30 -40 -78 -117.5t-61 -97.5q26 -49 43 -106q36 -121 43 -172q0 -3 9 -86q0 -99 -21 -212q-19 -107 -77 -227q-45 -91 -122 -195q-38 -50 -92 -101q-61 -57 -102 -82q-60 -37 -70 -41q-33 -14 -50.5 -20 t-52 -13t-54.5 0q-101 17 -137 107q-12 30 -14 38q-4 16 -15 28q-10 -15 -31 -45t-31 -45q-16 -22 -43 -57q-13 -17 -47 -40q-9 -6 -14 0t-1 17q1 3 3.5 9t3.5 9q17 41 7 59q-1 2 -4 21q-6 29 16 64q14 21 40 65v1q-39 35 -54 63q-20 36 -36 107q-15 66 -12 93zM389 497 q1 1 3.5 4.5t3.5 5.5q35 50 65 95q45 67 108 152q18 24 67 91.5t76 103.5q19 25 57 77t58 78q-5 13 -15 35.5t-13 29.5q-5 10 -13 11q-68 17 -121 8q-13 -2 -25.5 -6.5t-28.5 -12t-23 -10.5q-11 -4 -23 -11t-19 -12t-21.5 -15.5t-19.5 -13.5q-10 -8 -14 -24 q-5 -23 -15.5 -69t-16.5 -69q-8 -36 -20 -103t-15 -84q-28 -143 -35 -261zM411 311q8 -17 19 -31q17 -20 38 -10q5 2 14 5.5t16 7t13 7.5q9 7 28 19.5t29 18.5q56 39 99 90q44 52 75 104q69 112 91 226q6 30 12.5 85.5t10.5 77.5q0 1 -2 9q-5 14 -2 32q1 4 -1 20 q0 2 -0.5 5.5t-0.5 5.5q-83 -124 -156 -237q-19 -30 -57.5 -89.5t-57.5 -89.5q-76 -118 -168 -256z" />
<glyph unicode="&#xd9;" horiz-adv-x="1099" d="M102 609q0 8 1 12q3 15 4 32t0.5 38.5t-0.5 32.5q1 17 4 48t4 43q3 43 11 96q3 17 5.5 58t7.5 62q3 13 7.5 50t12.5 56q1 2 1 13q1 16 8.5 45.5t9.5 41.5q3 20 13.5 55t13.5 50q5 21 28 48q8 10 19 10q15 0 17 3q11 14 24 4q3 -5 14.5 -1.5t12.5 3.5q11 1 41 -12 q9 -4 15 -10.5t8 -11t5 -15.5t4 -14q17 -46 19 -105.5t-3 -107.5q-1 -24 -2 -91.5t-4 -104.5q-12 -161 -12 -362q0 -158 31 -245q2 -4 13.5 -42.5t21.5 -56.5q6 -11 9.5 -12t10.5 8q40 54 64 101q38 75 42 85q37 85 54 158q10 45 25.5 129.5t18.5 100.5q13 67 24 135 q21 137 42 218q15 59 23 133q7 53 14 68q13 28 39 35q8 2 16.5 3t18.5 1.5t16 1.5q18 1 33.5 -9t21.5 -27q21 -59 35 -171q12 -97 17 -220q2 -37 2.5 -111.5t2.5 -111.5q1 -29 0.5 -102.5t-0.5 -102.5q1 -35 1 -100t1 -118t4 -100q6 -113 2 -160q-5 -54 -31 -91 q-11 -16 -26 -14q-10 1 -13.5 5.5t-7.5 14.5q-15 43 -45 51q-10 3 -19 10.5t-20 20.5t-15 17q-26 26 -44 93q-4 15 -6.5 46t-5.5 44q-2 10 -3 41t-8 47q-5 -1 -7 -7q-54 -180 -146 -314q-27 -39 -61 -62q-33 -21 -69.5 -12.5t-58.5 38.5q-23 33 -40 78q-13 33 -47 45 q-47 16 -84 56q-16 17 -24 34q-4 8 -20.5 37.5t-21.5 48.5q-6 21 -28 74q0 1 -2 4t-2 5q-2 20 -10.5 55.5t-10.5 47.5q-13 73 -16 133zM378 1681q1 1 8 1q27 -3 42 11q9 7 24 4q32 -6 64 -15q51 -14 94 -31q39 -14 66 -27q39 -19 44 -39q5 -18 -8 -29t-37 -9q-8 0 -12 1 q-17 3 -44 15q-24 9 -171 74q-31 13 -59 31q-10 6 -11 13z" />
<glyph unicode="&#xda;" horiz-adv-x="1099" d="M102 609q0 8 1 12q3 15 4 32t0.5 38.5t-0.5 32.5q1 17 4 48t4 43q3 43 11 96q3 17 5.5 58t7.5 62q3 13 7.5 50t12.5 56q1 2 1 13q1 16 8.5 45.5t9.5 41.5q3 20 13.5 55t13.5 50q5 21 28 48q8 10 19 10q15 0 17 3q11 14 24 4q3 -5 14.5 -1.5t12.5 3.5q11 1 41 -12 q9 -4 15 -10.5t8 -11t5 -15.5t4 -14q17 -46 19 -105.5t-3 -107.5q-1 -24 -2 -91.5t-4 -104.5q-12 -161 -12 -362q0 -158 31 -245q2 -4 13.5 -42.5t21.5 -56.5q6 -11 9.5 -12t10.5 8q40 54 64 101q38 75 42 85q37 85 54 158q10 45 25.5 129.5t18.5 100.5q13 67 24 135 q21 137 42 218q15 59 23 133q7 52 14 67q14 29 39 36q8 2 16.5 3t18.5 1.5t16 1.5q18 1 33.5 -9t21.5 -27q21 -59 35 -171q12 -97 17 -220q2 -37 2.5 -111.5t2.5 -111.5q1 -29 0.5 -102.5t-0.5 -102.5q1 -35 1 -100t1 -118t4 -100q6 -113 2 -160q-5 -54 -31 -91 q-11 -16 -26 -14q-10 1 -13.5 5.5t-7.5 14.5q-15 43 -45 51q-10 3 -19 10.5t-20 20.5t-15 17q-26 26 -44 93q-4 15 -6.5 46t-5.5 44q-2 10 -3 41t-8 47q-5 -1 -7 -7q-54 -180 -146 -314q-27 -39 -61 -62q-33 -21 -69.5 -12.5t-58.5 38.5q-23 33 -40 78q-13 33 -47 45 q-47 16 -84 56q-16 17 -24 34q-4 8 -20.5 37.5t-21.5 48.5q-6 21 -28 74q0 1 -2 4t-2 5q-2 20 -10.5 55.5t-10.5 47.5q-13 73 -16 133zM443 1523q2 23 36 46q5 3 61 37q35 20 88 47q28 14 61 25q15 5 23 0q14 -10 43 -3q5 1 9 0q0 -6 -9 -15q-25 -23 -53 -41 q-17 -11 -48.5 -32.5t-57.5 -38.5t-50 -31q-25 -15 -41 -21q-2 -1 -6 -2.5t-6 -1.5q-23 -6 -37.5 3t-12.5 28z" />
<glyph unicode="&#xdb;" horiz-adv-x="1099" d="M102 609q0 8 1 12q3 15 4 32t0.5 38.5t-0.5 32.5q1 17 4 48t4 43q3 43 11 96q3 17 5.5 58t7.5 62q3 13 7.5 50t12.5 56q1 2 1 13q1 16 8.5 45.5t9.5 41.5q3 20 13.5 55t13.5 50q5 21 28 48q8 10 19 10q15 0 17 3q11 14 24 4q3 -5 14.5 -1.5t12.5 3.5q11 1 41 -12 q9 -4 15 -10.5t8 -11t5 -15.5t4 -14q17 -46 19 -105.5t-3 -107.5q-1 -24 -2 -91.5t-4 -104.5q-12 -161 -12 -362q0 -158 31 -245q2 -4 13.5 -42.5t21.5 -56.5q6 -11 9 -12t10 8q44 58 65 101q38 75 42 85q37 85 54 158q10 45 25.5 129.5t18.5 100.5q13 67 24 135 q21 137 42 218q15 59 23 133q7 52 14 67q14 29 39 36q8 2 16.5 3t18.5 1.5t16 1.5q18 1 33.5 -9t21.5 -27q21 -59 35 -171q12 -97 17 -220q2 -37 2.5 -111.5t2.5 -111.5q1 -29 0.5 -102.5t-0.5 -102.5q1 -35 1 -100t1 -118t4 -100q6 -113 2 -160q-5 -54 -31 -91 q-11 -16 -26 -14q-10 1 -13.5 5.5t-7.5 14.5q-15 43 -45 51q-10 3 -19 10.5t-20 20.5t-15 17q-26 26 -44 93q-4 15 -6.5 46t-5.5 44q-2 10 -3 41t-8 47q-5 -1 -7 -7q-54 -180 -146 -314q-27 -39 -61 -62q-33 -21 -69.5 -12.5t-58.5 38.5q-23 33 -40 78q-13 33 -47 45 q-47 16 -84 56q-16 17 -24 34q-4 8 -20.5 37.5t-21.5 48.5q-6 21 -28 74q0 1 -2 4t-2 5q-2 20 -10.5 55.5t-10.5 47.5q-13 73 -16 133zM478 1513q4 17 10 27q6 11 19.5 34t20.5 35q2 4 5.5 10.5t6.5 12t6 10.5q4 7 13 19t11 16q8 11 27 15q19 2 25 1q15 -4 23 -18 q8 -15 17 -40q6 -17 17.5 -50t17.5 -49q1 -2 4 -16t7 -21q4 -9 -6 -21q-5 -7 -12 2q0 1 -1 2.5t-2 2.5q-5 10 -16 11q-12 2 -21 15q-6 10 -20 44q-4 9 -10.5 26t-9.5 26q-1 0 -3 1l-21 -27q-6 -9 -59 -75q-2 -3 -5.5 -8t-5.5 -7q-7 -7 -12 1q-7 11 -18 12q-10 1 -8 9z" />
<glyph unicode="&#xdc;" horiz-adv-x="1099" d="M102 609q0 8 1 12q3 15 4 32t0.5 38.5t-0.5 32.5q1 17 4 48t4 43q3 43 11 96q3 17 5.5 58t7.5 62q3 13 7.5 50t12.5 56q1 2 1 12q1 16 8.5 46t9.5 42q3 20 13.5 55t13.5 50q5 21 28 48q8 10 19 10q15 0 17 3q11 14 24 4q3 -5 14.5 -1.5t12.5 3.5q11 1 41 -12 q9 -4 15 -10.5t8 -11t5 -15.5t4 -14q17 -46 19 -105.5t-3 -107.5q-1 -24 -2 -91.5t-4 -104.5q-12 -161 -12 -362q0 -158 31 -245q2 -4 13.5 -42.5t21.5 -56.5q6 -11 9.5 -12t10.5 8q40 54 64 101q38 75 42 85q37 85 54 158q10 45 25.5 129.5t18.5 100.5q13 67 24 135 q21 137 42 218q15 59 23 133q7 52 14 67q14 29 39 36q8 2 16.5 3t18.5 1.5t16 1.5q18 1 33.5 -9t21.5 -27q21 -59 35 -171q12 -97 17 -220q2 -37 2.5 -111.5t2.5 -111.5q1 -29 0.5 -102.5t-0.5 -102.5q1 -35 1 -100t1 -118t4 -100q6 -113 2 -160q-5 -54 -31 -91 q-11 -16 -26 -14q-10 1 -13.5 5.5t-7.5 14.5q-15 43 -45 51q-10 3 -19 10.5t-20 20.5t-15 17q-26 26 -44 93q-4 15 -6.5 46t-5.5 44q-2 10 -3 41t-8 47q-5 -1 -7 -7q-54 -180 -146 -314q-27 -39 -61 -62q-33 -21 -69.5 -12.5t-58.5 38.5q-23 33 -40 78q-13 33 -47 45 q-47 16 -84 56q-16 17 -24 34q-4 8 -20.5 37.5t-21.5 48.5q-6 21 -28 74q0 1 -2 4t-2 5q-2 20 -10.5 55.5t-10.5 47.5q-13 73 -16 133zM479 1587q10 37 32 53t52 8q13 -3 16 -16q0 -4 3.5 -12t2.5 -13q-1 -6 -3.5 -20t-5.5 -24.5t-8 -19.5q-2 -3 -4.5 -6t-5 -4.5t-6.5 -3 t-6 -2t-7 -1.5t-6 -1q-8 -1 -12 10q-8 29 -34 34q-12 3 -8 18zM621 1587q10 37 32 53t52 8q13 -3 16 -16q0 -4 4 -12t3 -13q-1 -6 -3.5 -20t-5.5 -24.5t-8 -19.5q-2 -3 -4.5 -6t-5 -4.5t-6.5 -3t-6 -2t-7 -1.5t-6 -1q-9 -2 -13 10q-8 29 -33 34q-13 3 -9 18z" />
<glyph unicode="&#xdd;" horiz-adv-x="1026" d="M104 960v45q2 88 6 109q15 100 31 176q1 7 26 86q13 40 30 73q12 25 37 32q10 3 29 4.5t24 2.5q12 2 24.5 -9t18.5 -24q5 -11 8 -22.5t3 -26.5t-0.5 -22t-3.5 -26t-3 -23q-18 -147 -18 -270q0 -120 5 -152q17 -111 91 -188q13 16 26 35q43 64 84 172q27 70 34 88t17 52 t12 41q14 42 33.5 122t29.5 113q4 14 22 36q8 9 20 9q7 -1 25 7q11 5 32.5 5t26.5 1q3 0 31 -11q7 -3 12.5 -7t10 -12t6.5 -10.5t6 -14t4 -12.5q33 -82 53 -196q23 -127 27 -349q1 -85 -7 -188q-13 -190 -64 -335q-37 -107 -81 -180q-24 -41 -63 -77q-48 -43 -130 -36 q-60 4 -118 32q-10 5 -33 15t-35 16q-74 38 -105 106q-10 21 -30 31q-41 20 -59 45q-30 44 -25 86q4 37 31 92q9 17 41 17q18 0 25 -21q0 -1 2 -5.5t2 -6.5q2 -27 15.5 -53.5t25.5 -40.5t37 -41q5 -6 17 -12q81 -38 156 -59q20 -6 35 8q15 12 41 54q20 33 48 103 q29 71 47 183q17 101 16 145q0 3 1.5 9.5t1.5 11.5t-4 9q-4 -1 -8 -9q-30 -62 -70 -115q-19 -26 -33 -41t-37.5 -30t-49.5 -20q-36 -6 -59 -1q-83 15 -131 100q-32 58 -81 83q-39 20 -79 90q-30 52 -36 75q-1 2 -8 28t-8 40q-2 20 -8 58zM353 1558q2 22 36 45q17 11 61 38 q29 17 87 46q34 17 61 26q16 5 24 0q15 -11 43 -4q6 2 9 1q0 -6 -9 -15q-25 -23 -53 -41q-17 -11 -48.5 -32.5t-57.5 -38.5t-50 -31q-25 -15 -41 -21q-2 -1 -6 -2t-6 -2q-23 -6 -37.5 3t-12.5 28z" />
<glyph unicode="&#xdf;" horiz-adv-x="827" d="M105 428q7 128 20 233q17 135 52 257q24 84 43 123q33 66 74 102q56 49 131.5 59t150.5 -33q61 -40 83 -120q29 -99 -23 -222q-39 -91 -111 -163q-10 -10 -12 -16q8 -5 23.5 -13.5t28 -15.5t23.5 -13q69 -41 96 -99q86 -195 -14 -339q-66 -95 -180 -113q-65 -10 -127 17 q-54 24 -75 74q-11 28 -41 40q-23 9 -27.5 17.5t1.5 25.5q8 23 24 33.5t35 4.5q12 -3 17 -15q4 -12 12 -13q10 -2 30.5 -7t37 -7.5t31.5 -2.5q87 1 136 80q43 69 21 166q-3 16 -18 23q-87 43 -146 54q-31 5 -53 3q-18 -2 -23.5 2t-10.5 21q-10 36 -26 51q-23 23 -48 28 q-12 3 -15 -10q-2 -18 -8 -53t-9 -52q-22 -163 -27 -263q-7 -162 -6 -217q0 -19 -3 -24q-8 -14 -14 -1q-9 18 -21 22q-9 3 -13 18q-9 28 -13 75q-13 152 -6 283zM241 698q1 0 3.5 1t4.5 2q157 62 244 185q41 59 52 91q13 38 7 80q-3 25 -29 31q-34 8 -63 1q-52 -14 -94 -59 q-40 -43 -71 -128q-26 -67 -54 -186q-2 -14 0 -18z" />
<glyph unicode="&#xe0;" horiz-adv-x="806" d="M107 308q-21 123 61 231q108 141 282 174q72 14 122 -7q17 -8 27 -15q17 -12 32 -12q26 0 36 -29q10 -31 13 -56q18 -188 21 -375q0 -51 3 -77q0 -25 1 -34t-3.5 -34t-6.5 -33t-8 -32.5t-8 -32.5q-1 -6 -5 -13q-12 -19 -20 1q-11 26 -33 33q-12 4 -23 31q-1 2 -8 17.5 t-8.5 19t-7 17t-7.5 19t-6.5 18t-6 20t-4 18t-3.5 20.5t-1 20q0 2 -3 17l-1 1q-2 0 -4 1q-20 -39 -39 -65q-39 -57 -97 -84q-46 -22 -89.5 -7t-62.5 62q-17 40 -55 60q-73 39 -88 126zM302 262q0 -32 24 -43q15 -8 40 13q46 37 76 90q44 75 79 191l6 15t6.5 18t2.5 16 q-2 1 -6 1q-8 -3 -10 -4q-86 -55 -143 -117q-53 -57 -69 -133q-6 -30 -6 -47zM321 971q3 3 9 1q28 -7 43 4q7 5 23 0q33 -11 62 -24q60 -28 89 -44q46 -27 61 -36q35 -22 37 -45q2 -19 -12 -28.5t-37 -3.5q-2 1 -6 2.5t-6 1.5q-19 6 -41 20q-21 12 -159 98q-30 19 -54 40 q-9 9 -9 14z" />
<glyph unicode="&#xe1;" horiz-adv-x="806" d="M107 308q-21 123 61 231q106 141 282 174q72 14 122 -7q17 -8 27 -15q17 -12 32 -12q26 0 36 -29q10 -31 13 -56q18 -188 21 -375q0 -51 3 -77q0 -24 1 -34t-3.5 -33.5t-6.5 -33t-8 -32.5t-8 -33q-1 -6 -5 -13q-12 -19 -20 1q-11 26 -33 33q-12 4 -23 31q-1 2 -8 17.5 t-8.5 19t-7 17t-7.5 19t-6.5 18t-6 20t-4 18t-3.5 20.5t-1 20q0 2 -3 17l-1 1q-2 0 -4 1q-20 -39 -39 -65q-39 -57 -97 -84q-46 -22 -89.5 -7t-62.5 62q-17 40 -55 60q-73 39 -88 126zM302 262q0 -32 24 -43q15 -8 40 13q46 37 76 90q44 75 79 191l6 15t6.5 18t2.5 16 q-2 1 -6 1q-8 -3 -10 -4q-86 -55 -143 -117q-53 -57 -69 -133q-6 -30 -6 -47zM317 816q2 22 36 45q17 11 61 38q29 17 87 46q34 17 61 26q16 5 24 0q15 -11 43 -4q6 2 9 1q0 -6 -9 -15q-25 -23 -53 -41l-156 -102q-25 -15 -41 -21q-2 -1 -6 -2t-6 -2q-23 -6 -37.5 3 t-12.5 28z" />
<glyph unicode="&#xe2;" horiz-adv-x="806" d="M107 308q-21 123 61 231q108 141 282 174q72 14 122 -7q17 -8 27 -15q17 -12 32 -12q26 0 36 -29q10 -31 13 -56q18 -188 21 -375q0 -51 3 -77q0 -25 1 -34t-3.5 -34t-6.5 -33t-8 -32.5t-8 -32.5q-1 -6 -5 -13q-12 -19 -20 1q-11 26 -33 33q-12 4 -23 31q-1 2 -8 17.5 t-8.5 19t-7 17t-7.5 19t-6.5 18t-6 20t-4 18t-3.5 20.5t-1 20q0 2 -3 17l-1 1q-2 0 -4 1q-20 -39 -39 -65q-39 -57 -97 -84q-46 -22 -89.5 -7t-62.5 62q-17 40 -55 60q-73 39 -88 126zM302 262q0 -32 24 -43q15 -8 40 13q46 37 76 90q44 75 79 191l6 15t6.5 18t2.5 16 q-2 1 -6 1q-8 -3 -10 -4q-86 -55 -143 -117q-53 -57 -69 -133q-6 -30 -6 -47zM360 833q3 16 10 26q6 12 19 35.5t20 34.5l18 33q2 4 23 35q8 11 28 15q21 3 24 2q16 -4 24 -19q6 -11 17 -40q6 -17 17.5 -49.5t17.5 -48.5q2 -5 5.5 -18t6.5 -20q4 -8 -6 -20q-6 -7 -12 1 q0 1 -1 2.5t-2 2.5q-5 10 -16 11q-11 2 -21 16q-10 16 -21 43q-4 9 -10.5 26.5t-9.5 25.5q-1 0 -3 1q-14 -18 -20 -27q-12 -17 -59 -76q-2 -3 -5.5 -8t-5.5 -7q-6 -8 -12 1q-7 11 -18 12q-10 1 -8 10z" />
<glyph unicode="&#xe3;" horiz-adv-x="806" d="M107 308q-21 123 61 231q108 141 282 174q72 14 122 -7q17 -8 27 -15q17 -12 32 -12q26 0 36 -29q10 -31 13 -56q18 -188 21 -375q0 -51 3 -77q0 -25 1 -34t-3.5 -34t-6.5 -33t-8 -32.5t-8 -32.5q-1 -6 -5 -13q-12 -19 -20 1q-11 26 -33 33q-12 4 -23 31q-1 2 -8 17.5 t-8.5 19t-7 17t-7.5 19t-6.5 18t-6 20t-4 18t-3.5 20.5t-1 20q0 2 -3 17l-1 1q-2 0 -4 1q-20 -39 -39 -65q-39 -57 -97 -84q-46 -22 -89.5 -7t-62.5 62q-17 40 -55 60q-73 39 -88 126zM302 262q0 -32 24 -43q15 -8 40 13q46 37 76 90q44 75 79 191l6 15t6.5 18t2.5 16 q-2 1 -6 1q-8 -3 -10 -4q-86 -55 -143 -117q-53 -57 -69 -133q-6 -30 -6 -47zM302 869q4 27 31 44q39 25 81 10q64 -22 96 -34q14 -5 27 2q6 4 22.5 9.5t23.5 10.5q9 5 15 1t7 -15q1 -38 -31 -69q-34 -32 -76 -6q-49 30 -93 46q-21 8 -42.5 -2.5t-28.5 -31.5q-6 -14 -9 -17 q-2 4 -7.5 9.5l-6.5 6.5q-12 14 -9 36z" />
<glyph unicode="&#xe4;" horiz-adv-x="806" d="M107 308q-21 123 61 231q108 141 282 174q72 14 122 -7q17 -8 27 -15q17 -12 32 -12q26 0 36 -29q10 -31 13 -56q18 -188 21 -375q0 -51 3 -77q0 -25 1 -34t-3.5 -34t-6.5 -33t-8 -32.5t-8 -32.5q-1 -6 -5 -13q-12 -19 -20 1q-11 26 -33 33q-12 4 -23 31q-1 2 -8 17.5 t-8.5 19t-7 17t-7.5 19t-6.5 18t-6 20t-4 18t-3.5 20.5t-1 20q0 2 -3 17l-1 1q-2 0 -4 1q-20 -39 -39 -65q-39 -57 -97 -84q-46 -22 -89.5 -7t-62.5 62q-17 40 -55 60q-73 39 -88 126zM302 262q0 -32 24 -43q15 -8 40 13q46 37 76 90q44 75 79 191l6 15t6.5 18t2.5 16 q-2 1 -6 1q-8 -3 -10 -4q-86 -55 -143 -117q-53 -57 -69 -133q-6 -30 -6 -47zM312 878q10 35 32 52q23 17 52 9q13 -3 16 -16q0 -4 4 -12.5t3 -13.5t-3.5 -19.5t-6 -24.5t-8.5 -19q-7 -13 -35 -19q-8 -1 -12 10q-8 29 -33 34q-13 3 -9 19zM455 878q10 35 32 52q23 17 51 9 q13 -3 16 -16q0 -4 4 -12.5t3 -13.5q-1 -6 -3.5 -20t-5.5 -24t-8 -19q-7 -13 -35 -19q-9 -2 -13 10q-8 29 -33 34q-12 3 -8 19z" />
<glyph unicode="&#xe5;" horiz-adv-x="806" d="M107 308q-21 123 61 231q108 141 282 174q72 14 122 -7q17 -8 27 -15q17 -12 32 -12q26 0 36 -29q10 -31 13 -56q18 -188 21 -375q0 -51 3 -77q0 -25 1 -34t-3.5 -34t-6.5 -33t-8 -32.5t-8 -32.5q-1 -6 -5 -13q-12 -19 -20 1q-11 26 -33 33q-12 4 -23 31q-1 2 -8 17.5 t-8.5 19t-7 17t-7.5 19t-6.5 18t-6 20t-4 18t-3.5 20.5t-1 20q0 2 -3 17l-1 1q-2 0 -4 1q-20 -39 -39 -65q-39 -57 -97 -84q-46 -22 -89.5 -7t-62.5 62q-17 40 -55 60q-73 39 -88 126zM302 262q0 -32 24 -43q15 -8 40 13q46 37 76 90q44 75 79 191l6 15t6.5 18t2.5 16 q-2 1 -6 1q-8 -3 -10 -4q-86 -55 -143 -117q-53 -57 -69 -133q-6 -30 -6 -47zM375 854q0 26 12 49q4 8 23 37q7 12 20 16q15 6 32 6q18 0 36 -6q27 -9 35 -39q7 -29 -8 -60q-13 -30 -37 -52q-19 -17 -38 -21q-32 -5 -45 23q-3 7 -9 10q-21 11 -21 37zM416 849q-2 -14 9 -21 q10 -6 22 2q23 16 37 42q11 20 12 34q0 7 -6 7h-20v1q-8 -1 -23 -1q-9 0 -14 -9q-12 -22 -17 -55z" />
<glyph unicode="&#xe6;" horiz-adv-x="1234" d="M107 308q-21 123 61 231q108 141 282 174q72 14 122 -7q17 -8 27 -15q17 -12 32 -12q26 0 36 -29q10 -31 13 -56q0 -7 2 -19t2 -19q23 34 42 55l12 15t12 14q55 60 149 75q30 5 46 4q68 2 120 -26q29 -15 41 -40q48 -91 5 -178q-33 -67 -117 -126q-65 -46 -147 -71 q-48 -14 -84 -13q-18 0 -19 -17q-2 -30 -1 -39q4 -29 25 -45t49 -12q25 5 44 18q12 8 121 68q24 14 35 22q1 0 3 2t3 2q18 9 31 1q7 -4 9 -14.5t-2 -19.5q-47 -110 -111 -160q-29 -22 -41 -30q-38 -23 -85.5 -21t-82.5 28q-27 20 -33 41q-2 6 -4 10q-2 -29 -25 -123 q-1 -6 -5 -13q-12 -19 -20 1q-11 26 -33 33q-12 4 -23 31q-1 2 -8 17.5t-8.5 19t-7 17t-7.5 19t-6.5 18t-6 20t-4 18t-3.5 20.5t-1 20q0 2 -3 17l-1 1q-2 0 -4 1q-20 -39 -39 -65q-39 -57 -97 -84q-46 -22 -89.5 -7t-62.5 62q-17 40 -55 60q-73 39 -88 126zM302 262 q0 -32 24 -43q15 -8 40 13q46 37 76 90q44 75 79 191l6 15t6.5 18t2.5 16q-2 1 -6 1q-8 -3 -10 -4q-86 -55 -143 -117q-53 -57 -69 -133q-6 -30 -6 -47zM761 330q4 -2 16 1q69 22 149 85q58 44 84 95q11 22 13 56q1 14 -13 14q-84 3 -140 -54q-40 -41 -82 -120 q-20 -36 -27 -77z" />
<glyph unicode="&#xe7;" horiz-adv-x="661" d="M106 201q-9 59 6 157q8 56 21 96q36 119 86 199q32 52 51 76q61 75 148 72q62 -2 95 -48q64 -92 39 -199q-2 -9 -6 -16q-10 -19 -20 0q-11 22 -21 25q-17 5 -24 30q-10 36 -16 53q-6 18 -26 11q-10 -4 -28 -26q-48 -61 -86 -151q-41 -98 -58 -266q-2 -23 5 -56q8 -1 18 9 q29 29 34 37q15 24 38 46.5t42 36t50 33.5q10 6 15 8q37 11 47 -27q3 -11 3 -22q-4 -96 -34 -149q-32 -56 -53 -81q-24 -27 -50 -41l-18 -51q0 -1 -0.5 -1t-0.5 -1q6 0 12 -3q20 -9 25 -32q1 -4 1.5 -12t0.5 -11q2 -22 -3 -54q0 -2 -6 -25q-6 -21 -16 -36q-11 -18 -30 -15 q-5 1 -10 -4l-5 -5q-12 -11 -27 -1q-13 10 -16 25q-3 12 -3 24q-1 14 9 38q1 2 3 4q8 8 14 1q0 -1 1 -1l1 -2q15 -28 16 -40l3 -12q0 -2 3 -4q3 4 7 12q15 40 17 67q2 26 -2 43q-2 7 -4 9q-4 3 -6 1l-1 -2q-1 -2 -2 -2l-2 -2l-2 -2l-2 -2l-1 -1q-3 -4 -8 -4q-4 0 -8 -4 q-4 -3 -4 3v4l1 2l1 2q-5 11 4 36q2 7 7 20.5t8 20.5q-2 -1 -6 -1t-6 -1q-69 -11 -98 49q-4 8 -10 26q-7 22 -30 30q-69 22 -83 107z" />
<glyph unicode="&#xe8;" horiz-adv-x="843" d="M104 288q-7 82 15 174q36 148 136 258q5 5 14 16.5t14 17.5q64 71 179 89q40 6 55 5q83 2 144 -31q35 -18 50 -47q57 -108 6 -211q-39 -79 -141 -150q-77 -54 -176 -84q-54 -16 -101 -15q-22 0 -23 -20q-2 -37 -1 -47q4 -34 29.5 -52.5t58.5 -13.5q29 5 54 20 q20 13 44 26.5t54 29.5t46 25q30 16 43 26q3 3 7 5q20 10 36 1q8 -5 10.5 -17t-1.5 -23q-56 -132 -133 -190q-32 -24 -49 -35q-45 -27 -102.5 -25t-98.5 33q-32 25 -39 48q-12 37 -47 50q-15 6 -39 30q-39 37 -44 107zM297 387q8 -3 19 1q82 27 179 101q68 51 100 113 q14 27 16 66q1 17 -16 17q-99 5 -167 -65q-52 -53 -99 -142q-25 -47 -32 -91zM403 1060q5 2 9 0q26 -8 43 3q8 4 24 -1q34 -13 60 -26q54 -28 87 -48q38 -23 60 -39q34 -25 35 -46q2 -19 -13 -28t-38 -2q-2 1 -5.5 2t-5.5 2q-13 4 -41 22q-11 7 -154 105q-30 21 -53 42 q-8 8 -8 14z" />
<glyph unicode="&#xe9;" horiz-adv-x="843" d="M104 288q-7 82 15 174q36 148 136 258q5 5 14 16.5t14 17.5q64 71 179 89q40 6 55 5q83 2 144 -31q35 -18 50 -47q57 -108 6 -211q-39 -79 -141 -150q-77 -54 -176 -84q-54 -16 -101 -15q-22 0 -23 -20q-2 -37 -1 -47q4 -34 29.5 -52.5t58.5 -13.5q29 5 54 20 q20 13 44 26.5t54 29.5t46 25q30 16 43 26q3 3 7 5q20 10 36 1q8 -5 10.5 -17t-1.5 -23q-56 -132 -133 -190q-32 -24 -49 -35q-45 -27 -102.5 -25t-98.5 33q-32 25 -39 48q-12 37 -47 50q-15 6 -39 30q-39 37 -44 107zM297 387q8 -3 19 1q82 27 179 101q68 51 100 113 q14 27 16 66q1 17 -16 17q-99 5 -167 -65q-52 -53 -99 -142q-25 -47 -32 -91zM398 941q5 21 40 41q25 14 64 32q30 14 92 38q28 11 63 19q17 3 24 -2q13 -12 42 -7q8 0 9 -1q-2 -8 -10 -14q-27 -19 -57 -36q-143 -75 -165 -86q-24 -12 -43 -17l-12 -3q-24 -4 -37.5 6.5 t-9.5 29.5z" />
<glyph unicode="&#xea;" horiz-adv-x="843" d="M104 288q-7 82 15 174q36 148 136 258q5 5 14 16.5t14 17.5q64 71 179 89q40 6 55 5q83 2 144 -31q35 -18 50 -47q57 -108 6 -211q-39 -79 -141 -150q-77 -54 -176 -84q-54 -16 -101 -15q-22 0 -23 -20q-2 -37 -1 -47q4 -34 29.5 -52.5t58.5 -13.5q29 5 54 20 q20 13 44 26.5t54 29.5t46 25q30 16 43 26q3 3 7 5q21 10 37 1q7 -4 10 -17t-2 -23q-56 -132 -133 -190q-32 -24 -49 -35q-45 -27 -102.5 -25t-98.5 33q-32 25 -39 48q-12 37 -47 50q-15 6 -39 30q-39 37 -44 107zM297 387q8 -3 19 1q82 27 179 101q68 51 100 113 q14 27 16 66q1 17 -16 17q-99 5 -167 -65q-52 -53 -99 -142q-25 -47 -32 -91zM383 916q4 18 9 26q6 11 19.5 34.5t20.5 35.5l18 33q2 4 23 35q8 11 28 15q21 3 24 2q16 -4 24 -19q7 -13 17 -39q6 -17 17.5 -50t17.5 -49q2 -5 5.5 -18.5t6.5 -19.5q4 -8 -6 -20q-6 -8 -12 1 l-3 6q-5 10 -16 11q-12 2 -21 15q-9 14 -21 44q-3 9 -9.5 26t-10.5 25q-1 0 -3 1l-21 -27q-18 -26 -58 -76q-2 -2 -5.5 -7t-5.5 -8q-7 -8 -13 1q-7 11 -18 12q-9 1 -7 10z" />
<glyph unicode="&#xeb;" horiz-adv-x="843" d="M104 288q-7 82 15 174q36 148 136 258q5 5 14 16.5t14 17.5q64 71 179 89q40 6 55 5q83 2 144 -31q35 -18 50 -47q57 -108 6 -211q-39 -79 -141 -150q-77 -54 -176 -84q-54 -16 -101 -15q-22 0 -23 -20q-2 -37 -1 -47q4 -34 29.5 -52.5t58.5 -13.5q29 5 54 20 q20 13 44 26.5t54 29.5t46 25q30 16 43 26q3 3 7 5q21 10 37 1q7 -4 10 -17t-2 -23q-56 -132 -133 -190q-32 -24 -49 -35q-45 -27 -102.5 -25t-98.5 33q-32 25 -39 48q-12 37 -47 50q-15 6 -39 30q-39 37 -44 107zM297 387q8 -3 19 1q82 27 179 101q68 51 100 113 q14 27 16 66q1 17 -16 17q-99 5 -167 -65q-52 -53 -99 -142q-25 -47 -32 -91zM392 988q10 37 32 53t52 8q13 -3 16 -16q0 -4 3.5 -12t2.5 -13q-1 -6 -3.5 -20t-5.5 -24.5t-8 -19.5q-2 -3 -4.5 -6t-5 -4.5t-6.5 -3t-6 -2t-7 -1.5t-6 -1q-8 -1 -12 10q-8 29 -34 34 q-12 3 -8 18zM534 988q10 36 33 53q22 16 51 8q13 -3 16 -16q0 -4 4 -12t3 -13q-1 -6 -3.5 -20t-5.5 -24.5t-8 -19.5q-2 -3 -4.5 -6t-5 -4.5t-6.5 -3t-6 -2t-7 -1.5t-6 -1q-9 -2 -13 10q-8 29 -33 34q-13 3 -9 18z" />
<glyph unicode="&#xec;" horiz-adv-x="522" d="M102 973q3 1 9 -1q26 -8 43 3q9 5 24 0q25 -10 60 -27q54 -28 87 -48q38 -23 60 -39q34 -25 35 -46q2 -19 -13 -28t-38 -2q-2 1 -5.5 2t-5.5 2q-13 4 -41 22q-11 7 -154 105q-30 21 -53 42q-8 8 -8 15zM172 294q-1 44 13 213q8 96 34 172q9 25 22 34t41 10q2 0 10 0.5 t11.5 0t9 -2.5t10.5 -6q13 -13 16 -24q15 -44 23 -136q20 -218 18 -355v-92q-1 -72 -51 -143q-8 -10 -9 -11q-15 -9 -20 5q-4 12 -7 18q-12 27 -35 32q-17 4 -27 22q-45 75 -54 137q-2 16 -5 126z" />
<glyph unicode="&#xed;" horiz-adv-x="516" d="M102 824q1 21 34 47q31 24 58 42q40 27 85 52q19 11 59 29q14 6 24 1q16 -10 43 -1q6 2 8 1q0 -8 -7 -15q-15 -16 -51 -44q-17 -12 -47 -35t-55 -41.5t-48 -34.5q-28 -19 -39 -24q-9 -5 -11 -5q-23 -7 -38.5 1t-14.5 27zM154 294q-1 44 13 213q8 96 34 172q9 25 22 34 t41 10q2 0 10 0.5t11.5 0t9 -2.5t10.5 -6q13 -13 16 -24q15 -44 23 -136q20 -218 18 -355v-92q-1 -72 -51 -143q-8 -10 -9 -11q-15 -9 -20 6q-3 9 -7 17q-12 27 -35 32q-17 4 -27 22q-45 75 -54 137q-2 16 -5 126z" />
<glyph unicode="&#xee;" horiz-adv-x="436" d="M103 840q4 20 9 27q6 11 19 35t20 35q14 26 18 32q4 7 13 19t11 16q8 13 27 16q19 2 25 1q15 -4 23 -18q9 -17 18 -40q6 -16 17.5 -49t17.5 -49q2 -5 5.5 -18t6.5 -20q4 -8 -6 -20q-6 -7 -12 1q-1 1 -2 2.5t-1 2.5q-5 10 -16 11q-12 2 -21 15q-9 14 -21 44q-3 8 -9.5 25 t-10.5 26q-1 1 -3 2q-16 -21 -21 -28q-13 -19 -58 -75l-12 -15q-6 -8 -12 1q-7 11 -18 12q-9 1 -7 9zM114 294q-1 44 13 213q8 96 34 172q9 25 22 34t41 10q2 0 10 0.5t11.5 0t9 -2.5t10.5 -6q14 -14 17 -24q14 -40 22 -136q20 -218 18 -355v-92q-1 -72 -51 -143 q-8 -10 -9 -11q-15 -9 -20 6q-3 9 -7 17q-12 27 -35 32q-17 4 -27 22q-45 75 -54 137q-2 16 -5 126z" />
<glyph unicode="&#xef;" horiz-adv-x="454" d="M103 867q10 35 32 52q23 17 52 9q13 -3 16 -17q0 -4 4 -12t3 -13t-3.5 -19.5t-6 -24.5t-8.5 -19q-7 -13 -35 -19q-8 -1 -12 10q-8 29 -33 34q-13 3 -9 19zM123 294q-1 44 13 213q8 96 34 172q9 25 22 34t41 10q2 0 10 0.5t11.5 0t9 -2.5t10.5 -6q14 -14 17 -24 q14 -40 22 -136q21 -227 19 -355q0 -62 -1 -92q-1 -72 -51 -143q-8 -10 -9 -11q-15 -9 -20 5q-4 12 -7 18q-12 27 -35 32q-17 4 -27 22q-45 75 -54 137q-2 16 -5 126zM246 867q10 35 32 52q23 17 51 9q13 -3 16 -17q0 -3 4 -11.5t3 -13.5q-1 -6 -3.5 -20t-5.5 -24t-8 -19 q-7 -13 -35 -19q-9 -2 -13 10q-8 29 -33 34q-12 3 -8 19z" />
<glyph unicode="&#xf1;" d="M103 234q-2 71 0 142q3 96 4 107q2 20 2 119q0 137 -4 176q-2 24 5.5 33.5t32.5 11.5q31 3 45.5 -6.5t23.5 -37.5q19 -55 37 -167q5 -33 20 -204q0 -6 4 -8q6 27 21.5 75.5t18.5 58.5q34 118 94 206q12 18 42 50q27 27 78.5 34t84.5 -18q30 -25 42 -62q48 -140 54 -309 q6 -138 6 -207q0 -130 -1 -157q-1 -17 -3 -33.5t-7 -37t-7.5 -31t-10 -36.5t-9.5 -32q-1 -4 -5 -10q-6 -10 -13 -9q-3 0 -8 11t-8 16.5t-10.5 11.5t-17.5 7q-7 1 -14 17q-24 47 -50 132q-14 44 -22 147q-8 93 -8 111q-1 38 -1 114q1 29 -2 174q-1 1 -2.5 1t-2.5 1 q-11 -10 -23 -32q-47 -87 -88 -202q-11 -30 -31.5 -94.5t-38.5 -113.5t-37 -93q-18 -39 -18 -75q0 -43 -35 -96q-13 -22 -25 3q-12 27 -29 28q-5 1 -12 10q-39 47 -58 114q-4 12 -6 51q-7 90 -8 109zM251 968q4 26 31 43q38 24 80 10q76 -26 97 -34q14 -5 27 2q6 4 21.5 10 t23.5 11q9 5 15 1t7 -15q1 -40 -30 -70q-17 -16 -39.5 -16.5t-37.5 10.5q-51 31 -92 46q-21 8 -43 -2.5t-29 -31.5q-6 -14 -8 -16q-2 4 -7.5 8.5t-6.5 6.5q-13 14 -9 37z" />
<glyph unicode="&#xf2;" d="M104 272q6 76 21 153q2 9 7 24.5t7 22.5q5 18 8.5 53l4.5 45q7 46 30 96q18 38 40 74q45 71 94 100q132 78 253 20q49 -23 73 -49q30 -32 47 -83q30 -90 26 -162q0 -100 -26 -207q-21 -82 -62 -162q-69 -131 -144 -211q-42 -46 -85 -71q-48 -26 -88 -13t-68 58 q-5 8 -16 34q-4 12 -16 16q-77 29 -97 121q-15 70 -9 141zM258 193q0 -5 0.5 -13t0.5 -13q2 -53 24 -87q8 -11 12.5 -12t15.5 6q15 12 28 25q80 82 132 181q44 85 55 134q24 105 25 132q0 6 2.5 42t1.5 55q-1 17 -7 51q-4 17 -16 20q-44 10 -76 -4q-25 -11 -51 -33 q-59 -52 -78 -107q-41 -121 -53 -207q-15 -106 -16 -170zM343 1083q5 1 9 0q27 -8 43 2q8 5 23 0q29 -11 61 -27q54 -28 87 -48q38 -23 60 -39q34 -25 35 -46q2 -19 -13 -28t-38 -2l-6 3t-6 2q-14 5 -40 21q-11 7 -154 105q-30 21 -53 42q-8 8 -8 15z" />
<glyph unicode="&#xf3;" d="M104 271q6 77 21 153q2 9 7 24.5t7 22.5q5 19 8.5 53.5t4.5 43.5q7 46 30 96q19 42 40 75q45 71 94 100q131 77 253 19q49 -23 73 -49q30 -32 47 -83q30 -90 26 -162q0 -100 -26 -207q-21 -82 -62 -162q-69 -131 -144 -211q-40 -43 -85 -70q-48 -26 -88 -13.5t-68 57.5 q-5 8 -16 34q-4 12 -16 16q-77 29 -97 121q-15 70 -9 142zM258 191q0 -5 0.5 -13t0.5 -13q2 -53 24 -87q7 -11 12.5 -12t15.5 7q20 16 28 24q80 82 132 181q44 85 55 134q24 105 25 132q0 6 2.5 42.5t1.5 55.5q-1 16 -7 50q-4 18 -16 21q-42 10 -76 -5q-25 -11 -51 -33 q-59 -52 -78 -107q-41 -122 -53 -206q-15 -106 -16 -171zM296 948q1 22 34 48q24 19 58 41q40 27 85 52q19 11 59 29q15 7 24 2q16 -10 43 -1q4 1 8 0q0 -8 -7 -15q-15 -16 -51 -44q-17 -12 -47 -35t-55 -41.5t-48 -34.5q-28 -19 -39 -24q-5 -3 -11 -4q-23 -7 -38.5 0.5 t-14.5 26.5z" />
<glyph unicode="&#xf4;" d="M104 271q6 77 21 153q2 9 7 24.5t7 22.5q5 19 8.5 53.5t4.5 43.5q7 46 30 96q19 42 40 75q45 71 94 100q131 77 253 19q49 -23 73 -49q30 -32 47 -83q30 -90 26 -162q0 -100 -26 -207q-21 -82 -62 -162q-69 -131 -144 -211q-40 -43 -85 -70q-48 -26 -88 -13.5t-68 57.5 q-5 8 -16 34q-4 12 -16 16q-77 29 -97 121q-15 70 -9 142zM259 165q2 -53 24 -87q7 -11 12.5 -12t15.5 7q20 16 28 24q80 82 132 181q44 85 55 134q24 105 25 132q0 6 2.5 42.5t1.5 55.5q-1 16 -7 50q-4 18 -16 21q-42 10 -76 -5q-25 -11 -51 -33q-59 -52 -78 -107 q-41 -122 -53 -206q-14 -98 -15 -171v-26zM376 952q4 18 9 26q6 11 19.5 34.5t20.5 35.5q2 4 7.5 15.5t9.5 17.5q4 7 13 19t11 16q8 12 28 16q19 2 24 1q16 -4 24 -19q7 -13 17 -39q6 -16 17.5 -49t17.5 -49q2 -5 5.5 -18t6.5 -20q4 -8 -6 -20q-6 -7 -12 1q0 1 -1 2.5 t-2 2.5q-5 10 -16 11q-12 2 -21 15q-9 14 -21 44q-3 9 -10 26t-10 25q-1 1 -3 2q-16 -21 -21 -28q-18 -26 -58 -76q-2 -3 -5.5 -7.5t-5.5 -6.5q-7 -9 -13 0q-7 11 -18 12q-9 1 -7 10z" />
<glyph unicode="&#xf5;" d="M104 272q6 76 21 153q2 9 7 24.5t7 22.5q5 18 8.5 53l4.5 45q7 46 30 96q18 38 40 74q45 71 94 100q132 78 253 20q49 -23 73 -49q30 -32 47 -83q30 -90 26 -162q0 -100 -26 -207q-21 -82 -62 -162q-69 -131 -144 -211q-42 -46 -85 -71q-48 -26 -88 -13t-68 58 q-5 8 -16 34q-4 12 -16 16q-77 29 -97 121q-15 70 -9 141zM258 193q0 -5 0.5 -13t0.5 -13q2 -53 24 -87q8 -11 12.5 -12t15.5 6q15 12 28 25q80 82 132 181q44 85 55 134q24 105 25 132q0 6 2.5 42t1.5 55q-1 17 -7 51q-4 17 -16 20q-44 10 -76 -4q-25 -11 -51 -33 q-59 -52 -78 -107q-41 -121 -53 -207q-15 -106 -16 -170zM345 1019q4 28 30 44q39 25 81 10q64 -22 96 -34q15 -6 28 1q6 4 21.5 10t23.5 11q9 5 15 1t7 -15q1 -40 -30 -70q-33 -32 -77 -5q-51 31 -92 46q-21 8 -43 -3t-29 -32q-6 -14 -8 -16q-2 4 -7.5 9.5l-6.5 6.5 q-12 14 -9 36z" />
<glyph unicode="&#xf6;" d="M104 272q6 76 21 153q2 9 7 24.5t7 22.5q5 18 8.5 53l4.5 45q7 46 30 96q18 38 40 74q45 71 94 100q132 78 253 20q49 -23 73 -49q30 -32 47 -83q30 -90 26 -162q0 -100 -26 -207q-21 -82 -62 -162q-69 -131 -144 -211q-42 -46 -85 -71q-48 -26 -88 -13t-68 58 q-5 8 -16 34q-4 12 -16 16q-77 29 -97 121q-15 70 -9 141zM258 193q0 -5 0.5 -13t0.5 -13q2 -53 24 -87q8 -11 12.5 -12t15.5 6q15 12 28 25q80 82 132 181q44 85 55 134q24 105 25 132q0 6 2.5 42t1.5 55q-1 17 -7 51q-4 17 -16 20q-44 10 -76 -4q-25 -11 -51 -33 q-59 -52 -78 -107q-41 -121 -53 -207q-15 -106 -16 -170zM361 990q10 37 32 53t51 8q13 -3 16 -16q0 -4 4 -12.5t3 -13.5q-1 -6 -3.5 -20t-5.5 -24t-8 -19q-2 -3 -4.5 -6t-5 -4.5t-6.5 -3t-6 -2t-7 -1.5t-6 -1q-9 -2 -13 9q-9 30 -33 35q-12 3 -8 18zM503 990q10 37 32 53 t51 8q15 -4 17 -16q0 -3 3.5 -12t2.5 -14q-1 -6 -3.5 -20t-5.5 -24t-8 -19q-2 -3 -4.5 -6t-5 -4.5t-6.5 -3t-6 -2t-7 -1.5t-6 -1q-9 -2 -13 9q-9 30 -33 35q-12 3 -8 18z" />
<glyph unicode="&#xf8;" horiz-adv-x="833" d="M104 272q6 76 21 153q2 9 7 24.5t7 22.5q5 18 8.5 53l4.5 45q7 46 30 96q18 38 40 74q45 71 94 100q132 78 253 20q32 -15 53 -31q22 30 33 44q31 41 44 53q8 8 14 9q12 2 16 -6t-3 -21q-17 -27 -66 -119q18 -26 29 -61q30 -90 26 -162q0 -100 -26 -207q-21 -82 -62 -162 q-69 -131 -144 -211q-42 -46 -85 -71q-48 -26 -88 -13t-68 58q-5 8 -16 34q-3 8 -11 13q-4 -6 -11.5 -18.5t-11.5 -19.5q-8 -13 -26 -39q-9 -12 -31 -26q-7 -4 -11.5 0.5t-2.5 12.5l3 12q8 29 -2 41q-2 3 -7 15q-8 20 5 45q7 12 19 36q-19 29 -26 65q-15 70 -9 141zM265 291 q5 7 14 22.5t13 23.5q21 35 65 103q58 88 87 131q13 19 44.5 66.5t49.5 73.5l-6 3q-44 10 -76 -4q-25 -11 -51 -33q-59 -52 -78 -107q-41 -121 -53 -207zM271 102q4 -11 12 -22t12.5 -12t15.5 6q15 12 28 25q80 82 132 181q44 85 55 134q24 105 25 132q1 10 2 29.5t2 28.5 q-37 -63 -99 -175q-11 -20 -33.5 -60.5t-33.5 -60.5q-47 -85 -118 -206z" />
<glyph unicode="&#xf9;" horiz-adv-x="841" d="M103 467q-1 12 0.5 34t1.5 31q0 59 22 151q13 51 21 72q14 32 31 40q38 18 56 16q5 0 24.5 1.5t24.5 -1.5q14 -4 22 -15q2 -3 8.5 -2t6.5 -4q1 -3 2 -9.5t1 -9.5q3 -16 4 -18q19 -29 10 -71q-17 -82 -19 -231q-2 -120 24 -193q3 -9 10.5 -26.5l10.5 -24.5q9 5 13 20 q7 23 21 67t21 67q11 36 27 104.5t25 99.5q4 13 10 40t12.5 48t14.5 39q3 7 3 21q1 18 14 34q9 10 21 9q1 0 3 -1q3 -1 4 0q7 5 15 7t19 1.5t16 0.5q38 5 49 -15q9 -2 15.5 -8t8.5 -11t4.5 -16t3.5 -14q37 -126 48 -323q7 -130 7 -221q0 -38 -2 -106.5t-2 -90.5 q0 -88 -8 -124q-7 -32 -23 -96q-2 -8 -4 -11q-1 -2 -2.5 -5.5t-2.5 -5.5t-3.5 -3.5t-6.5 -1.5t-6.5 2t-3.5 4t-2 6t-2 5q-13 32 -37 34q-4 1 -13 12q-23 31 -37 66q-4 9 -11 26t-12.5 31t-9.5 27q-6 20 -13 77q0 3 -9 95q-5 -10 -13.5 -28.5t-16 -33.5t-15.5 -27 q-2 -2 -4.5 -6t-3.5 -6q-22 -30 -46 -34.5t-55 15.5q-42 25 -75 89q-13 25 -37 38q-53 27 -96 94q-24 40 -31 61q-23 70 -26 102q-6 70 -7 106zM280 1082q4 2 9 0q26 -8 43 3q7 4 23 -1q38 -14 61 -26q43 -22 87 -49q45 -27 60 -38q34 -25 35 -46q2 -19 -13 -28t-38 -2 q-2 0 -6 1.5t-6 2.5q-10 4 -40 22q-11 7 -154 105q-30 21 -53 42q-8 8 -8 14z" />
<glyph unicode="&#xfa;" horiz-adv-x="841" d="M103 467q-1 12 0.5 34t1.5 31q0 59 22 151q13 51 21 72q14 32 31 40q38 18 56 16q5 0 24.5 1.5t24.5 -1.5q14 -4 22 -15q2 -3 8.5 -2t6.5 -4q1 -3 2 -9.5t1 -9.5q3 -16 4 -18q19 -29 10 -71q-17 -82 -19 -231q-2 -120 24 -193q3 -9 10.5 -26.5l10.5 -24.5q9 5 13 20 q7 23 21 67t21 67q11 36 27 104.5t25 99.5q4 13 10 40t12.5 48t14.5 39q3 7 3 21q1 18 14 34q9 10 21 9q1 0 3 -1q3 -1 4 0q7 5 15 7t19 1.5t16 0.5q38 5 49 -15q9 -2 15.5 -8t8.5 -11t4.5 -16t3.5 -14q37 -126 48 -323q7 -130 7 -221q0 -38 -2 -106.5t-2 -90.5 q0 -88 -8 -124q-7 -32 -23 -96q-2 -8 -4 -11q-1 -2 -2.5 -5.5t-2.5 -5.5t-3.5 -3.5t-6.5 -1.5t-6.5 2t-3.5 4t-2 6t-2 5q-13 32 -37 34q-4 1 -13 12q-23 31 -37 66q-4 9 -11 26t-12.5 31t-9.5 27q-6 20 -13 77q0 3 -9 95q-5 -10 -13.5 -28.5t-16 -33.5t-15.5 -27 q-2 -2 -4.5 -6t-3.5 -6q-40 -56 -100 -19q-44 26 -76 89q-13 25 -37 38q-53 27 -96 94q-24 40 -31 61q-23 70 -26 102q-6 70 -7 106zM303 918q1 23 33 48q24 19 58 41q40 27 85 52q16 9 60 29q15 7 23 2q16 -10 43 -1q6 2 9 1q0 -7 -8 -15q-21 -23 -50 -45q-17 -12 -47 -35 t-55 -41.5t-48 -34.5q-24 -16 -39 -23q-8 -4 -12 -5q-23 -7 -38 0.5t-14 26.5z" />
<glyph unicode="&#xfb;" horiz-adv-x="841" d="M103 467q-1 12 0.5 34t1.5 31q0 59 22 151q13 51 21 72q14 32 31 40q38 18 56 16q5 0 24.5 1.5t24.5 -1.5q14 -4 22 -15q2 -3 8.5 -2t6.5 -4q1 -3 2 -9.5t1 -9.5q3 -16 4 -18q19 -29 10 -71q-17 -82 -19 -231q-2 -120 24 -193q3 -9 10.5 -26.5l10.5 -24.5q9 5 13 20 q7 23 21 67t21 67q11 36 27 104.5t25 99.5q4 13 10 40t12.5 48t14.5 39q3 7 3 21q1 18 14 34q10 10 21 9q1 0 3 -1q3 -1 4 0q7 5 15 7t19 1.5t16 0.5q38 5 49 -15q9 -2 15.5 -8t8.5 -11t4.5 -16t3.5 -14q37 -126 48 -323q7 -130 7 -221q0 -38 -2 -106.5t-2 -90.5 q0 -88 -8 -124q-7 -32 -23 -96q-2 -8 -4 -11q-1 -2 -2.5 -5.5t-2.5 -5.5t-3.5 -3.5t-6.5 -1.5t-6.5 2t-3.5 4t-2 6t-2 5q-13 32 -37 34q-4 1 -13 12q-23 31 -37 66q-4 9 -11 26t-12.5 31t-9.5 27q-6 20 -13 77q0 3 -9 95q-5 -10 -13.5 -28.5t-16 -33.5t-15.5 -27 q-2 -2 -4.5 -6t-3.5 -6q-22 -30 -46 -34.5t-55 15.5q-42 25 -75 89q-13 25 -37 38q-53 27 -96 94q-24 40 -31 61q-23 70 -26 102q-6 70 -7 106zM305 935q4 18 9 26q7 11 20 34.5t20 35.5l18 33q2 4 23 35q8 12 28 16q19 2 24 1q16 -4 24 -19q7 -13 17 -39q6 -16 17.5 -48.5 t17.5 -49.5q2 -5 5.5 -18.5t6.5 -19.5q4 -8 -6 -20q-6 -8 -12 1q-1 1 -2 2.5t-1 2.5q-5 10 -16 11q-12 2 -21 15q-9 14 -21 44q-4 9 -10 26t-10 25q-1 1 -3 2q-9 -12 -20 -28q-12 -17 -59 -76q-2 -2 -5.5 -6.5t-5.5 -7.5q-7 -9 -13 0q-7 11 -17 12t-8 10z" />
<glyph unicode="&#xfc;" horiz-adv-x="841" d="M103 467q-1 12 0.5 34t1.5 31q0 59 22 151q13 51 21 72q14 32 31 40q38 18 56 16q5 0 24.5 1.5t24.5 -1.5q14 -4 22 -15q2 -3 8.5 -2t6.5 -4q1 -3 2 -9.5t1 -9.5q3 -16 4 -18q19 -29 10 -71q-17 -82 -19 -231q-2 -120 24 -193q3 -9 10.5 -26.5l10.5 -24.5q9 5 13 20 q7 23 21 67t21 67q11 36 27 104.5t25 99.5q4 13 10 40t12.5 48t14.5 39q3 7 3 21q1 18 14 34q9 10 21 9q1 0 3 -1q3 -1 4 0q7 5 15 7t19 1.5t16 0.5q38 5 49 -15q9 -2 15.5 -8t8.5 -11t4.5 -16t3.5 -14q37 -126 48 -323q7 -130 7 -221q0 -38 -2 -106.5t-2 -90.5 q0 -88 -8 -124q-7 -32 -23 -96q-2 -8 -4 -11q-1 -2 -2.5 -5.5t-2.5 -5.5t-3.5 -3.5t-6.5 -1.5t-6.5 2t-3.5 4t-2 6t-2 5q-13 32 -37 34q-4 1 -13 12q-23 31 -37 66q-4 9 -11 26t-12.5 31t-9.5 27q-6 20 -13 77q0 3 -9 95q-5 -10 -13.5 -28.5t-16 -33.5t-15.5 -27 q-2 -2 -4.5 -6t-3.5 -6q-22 -30 -46 -34.5t-55 15.5q-42 25 -75 89q-13 25 -37 38q-53 27 -96 94q-24 40 -31 61q-23 70 -26 102q-6 70 -7 106zM314 989q10 37 32 53q23 17 51 9q14 -4 17 -17q0 -4 3.5 -12t2.5 -13q-1 -6 -3.5 -20t-5.5 -24t-8 -19q-7 -13 -35 -19 q-9 -2 -13 10q-8 29 -33 34q-12 3 -8 18zM456 989q10 37 32 53t52 8q13 -3 16 -16q0 -4 4 -12t3 -13t-3.5 -19.5t-6 -24.5t-8.5 -19q-7 -13 -35 -19q-8 -1 -12 10q-8 29 -33 34q-13 3 -9 18z" />
<glyph unicode="&#xfd;" horiz-adv-x="1003" d="M103 571q-3 73 6 132q6 40 8 60q1 14 8 29q17 40 61 40h19q36 2 49 -34q5 -15 9 -31t7 -36.5t4 -30t3.5 -36.5t2.5 -32q14 -177 59 -294q36 -93 76 -149q1 -1 8.5 -16.5t15.5 -21.5q13 7 16 15q28 71 35 89q6 18 10 26q13 26 55 153q7 21 21 62.5t21 61.5q9 27 24.5 83 t25.5 83q3 9 7.5 26.5t7.5 26.5q7 22 17.5 33t30.5 10q9 0 13 5q6 8 25 6q10 -2 20 1q12 1 16.5 2t15 -3t14 -6t13.5 -7.5t13 -7.5q1 -1 4 -13q6 -18 10 -38t7.5 -46.5t5.5 -38.5q37 -224 35 -516q-2 -251 -19 -452q-12 -126 -33 -193q-30 -93 -85 -136q-81 -62 -179 -15 q-69 34 -117 99q-19 25 -40 41q-24 18 -39 40q-25 36 -18 75q4 22 15 24q27 6 37 -10q10 -18 22 -32.5t31.5 -27.5t29.5 -19.5t36.5 -20t33.5 -17.5q48 -26 81 24q19 30 31 73q18 67 27 171q3 36 6.5 102t4.5 82q2 27 4 89.5t5 96.5q2 13 -6 25q-23 -60 -25 -64 q-48 -119 -70 -153q-33 -50 -48 -68q-20 -23 -48.5 -28t-56.5 9q-47 24 -80 71q-21 29 -42 65q-7 12 -20 18q-63 31 -106 100q-32 53 -57 100q-13 26 -41 116q-3 11 -22 97q-6 32 -11 131zM347 948q1 23 33 48q24 19 58 41q40 27 85 52q19 11 59 29q15 7 24 2q16 -10 43 -1 q5 1 9 0q0 -7 -8 -15q-18 -19 -50 -44q-17 -12 -47 -35t-55 -41.5t-48 -34.5q-26 -18 -40 -24q-5 -3 -11 -4q-23 -7 -38 0.5t-14 26.5z" />
<glyph unicode="&#xff;" horiz-adv-x="1003" d="M103 571q-3 73 6 132q6 40 8 60q1 14 8 29q17 40 61 40h19q36 2 49 -34q5 -15 9 -31t7 -36.5t4 -30t3.5 -36.5t2.5 -32q14 -177 59 -294q36 -93 76 -149q1 -1 8.5 -16.5t15.5 -21.5q13 7 16 15q28 71 35 89q6 18 10 26q13 26 55 153q7 21 21 62.5t21 61.5q9 27 24.5 83 t25.5 83q3 9 7.5 26.5t7.5 26.5q7 22 17.5 33t30.5 10q9 0 13 5q6 8 25 6q10 -2 20 1q12 1 16.5 2t15 -3t14 -6t13.5 -7.5t13 -7.5q1 -1 4 -13q6 -18 10 -38t7.5 -46.5t5.5 -38.5q37 -224 35 -516q-2 -251 -19 -452q-12 -126 -33 -193q-30 -93 -85 -136q-81 -62 -179 -15 q-69 34 -117 99q-19 25 -40 41q-24 18 -39 40q-25 36 -18 75q4 22 15 24q27 6 37 -10q10 -18 22 -32.5t31.5 -27.5t29.5 -19.5t36.5 -20t33.5 -17.5q48 -26 81 24q19 30 31 73q18 67 27 171q3 36 6.5 102t4.5 82q2 27 4 89.5t5 96.5q2 13 -6 25q-23 -60 -25 -64 q-48 -119 -70 -153q-33 -50 -48 -68q-20 -23 -48.5 -28t-56.5 9q-47 24 -80 71q-21 29 -42 65q-7 12 -20 18q-63 31 -106 100q-32 53 -57 100q-13 26 -41 116q-3 11 -22 97q-6 32 -11 131zM344 1019q10 36 33 53q22 16 51 8q13 -3 16 -16q0 -4 4 -12.5t3 -13.5 q-1 -6 -3.5 -20t-5.5 -24t-8 -19q-2 -3 -4.5 -6t-5 -4.5t-6.5 -3t-6 -2t-7 -1.5t-6 -1q-9 -2 -13 9q-9 30 -33 35q-13 3 -9 18zM487 1019q10 37 32 53t51 8q15 -4 17 -16q0 -3 3.5 -12t2.5 -14q-1 -6 -3.5 -20t-5.5 -24t-8 -19q-2 -3 -4.5 -6t-5 -4.5t-6.5 -3t-6 -2t-7 -1.5 t-6 -1q-9 -2 -13 9q-9 30 -33 35q-12 3 -8 18z" />
<glyph unicode="&#x152;" horiz-adv-x="1755" d="M103 477q2 18 2.5 51t1.5 44q2 37 7 54q1 4 2.5 13.5t3.5 17t7 12.5q-1 12 1 25t4 22t6.5 24.5t6.5 22.5q21 86 30 111t26.5 75t26.5 75q4 10 1 22q-12 50 -7 103q3 37 23 71q40 70 84 110q47 43 90 65q105 53 184 61q101 10 177 -16q98 -34 162 -94q15 -15 55 -73 q10 -13 20 -34q42 29 51 37q8 6 25 14.5t23 12.5q111 71 231 98q89 19 137 -12q20 -13 21 -29q1 -8 7 -22q13 -31 3 -62.5t-40 -49.5q-61 -37 -96 -63q-76 -58 -123 -99q-78 -69 -105 -98q-8 -8 -7 -15q42 12 124 36q80 23 148 26q56 2 85 -24q3 -3 5 -3q17 -1 22.5 -11 t6.5 -28q1 -14 13 -40q30 -64 -8 -131q-6 -11 -13.5 -21.5t-18.5 -22.5t-16 -17.5t-20.5 -20t-18.5 -17.5q-41 -40 -150 -167l-81 -102q-7 -9 -7 -14q5 -5 14 1q64 35 142 65q31 12 138 38q58 14 72 20q4 2 16 4q10 3 23 2.5t20 -10.5q21 -32 6 -55q-25 -39 -85 -109 q-56 -64 -179 -146q-125 -83 -163 -105l-17 -9q-17 -10 -19.5 -11t-17 -8.5t-20.5 -9.5l-18 -6t-22 -5.5t-20 -1.5q-30 -1 -51 14.5t-29 43.5q-6 25 -16 34q-8 8 -10 22t-9 16q-9 4 -29 18.5t-34 17.5q-16 4 -27 9q-33 -41 -79 -84q-61 -57 -102 -82q-60 -37 -70 -41 q-33 -14 -50.5 -20t-52 -13t-54.5 0q-101 17 -137 107q-12 30 -14 38q-13 41 -56 55q-42 15 -60 31q-39 35 -54 63q-20 36 -36 107q-15 66 -12 93zM387 449q2 -67 16 -118q10 -31 27 -51t38 -10q5 2 14 5.5t16 7t13 7.5l57 39q58 40 99 89q44 52 75 104q69 112 91 226 q4 17 13 88h-1q-1 1 -2 1q-25 7 -48 21q-32 20 -39 43.5t5 55.5q14 43 60 98q3 3 7.5 9t6.5 9q-4 23 -36 96q-5 10 -13 11q-68 17 -121 8q-13 -2 -25.5 -6.5t-28.5 -12t-23 -10.5q-11 -4 -23 -11t-19 -12t-21.5 -15.5t-19.5 -13.5q-10 -8 -14 -24q-5 -23 -15.5 -69 t-16.5 -69q-8 -36 -20 -103t-15 -84q-34 -176 -37 -309z" />
<glyph unicode="&#x153;" horiz-adv-x="1245" d="M104 272q6 76 21 153q2 9 7 24.5t7 22.5q5 18 8.5 53l4.5 45q7 46 30 96q18 38 40 74q45 71 94 100q132 78 253 20q49 -23 73 -49q30 -32 47 -83q21 -64 25 -109q3 4 7.5 10.5t8.5 12t8 10.5q3 4 10.5 15.5t12.5 17.5q55 71 150 87q30 5 45 4q71 2 121 -29q29 -19 41 -46 q48 -105 5 -205q-34 -77 -117 -145q-66 -52 -148 -82q-44 -16 -83 -15q-18 0 -19 -19q-2 -35 -1 -45q4 -33 24.5 -51.5t48.5 -13.5q25 5 45 20q11 8 120 79q32 21 36 25q3 3 5 4q20 10 31 2q7 -4 9 -16.5t-2 -22.5q-47 -128 -111 -185q-23 -21 -41 -34q-38 -26 -85 -24 t-82 31q-27 23 -33 48q-9 34 -39 48q-11 5 -33 29q-20 23 -28 55q-70 -127 -137 -198q-42 -46 -85 -71q-48 -26 -88 -13t-68 58q-5 8 -16 34q-4 12 -16 16q-77 29 -97 121q-15 70 -9 141zM259 167q2 -53 24 -87q8 -11 12.5 -12t15.5 6q15 12 28 25q80 82 132 181 q44 85 55 134q24 105 25 132q0 6 2.5 42t1.5 55q-1 17 -7 51q-4 17 -16 20q-44 10 -76 -4q-25 -11 -51 -33q-59 -52 -78 -107q-41 -121 -53 -207q-14 -98 -15 -170v-26zM773 329q8 -3 16 1q67 25 149 98q56 50 83 110q12 27 14 64q1 16 -14 16q-84 3 -139 -62 q-44 -53 -83 -138q-20 -42 -26 -89z" />
<glyph unicode="&#x178;" horiz-adv-x="1026" d="M104 960v45q2 88 6 109q15 100 31 176q1 7 26 86q13 40 30 73q12 25 37 32q10 3 29 4.5t24 2.5q12 2 24.5 -9t18.5 -24q5 -11 8 -22.5t3 -26.5t-0.5 -22t-3.5 -26t-3 -23q-18 -147 -18 -270q0 -120 5 -152q17 -111 91 -188q13 16 26 35q43 64 84 172q27 70 34 88t17 52 t12 41q14 42 33.5 122t29.5 113q4 14 22 36q8 9 20 9q7 -1 25 7q11 5 32.5 5t26.5 1q3 0 31 -11q7 -3 12.5 -7t10 -12t6.5 -10.5t6 -14t4 -12.5q33 -82 53 -196q23 -127 27 -349q1 -85 -7 -188q-13 -190 -64 -335q-37 -107 -81 -180q-24 -41 -63 -77q-48 -43 -130 -36 q-60 4 -118 32q-10 5 -33 15t-35 16q-74 38 -105 106q-10 21 -30 31q-41 20 -59 45q-30 44 -25 86q4 37 31 92q9 17 41 17q18 0 25 -21q0 -1 2 -5.5t2 -6.5q2 -27 15.5 -53.5t25.5 -40.5t37 -41q5 -6 17 -12q81 -38 156 -59q20 -6 35 8q15 12 41 54q20 33 48 103 q29 71 47 183q17 101 16 145q0 3 1.5 9.5t1.5 11.5t-4 9q-4 -1 -8 -9q-30 -62 -70 -115q-19 -26 -33 -41t-37.5 -30t-49.5 -20q-36 -6 -59 -1q-83 15 -131 100q-32 58 -81 83q-40 20 -79 89q-30 51 -36 76q-1 2 -8 28t-8 40q-2 20 -8 58zM407 1620q10 37 32 53t51 8 q13 -3 16 -16q0 -4 4 -12.5t3 -13.5q-1 -6 -3.5 -20t-5.5 -24t-8 -19q-2 -3 -4.5 -6t-5 -4.5t-6.5 -3t-6 -2t-7 -1.5t-6 -1q-9 -2 -13 9q-8 29 -33 34q-12 3 -8 19zM549 1620q10 37 32 53t52 8q13 -3 16 -16q0 -4 4 -12.5t3 -13.5t-3.5 -19.5t-6 -24.5t-8.5 -19 q-2 -3 -4.5 -6t-5 -4.5t-6.5 -3t-6 -2t-7 -1.5t-6 -1q-9 -1 -12 9q-8 29 -33 34q-13 3 -9 19z" />
<glyph unicode="&#x2000;" horiz-adv-x="865" />
<glyph unicode="&#x2001;" horiz-adv-x="1730" />
<glyph unicode="&#x2002;" horiz-adv-x="865" />
<glyph unicode="&#x2003;" horiz-adv-x="1730" />
<glyph unicode="&#x2004;" horiz-adv-x="576" />
<glyph unicode="&#x2005;" horiz-adv-x="432" />
<glyph unicode="&#x2006;" horiz-adv-x="288" />
<glyph unicode="&#x2007;" horiz-adv-x="288" />
<glyph unicode="&#x2008;" horiz-adv-x="216" />
<glyph unicode="&#x2009;" horiz-adv-x="346" />
<glyph unicode="&#x200a;" horiz-adv-x="96" />
<glyph unicode="&#x2010;" horiz-adv-x="538" d="M31 537q5 8 19 11q42 9 87 12q191 14 246 16q41 2 61 -1q2 -1 7.5 -2t8.5 -1q31 -7 42 -25.5t-3 -37.5q-16 -21 -72 -27q-16 -2 -93 -4q-59 -1 -132 2q-28 1 -86 9q-22 3 -28 14q-11 21 -47 29q-8 2 -10 5z" />
<glyph unicode="&#x2011;" horiz-adv-x="538" d="M31 537q5 8 19 11q42 9 87 12q191 14 246 16q41 2 61 -1q2 -1 7.5 -2t8.5 -1q31 -7 42 -25.5t-3 -37.5q-16 -21 -72 -27q-16 -2 -93 -4q-59 -1 -132 2q-28 1 -86 9q-22 3 -28 14q-11 21 -47 29q-8 2 -10 5z" />
<glyph unicode="&#x2012;" horiz-adv-x="538" d="M31 537q5 8 19 11q42 9 87 12q191 14 246 16q41 2 61 -1q2 -1 7.5 -2t8.5 -1q31 -7 42 -25.5t-3 -37.5q-16 -21 -72 -27q-16 -2 -93 -4q-59 -1 -132 2q-28 1 -86 9q-22 3 -28 14q-11 21 -47 29q-8 2 -10 5z" />
<glyph unicode="&#x2013;" horiz-adv-x="679" d="M102 537q5 8 19 11q42 9 88 12q191 14 246 16q40 2 60 -1q2 -1 8 -2t9 -1q30 -7 41 -25.5t-3 -37.5q-16 -22 -71 -27q-15 -1 -94 -4q-58 -1 -131 2q-29 1 -87 9q-21 3 -27 14q-11 21 -48 29q-8 2 -10 5z" />
<glyph unicode="&#x2014;" horiz-adv-x="882" d="M102 555q6 5 27 8q54 7 125 10q234 10 351 12q49 2 86 -1q4 0 11.5 -0.5t11.5 -1.5q65 -8 66 -31q0 -8 -11 -17q-23 -17 -101 -21q-44 -2 -134 -4q-84 -1 -187 2q-42 1 -124 7q-33 4 -39 10q-17 17 -67 23q-13 3 -15 4z" />
<glyph unicode="&#x2018;" horiz-adv-x="374" d="M106 1377q13 37 30 67q28 51 39 65q30 38 43 48q22 12 34 13q13 1 17.5 -5.5t-0.5 -19.5q-2 -4 -11 -23q-5 -10 -5 -19q-3 -84 -61 -150l-36 -42q-11 -13 -23 -2q-18 15 -26 30q-9 16 -1 38z" />
<glyph unicode="&#x2019;" horiz-adv-x="352" d="M104 1326q2 8 8 24q4 9 3 19q-7 82 45 156q6 9 16.5 25.5t13.5 20.5q10 14 23 5q17 -11 29 -27q10 -14 5 -38q-9 -35 -22 -69q-26 -60 -32 -70q-27 -43 -37 -52q-20 -15 -32 -17q-13 -2 -18.5 4t-1.5 19z" />
<glyph unicode="&#x201c;" horiz-adv-x="544" d="M106 1377q13 37 30 67q28 51 39 65q30 38 43 48q22 12 34 13q13 1 17.5 -5.5t-0.5 -19.5q-2 -4 -11 -23q-5 -10 -5 -19q-3 -84 -61 -150l-36 -42q-11 -13 -23 -2q-18 15 -26 30q-9 16 -1 38zM276 1339q-9 15 0 38q13 37 30 67q28 51 39 65q30 38 43 48q22 12 33 13 q14 1 18.5 -5.5t-0.5 -19.5q-2 -4 -11 -23q-5 -10 -5 -19q-3 -83 -62 -150q-6 -7 -17.5 -21t-17.5 -21q-11 -13 -23 -2q-20 16 -27 30z" />
<glyph unicode="&#x2022;" horiz-adv-x="368" d="M105 557q20 64 94 65q41 3 58 -38q11 -21 8 -47t-10 -43.5t-22 -41.5q-5 -8 -16 -15q-26 -14 -38 12q-3 6 -7 18q-8 23 -29 27q-16 4 -27 17q-19 21 -11 46z" />
<glyph unicode="&#x2026;" d="M105 139q20 65 94 66q40 3 58 -39q11 -21 8 -47t-10 -43.5t-22 -41.5q-5 -8 -16 -15q-26 -14 -38 13q-4 8 -7 17q-8 23 -29 27q-15 4 -27 18q-19 21 -11 45zM330 139q20 65 94 66q40 3 58 -39q11 -21 8 -47t-10 -43.5t-22 -41.5q-6 -9 -16 -15q-26 -14 -38 13q-4 8 -7 17 q-8 23 -29 27q-16 4 -28 18q-18 20 -10 45zM555 139q20 65 94 66q39 3 57 -39q23 -57 -23 -132q-4 -7 -17 -15q-25 -13 -37 13q-7 14 -8 17q-8 23 -28 27q-16 4 -28 18q-18 20 -10 45z" />
<glyph unicode="&#x202f;" horiz-adv-x="346" />
<glyph unicode="&#x2039;" horiz-adv-x="641" d="M103 524.5q-3 5.5 12 19.5q20 20 32 29q14 11 20 21q52 88 192 177q41 25 86 56q26 18 41 11q23 -10 29 -23t-21 -40q-52 -50 -90 -80q-94 -75 -105 -82q-71 -48 -102 -64q-34 -14 -38 -16q10 -4 20 -10q14 -7 26 -10q100 -18 231 -106q44 -29 80 -52q24 -16 22 -29 q-3 -20 -15 -28t-45 6q-61 26 -105 50q-86 47 -111 62q-75 48 -93 63q-36 34 -43 44q-20 -4 -23 1.5z" />
<glyph unicode="&#x203a;" horiz-adv-x="641" d="M102 808q3 20 15 28t46 -6q61 -26 105 -50q86 -47 111 -62q75 -48 93 -63q36 -34 43 -44q20 4 23 -1.5t-12 -19.5q-17 -17 -33 -29q-13 -10 -19 -21q-53 -90 -192 -178q-58 -36 -86 -55q-26 -18 -41 -11q-23 10 -29 23t21 40q56 54 89 80q89 71 106 82q71 48 102 64 q34 14 38 16q-10 4 -20 10q-13 7 -27 10q-102 19 -231 105q-71 47 -80 53q-24 16 -22 29z" />
<glyph unicode="&#x205f;" horiz-adv-x="432" />
<glyph unicode="&#x20ac;" horiz-adv-x="876" d="M102.5 705q0.5 7 4.5 9l6 3q16 10 18 25q2 8 4 13q6 19 21 20q10 1 34.5 5.5t37.5 5.5q44 4 65 4q1 4 8 20t17 48t16 48q5 11 15.5 31.5t12.5 23.5q30 57 63 101q44 58 76 83q12 10 49 25q78 31 152 -11q36 -20 48 -63q13 -47 13 -89q0 -15 -8 -29q-9 -16 -17 1 q-1 1 -1 4q-6 26 -30.5 34.5t-43.5 -0.5q-44 -15 -74 -65q-48 -79 -64 -119q-3 -7 -8.5 -22t-8.5 -23q9 -1 26.5 -2t31.5 -2t26 -2q66 -6 99 -12q22 -4 37 -10q7 -2 9 -6q5 -8 2 -17q-3 -8 -10 -8q-18 1 -50.5 -4t-43.5 -6q-28 -1 -67 -6q-38 -2 -87 -6q-1 -4 -3 -11.5 t-3 -11.5q-5 -26 -10 -44q10 0 30 -2l99 -6q66 -6 99 -12q22 -4 37 -10q7 -2 9 -6q5 -8 2 -17q-3 -8 -10 -8q-18 1 -50.5 -4t-43.5 -6q-28 -1 -67 -6q-71 -5 -122 -10q-2 -11 -4.5 -31t-3.5 -30q-2 -15 -4 -49q-5 -65 21 -138q8 -23 9 -26q12 -30 31 -5q4 6 12.5 13.5 t11.5 10.5q16 19 44.5 54.5t35.5 44.5q12 15 44 32q39 20 78 29q28 6 40 -6t11 -47q0 -11 -1.5 -23.5t-4 -28t-3.5 -23.5q-5 -40 -32 -95q-33 -66 -51 -92q-31 -44 -55 -60q-7 -5 -19.5 -15.5t-19.5 -15.5q-19 -12 -24 -13q-4 -1 -22 -8t-29 -6q-64 5 -89 58q-13 26 -20 50 q-10 37 -46 50q-43 17 -63 50q-21 34 -28 70q-1 1 -1 4.5t-1 5.5q-11 22 -22 81q-9 45 -6 83q-1 7 0.5 25t0.5 28v5q-28 -2 -84 -4q-17 0 -25 1q-7 1 -21 13q-4 3 -3.5 9.5t4.5 9.5l6 3q15 9 17 24q1 7 5 14q6 17 21 19q10 1 34.5 6t37.5 6q4 0 12.5 1t12.5 1q5 23 7 27 q3 7 5 22q-19 -1 -57.5 -3t-57.5 -3q-9 0 -25 2q-8 1 -21 12q-4 3 -3.5 10z" />
<glyph unicode="&#x25fc;" horiz-adv-x="890" d="M0 0v891h891v-891h-891z" />
</font>
</defs>
</svg>
